 0
SECTION
 2
HEADER
 9
$ACADVER
 1
AC1015
 9
$ACADMAINTVER
 70
  10
 9
$DWGCODEPAGE
 3
ANSI_1251
 9
$INSBASE
 10
0.0
 20
0.0
 30
0.0
 9
$EXTMIN
 10
0.0
 20
0.0
 30
0.0
 9
$EXTMAX
 10
420.0
 20
297.0
 30
0.0
 9
$LIMMIN
 10
0.0
 20
0.0
 9
$LIMMAX
 10
420.0
 20
297.0
 9
$ORTHOMODE
 70
   0
 9
$REGENMODE
 70
   1
 9
$FILLMODE
 70
   1
 9
$QTEXTMODE
 70
   0
 9
$MIRRTEXT
 70
   1
 9
$LTSCALE
 40
1.0
 9
$ATTMODE
 70
   1
 9
$TEXTSIZE
 40
2.5
 9
$TRACEWID
 40
1.0
 9
$TEXTSTYLE
 7
SCADOFFICE
 9
$CLAYER
 8
0
 9
$CELTYPE
 6
ByLayer
 9
$CECOLOR
 62
  256
 9
$CELTSCALE
 40
1.0
 9
$DISPSILH
 70
   0
 9
$DIMSCALE
 40
1.0
 9
$DIMASZ
 40
2.0
 9
$DIMEXO
 40
2.0
 9
$DIMDLI
 40
2.0
 9
$DIMRND
 40
0.0
 9
$DIMDLE
 40
1.5
 9
$DIMEXE
 40
1.5
 9
$DIMTP
 40
0.0
 9
$DIMTM
 40
0.0
 9
$DIMTXT
 40
2.5
 9
$DIMCEN
 40
2.5
 9
$DIMTSZ
 40
0.0
 9
$DIMTOL
 70
   0
 9
$DIMLIM
 70
   0
 9
$DIMTIH
 70
   0
 9
$DIMTOH
 70
   0
 9
$DIMSE1
 70
   0
 9
$DIMSE2
 70
   0
 9
$DIMTAD
 70
   1
 9
$DIMZIN
 70
   8
 9
$DIMBLK
 1
Oblique
 9
$DIMASO
 70
   1
 9
$DIMSHO
 70
   1
 9
$DIMPOST
 1
 
 9
$DIMAPOST
 1
 
 9
$DIMALT
 70
   0
 9
$DIMALTD
 70
   3
 9
$DIMALTF
 40
0.03937
 9
$DIMLFAC
 40
10.0
 9
$DIMTOFL
 70
   1
 9
$DIMTVP
 40
0.0
 9
$DIMTIX
 70
   0
 9
$DIMSOXD
 70
   0
 9
$DIMSAH
 70
   1
 9
$DIMBLK1
 1
Oblique
 9
$DIMBLK2
 1
Oblique
 9
$DIMSTYLE
 2
SCADOFFICE_DIM
 9
$DIMCLRD
 70
   256
 9
$DIMCLRE
 70
   256
 9
$DIMCLRT
 70
   256
 9
$DIMTFAC
 40
1.0
 9
$DIMGAP
 40
1.0
 9
$DIMJUST
 70
   0
 9
$DIMSD1
 70
   0
 9
$DIMSD2
 70
   0
 9
$DIMTOLJ
 70
   0
 9
$DIMTZIN
 70
   8
 9
$DIMALTZ
 70
   0
 9
$DIMALTTZ
 70
   0
 9
$DIMUPT
 70
   0
 9
$DIMDEC
 70
   1
 9
$DIMTDEC
 70
   1
 9
$DIMALTU
 70
   2
 9
$DIMALTTD
 70
   3
 9
$DIMTXSTY
 7
SCADOFFICE
 9
$DIMAUNIT
 70
   0
 9
$DIMADEC
 70
   0
 9
$DIMALTRND
 40
0.0
 9
$DIMAZIN
 70
   0
 9
$DIMDSEP
 70
   46
 9
$DIMATFIT
 70
   2
 9
$DIMFRAC
 70
   0
 9
$DIMLDRBLK
 1
Oblique
 9
$DIMLUNIT
 70
   2
 9
$DIMLWD
 70
   -3
 9
$DIMLWE
 70
   -3
 9
$DIMTMOVE
 70
   1
 9
$LUNITS
 70
   2
 9
$LUPREC
 70
   4
 9
$SKETCHINC
 40
1.0
 9
$FILLETRAD
 40
10.0
 9
$AUNITS
 70
   0
 9
$AUPREC
 70
   0
 9
$MENU
 1
.
 9
$ELEVATION
 40
0.0
 9
$PELEVATION
 40
0.0
 9
$THICKNESS
 40
0.0
 9
$LIMCHECK
 70
   0
 9
$CHAMFERA
 40
10.0
 9
$CHAMFERB
 40
10.0
 9
$CHAMFERC
 40
20.0
 9
$CHAMFERD
 40
0.0
 9
$SKPOLY
 70
   0
 9
$TDCREATE
 40
2452898.783821065
 9
$TDUCREATE
 40
2452898.658821065
 9
$TDUPDATE
 40
2452898.789414004
 9
$TDUUPDATE
 40
2452898.664414004
 9
$TDINDWG
 40
0.0055929398
 9
$TDUSRTIMER
 40
0.0055929398
 9
$USRTIMER
 70
   1
 9
$ANGBASE
 50
0.0
 9
$ANGDIR
 70
   0
 9
$PDMODE
 70
   0
 9
$PDSIZE
 40
0.0
 9
$PLINEWID
 40
0.0
 9
$SPLFRAME
 70
   0
 9
$SPLINETYPE
 70
   6
 9
$SPLINESEGS
 70
   8
 9
$HANDSEED
 5
D30
 9
$SURFTAB1
 70
   6
 9
$SURFTAB2
 70
   6
 9
$SURFTYPE
 70
   6
 9
$SURFU
 70
   6
 9
$SURFV
 70
   6
 9
$UCSBASE
 2
 
 9
$UCSNAME
 2
 
 9
$UCSORG
 10
0.0
 20
0.0
 30
0.0
 9
$UCSXDIR
 10
1.0
 20
0.0
 30
0.0
 9
$UCSYDIR
 10
0.0
 20
1.0
 30
0.0
 9
$UCSORTHOREF
 2
 
 9
$UCSORTHOVIEW
 70
   0
 9
$UCSORGTOP
 10
0.0
 20
0.0
 30
0.0
 9
$UCSORGBOTTOM
 10
0.0
 20
0.0
 30
0.0
 9
$UCSORGLEFT
 10
0.0
 20
0.0
 30
0.0
 9
$UCSORGRIGHT
 10
0.0
 20
0.0
 30
0.0
 9
$UCSORGFRONT
 10
0.0
 20
0.0
 30
0.0
 9
$UCSORGBACK
 10
0.0
 20
0.0
 30
0.0
 9
$PUCSBASE
 2
 
 9
$PUCSNAME
 2
 
 9
$PUCSORG
 10
0.0
 20
0.0
 30
0.0
 9
$PUCSXDIR
 10
1.0
 20
0.0
 30
0.0
 9
$PUCSYDIR
 10
0.0
 20
1.0
 30
0.0
 9
$PUCSORTHOREF
 2
 
 9
$PUCSORTHOVIEW
 70
   0
 9
$PUCSORGTOP
 10
0.0
 20
0.0
 30
0.0
 9
$PUCSORGBOTTOM
 10
0.0
 20
0.0
 30
0.0
 9
$PUCSORGLEFT
 10
0.0
 20
0.0
 30
0.0
 9
$PUCSORGRIGHT
 10
0.0
 20
0.0
 30
0.0
 9
$PUCSORGFRONT
 10
0.0
 20
0.0
 30
0.0
 9
$PUCSORGBACK
 10
0.0
 20
0.0
 30
0.0
 9
$USERI1
 70
   0
 9
$USERI2
 70
   0
 9
$USERI3
 70
   0
 9
$USERI4
 70
   0
 9
$USERI5
 70
   0
 9
$USERR1
 40
0.0
 9
$USERR2
 40
0.0
 9
$USERR3
 40
0.0
 9
$USERR4
 40
0.0
 9
$USERR5
 40
0.0
 9
$WORLDVIEW
 70
   1
 9
$SHADEDGE
 70
   3
 9
$SHADEDIF
 70
  70
 9
$TILEMODE
 70
   1
 9
$MAXACTVP
 70
  64
 9
$PINSBASE
 10
0.0
 20
0.0
 30
0.0
 9
$PLIMCHECK
 70
   0
 9
$PEXTMIN
 10
1.0E+20
 20
1.0E+20
 30
1.0E+20
 9
$PEXTMAX
 10
-1.0E+20
 20
-1.0E+20
 30
-1.0E+20
 9
$PLIMMIN
 10
0.0
 20
0.0
 9
$PLIMMAX
 10
420.0
 20
297.0
 9
$UNITMODE
 70
   0
 9
$VISRETAIN
 70
   1
 9
$PLINEGEN
 70
   0
 9
$PSLTSCALE
 70
   1
 9
$TREEDEPTH
 70
  3020
 9
$CMLSTYLE
 2
Standard
 9
$CMLJUST
 70
   0
 9
$CMLSCALE
 40
20.0
 9
$PROXYGRAPHICS
 70
   1
 9
$MEASUREMENT
 70
   1
 9
$CELWEIGHT
370
   -1
 9
$ENDCAPS
280
   0
 9
$JOINSTYLE
280
   0
 9
$LWDISPLAY
290
  1
 9
$INSUNITS
 70
   4
 9
$HYPERLINKBASE
 1
 
 9
$STYLESHEET
 1
 
 9
$XEDIT
290
   1
 9
$CEPSNTYPE
380
   0
 9
$PSTYLEMODE
290
   1
 9
$FINGERPRINTGUID
 2
{0871184B-FFD7-11D7-B25E-00024462752A}
 9
$VERSIONGUID
 2
{B452936A-BE19-11D8-B25F-00024462752A}
 9
$EXTNAMES
290
   1
 9
$PSVPSCALE
 40
0.0
 9
$OLESTARTUP
290
   0
 0
ENDSEC
 0
SECTION
 2
CLASSES
 0
CLASS
 1
ACDBDICTIONARYWDFLT
 2
AcDbDictionaryWithDefault
 3
AutoCAD 2000
 90
   0
280
  0
281
  0
 0
CLASS
 1
ACDBPLACEHOLDER
 2
AcDbPlaceHolder
 3
AutoCAD 2000
 90
   0
280
  0
281
  0
 0
CLASS
 1
LAYOUT
 2
AcDbLayout
 3
AutoCAD 2000
 90
   0
280
  0
281
  0
 0
CLASS
 1
DICTIONARYVAR
 2
AcDbDictionaryVar
 3
AutoCAD 2000
 90
   0
280
  0
281
  0
 0
ENDSEC
 0
SECTION
 2
TABLES
 0
TABLE
 2
VPORT
 5
8
330
0
 100
AcDbSymbolTable
 70
   2
 0
VPORT
 5
90
330
8
 100
AcDbSymbolTableRecord
 100
AcDbViewportTableRecord
 2
*Active
 70
   0
 10
0.0
 20
0.0
 11
1.0
 21
1.0
 12
210.0
 22
148.5
 13
0.0
 23
0.0
 14
10.0
 24
10.0
 15
10.0
 25
10.0
 16
0.0
 26
0.0
 36
1.0
 17
0.0
 27
0.0
 37
0.0
 40
420.0
 41
1.9
 42
50.0
 43
0.0
 44
0.0
 50
0.0
 51
0.0
 71
   0
 72
  100
 73
   1
 74
   3
 75
   0
 76
   0
 77
   0
 78
   0
 281
   0
 65
   1
110
0.0
120
0.0
130
0.0
111
1.0
121
0.0
131
0.0
112
0.0
122
1.0
132
0.0
 79
   0
146
0.0
 0
ENDTAB
 0
TABLE
 2
LTYPE
 5
5
330
0
 100
AcDbSymbolTable
 70
   3
 0
LTYPE
 5
13
330
5
 100
AcDbSymbolTableRecord
 100
AcDbLinetypeTableRecord
 2
ByBlock
 70
   0
 3
 
 72
  65
 73
   0
 40
0.0
 0
LTYPE
 5
14
330
5
 100
AcDbSymbolTableRecord
 100
AcDbLinetypeTableRecord
 2
ByLayer
 70
   0
 3
 
 72
  65
 73
   0
 40
0.0
 0
LTYPE
 5
15
330
5
 100
AcDbSymbolTableRecord
 100
AcDbLinetypeTableRecord
 2
CONTINUOUS
 70
   0
 3
Solid line
 72
  65
 73
   0
 40
0.0
 0
LTYPE
 5
23
330
5
 100
AcDbSymbolTableRecord
 100
AcDbLinetypeTableRecord
 2
DASHED
 70
  0
 3
dashed line
 72
  65
 73
  2
 40
3.0
 49
2.0
 74
   0
 49
-1.0
 74
   0
 0
LTYPE
 5
24
330
5
 100
AcDbSymbolTableRecord
 100
AcDbLinetypeTableRecord
 2
CENTER
 70
   0
 3
Center
 72
  65
 73
  4
 40
8.0
 49
5.0
 74
   0
 49
-1.0
 74
   0
 49
1.0
 74
   0
 49
-1.0
 74
   0
 0
ENDTAB
 0
TABLE
 2
LAYER
 5
2
330
0
 100
AcDbSymbolTable
 70
   9
 0
LAYER
 5
100
330
2
 100
AcDbSymbolTableRecord
 100
AcDbLayerTableRecord
 2
0
 70
   0
 62
   7
 6
CONTINUOUS
370
   -3
390
F
 0
LAYER
 5
108
330
2
 100
AcDbSymbolTableRecord
 100
AcDbLayerTableRecord
 2
DEFPOINTS
 70
   0
 62
   7
 6
CONTINUOUS
290
   0
370
   -3
390
F
 0
LAYER
 5
110
330
2
 100
AcDbSymbolTableRecord
 100
AcDbLayerTableRecord
 2
Узел
 70
   0
 62
   7
 6
CONTINUOUS
370
   -3
390
F
 0
LAYER
 5
118
330
2
 100
AcDbSymbolTableRecord
 100
AcDbLayerTableRecord
 2
Профиль
 70
   0
 62
   7
 6
CONTINUOUS
370
   40
390
F
 0
LAYER
 5
120
330
2
 100
AcDbSymbolTableRecord
 100
AcDbLayerTableRecord
 2
Изометрия
 70
   0
 62
   7
 6
CONTINUOUS
370
   -3
390
F
 0
LAYER
 5
128
330
2
 100
AcDbSymbolTableRecord
 100
AcDbLayerTableRecord
 2
Размеры
 70
   0
 62
   7
 6
CONTINUOUS
370
   -3
390
F
 0
LAYER
 5
130
330
2
 100
AcDbSymbolTableRecord
 100
AcDbLayerTableRecord
 2
Выноски
 70
   0
 62
   7
 6
CONTINUOUS
370
   -3
390
F
 0
LAYER
 5
138
330
2
 100
AcDbSymbolTableRecord
 100
AcDbLayerTableRecord
 2
Спецификация
 70
   0
 62
   7
 6
CONTINUOUS
370
   -3
390
F
 0
LAYER
 5
140
330
2
 100
AcDbSymbolTableRecord
 100
AcDbLayerTableRecord
 2
Штамп+рамка
 70
   0
 62
   7
 6
CONTINUOUS
370
   -3
390
F
 0
ENDTAB
 0
TABLE
 2
STYLE
 5
3
330
0
 100
AcDbSymbolTable
 70
   1
 0
STYLE
 5
28
330
3
 100
AcDbSymbolTableRecord
 100
AcDbTextStyleTableRecord
 2
SCADOFFICE
 70
   0
 40
2.5
 41
0.7
 50
15.0
 71
   0
 42
2.5
 3
RomanS
 0
ENDTAB
 0
TABLE
 2
VIEW
 5
6
330
0
 100
AcDbSymbolTable
 70
   0
 0
ENDTAB
 0
TABLE
 2
UCS
 5
7
330
0
 100
AcDbSymbolTable
 70
   0
 0
ENDTAB
 0
TABLE
 2
APPID
 5
9
330
0
 100
AcDbSymbolTable
 70
   1
 0
APPID
 5
12
330
9
 100
AcDbSymbolTableRecord
 100
AcDbRegAppTableRecord
 2
ACAD
 70
   0
 0
ENDTAB
 0
TABLE
 2
DIMSTYLE
 5
A
330
0
 100
AcDbSymbolTable
 70
   1
 100
AcDbDimStyleTable
 71
   2
340
32
 0
DIMSTYLE
105
32
102
{ACAD_REACTORS
330
4001
330
4002
330
4003
330
4004
330
4005
330
4006
330
4007
330
4008
330
4009
330
4010
330
4011
102
}
330
A
 100
AcDbSymbolTableRecord
 100
AcDbDimStyleTableRecord
 2
SCADOFFICE_DIM
 70
   0
 40
1.0
 41
2.0
 42
2.0
 43
2.0
 44
1.5
 46
1.5
 73
   0
 74
   0
 77
   1
 78
   8
 79
   0
 140
 2.5
 141
 2.5
 142
 0.0
 143
 0.03937
 144
 10.0
 147
 1.0
 171
   3
 172
   1
 173
   1
 174
   0
 176
   256
 177
   256
 178
   256
 179
   0
 271
   1
 272
   1
 274
   3
 275
   0
 277
   2
 278
   46
 280
   0
 283
   0
 284
   8
 289
   2
 340
 28
 341
 CE
 342
 CE
 371
   -3
 372
   -3
 0
ENDTAB
 0
TABLE
 2
BLOCK_RECORD
 5
1
330
0
 100
AcDbSymbolTable
 70
   5
 0
BLOCK_RECORD
 5
1E
330
1
 100
AcDbSymbolTableRecord
 100
AcDbBlockTableRecord
 2
*Model_Space
340
21
 0
BLOCK_RECORD
 5
2A
330
1
 100
AcDbSymbolTableRecord
 100
AcDbBlockTableRecord
 2
*Paper_Space
340
1D
 0
BLOCK_RECORD
 5
33
330
1
 100
AcDbSymbolTableRecord
 100
AcDbBlockTableRecord
 2
*Paper_Space0
340
26
 0
BLOCK_RECORD
 5
C550
330
1
 100
AcDbSymbolTableRecord
 100
AcDbBlockTableRecord
 2
*D1
340
0
 0
BLOCK_RECORD
 5
CE
330
1
 100
AcDbSymbolTableRecord
 100
AcDbBlockTableRecord
 2
_Oblique
340
0
102
{BLKREFS
102
}
 0
BLOCK_RECORD
 5
C560
330
1
 100
AcDbSymbolTableRecord
 100
AcDbBlockTableRecord
 2
*D2
340
0
 0
BLOCK_RECORD
 5
C570
330
1
 100
AcDbSymbolTableRecord
 100
AcDbBlockTableRecord
 2
*D3
340
0
 0
BLOCK_RECORD
 5
C580
330
1
 100
AcDbSymbolTableRecord
 100
AcDbBlockTableRecord
 2
*D4
340
0
 0
BLOCK_RECORD
 5
C590
330
1
 100
AcDbSymbolTableRecord
 100
AcDbBlockTableRecord
 2
*D5
340
0
 0
BLOCK_RECORD
 5
C5A0
330
1
 100
AcDbSymbolTableRecord
 100
AcDbBlockTableRecord
 2
*D6
340
0
 0
BLOCK_RECORD
 5
C5B0
330
1
 100
AcDbSymbolTableRecord
 100
AcDbBlockTableRecord
 2
*D7
340
0
 0
BLOCK_RECORD
 5
C5C0
330
1
 100
AcDbSymbolTableRecord
 100
AcDbBlockTableRecord
 2
*D8
340
0
 0
BLOCK_RECORD
 5
C5D0
330
1
 100
AcDbSymbolTableRecord
 100
AcDbBlockTableRecord
 2
*D9
340
0
 0
BLOCK_RECORD
 5
C5E0
330
1
 100
AcDbSymbolTableRecord
 100
AcDbBlockTableRecord
 2
*D10
340
0
 0
BLOCK_RECORD
 5
C5F0
330
1
 100
AcDbSymbolTableRecord
 100
AcDbBlockTableRecord
 2
*D11
340
0
 0
BLOCK_RECORD
 5
C600
330
1
 100
AcDbSymbolTableRecord
 100
AcDbBlockTableRecord
 2
*D12
340
0
 0
ENDTAB
 0
ENDSEC
 0
SECTION
 2
BLOCKS
 0
BLOCK
 5
1F
330
1E
100
AcDbEntity
 8
0
100
AcDbBlockBegin
 2
*Model_Space
70
  0
 10
0.0
 20
0.0
 30
0.0
 3
*Model_Space
 1
 
 0
ENDBLK
 5
20
330
1E
100
AcDbEntity
 8
0
100
AcDbBlockEnd
 0
BLOCK
 5
1B
330
2A
100
AcDbEntity
67
  1
 8
0
100
AcDbBlockBegin
 2
*Paper_Space
70
  0
 10
0.0
 20
0.0
 30
0.0
 3
*Paper_Space
 1
 
 0
ENDBLK
 5
1C
330
2A
100
AcDbEntity
67
  1
 8
0
100
AcDbBlockEnd
 0
BLOCK
 5
34
330
33
100
AcDbEntity
 8
0
100
AcDbBlockBegin
 2
*Paper_Space0
70
  0
 10
0.0
 20
0.0
 30
0.0
 3
*Paper_Space0
 1
 
 0
ENDBLK
 5
35
330
33
100
AcDbEntity
 8
0
100
AcDbBlockEnd
 0
BLOCK
 5
C551
330
C550
100
AcDbEntity
 8
Размеры
100
AcDbBlockBegin
 2
*D1
 70
   1
 10
0.0
 20
0.0
 30
0.0
 3
*D1
 1
 
 0
LINE
 5
C552
330
C550
100
AcDbEntity
 8
Размеры
370
  -3
100
AcDbLine
 10
128.920000
 20
181.120000
 30
0.0
 11
136.420000
 21
181.120000
 31
0.0
 0
LINE
 5
C553
330
C550
100
AcDbEntity
 8
Размеры
370
  -3
100
AcDbLine
 10
128.920000
 20
179.120000
 30
0.0
 11
136.420000
 21
179.120000
 31
0.0
 0
LINE
 5
C554
330
C550
100
AcDbEntity
 8
Размеры
370
  -3
100
AcDbLine
 10
134.920000
 20
182.620000
 30
0.0
 11
134.920000
 21
177.620000
 31
0.0
 0
LINE
 5
C55C
330
C550
100
AcDbEntity
 8
Размеры
370
  -3
100
AcDbLine
 10
134.920000
 20
181.120000
 30
0.0
 11
134.920000
 21
172.420000
 31
0.0
 0
INSERT
 5
C555
330
C550
100
AcDbEntity
 8
Размеры
370
  -3
100
AcDbBlockReference
 2
_Oblique
 10
134.920000
 20
181.120000
 30
0.0
 41
2.0
 42
2.0
 43
2.0
 50
90
 0
INSERT
 5
C556
330
C550
100
AcDbEntity
 8
Размеры
370
  -3
100
AcDbBlockReference
 2
_Oblique
 10
134.920000
 20
179.120000
 30
0.0
 41
2.0
 42
2.0
 43
2.0
 50
270
 0
MTEXT
 5
C557
330
C550
100
AcDbEntity
 8
Размеры
100
AcDbMText
 10
133.920000
 20
174.920000
 30
0.0
 40
2.5
 41
0.0
 71
   8
 72
   5
 1
20
 7
SCADOFFICE
 11
1.0E-15
 21
1.0
 31
0.0
 73
   1
 44
1.0
 0
POINT
 5
C558
330
C550
100
AcDbEntity
 8
DEFPOINTS
 62
  0
100
AcDbPoint
 10
126.920000
 20
181.120000
 30
0.0
 0
POINT
 5
C559
330
C550
100
AcDbEntity
 8
DEFPOINTS
 62
  0
100
AcDbPoint
 10
126.920000
 20
179.120000
 30
0.0
 0
POINT
 5
C55A
330
C550
100
AcDbEntity
 8
DEFPOINTS
 62
  0
100
AcDbPoint
 10
134.920000
 20
179.120000
 30
0.0
 0
ENDBLK
 5
C55B
330
C550
100
AcDbEntity
 8
Размеры
100
AcDbBlockEnd
 0
BLOCK
 5
D0
330
CE
100
AcDbEntity
 8
Размеры
100
AcDbBlockBegin
 2
_Oblique
 70
   0
 10
0.0
 20
0.0
 30
0.0
 3
_Oblique
 1
 
 0
LINE
 5
CF
330
CE
100
AcDbEntity
 8
Размеры
 6
ByBlock
 62
  0
370
  -2
100
AcDbLine
 10
-0.5
 20
-0.5
 30
0.0
 11
0.5
 21
0.5
 31
0.0
 0
ENDBLK
 5
D1
330
CE
100
AcDbEntity
 8
Размеры
100
AcDbBlockEnd
 0
BLOCK
 5
C561
330
C560
100
AcDbEntity
 8
Размеры
100
AcDbBlockBegin
 2
*D2
 70
   1
 10
0.0
 20
0.0
 30
0.0
 3
*D2
 1
 
 0
LINE
 5
C562
330
C560
100
AcDbEntity
 8
Размеры
370
  -3
100
AcDbLine
 10
87.170000
 20
177.120000
 30
0.0
 11
87.170000
 21
169.620000
 31
0.0
 0
LINE
 5
C563
330
C560
100
AcDbEntity
 8
Размеры
370
  -3
100
AcDbLine
 10
77.420000
 20
177.120000
 30
0.0
 11
77.420000
 21
169.620000
 31
0.0
 0
LINE
 5
C564
330
C560
100
AcDbEntity
 8
Размеры
370
  -3
100
AcDbLine
 10
88.670000
 20
171.120000
 30
0.0
 11
75.920000
 21
171.120000
 31
0.0
 0
INSERT
 5
C565
330
C560
100
AcDbEntity
 8
Размеры
370
  -3
100
AcDbBlockReference
 2
_Oblique
 10
87.170000
 20
171.120000
 30
0.0
 41
2.0
 42
2.0
 43
2.0
 0
INSERT
 5
C566
330
C560
100
AcDbEntity
 8
Размеры
370
  -3
100
AcDbBlockReference
 2
_Oblique
 10
77.420000
 20
171.120000
 30
0.0
 41
2.0
 42
2.0
 43
2.0
 0
MTEXT
 5
C567
330
C560
100
AcDbEntity
 8
Размеры
100
AcDbMText
 10
82.295000
 20
172.120000
 30
0.0
 40
2.5
 41
0.0
 71
   8
 72
   5
 1
97.5
 7
SCADOFFICE
 73
   1
 44
1.0
 0
POINT
 5
C568
330
C560
100
AcDbEntity
 8
DEFPOINTS
 62
  0
100
AcDbPoint
 10
87.170000
 20
179.120000
 30
0.0
 0
POINT
 5
C569
330
C560
100
AcDbEntity
 8
DEFPOINTS
 62
  0
100
AcDbPoint
 10
77.420000
 20
179.120000
 30
0.0
 0
POINT
 5
C56A
330
C560
100
AcDbEntity
 8
DEFPOINTS
 62
  0
100
AcDbPoint
 10
77.420000
 20
171.120000
 30
0.0
 0
ENDBLK
 5
C56B
330
C560
100
AcDbEntity
 8
Размеры
100
AcDbBlockEnd
 0
BLOCK
 5
C571
330
C570
100
AcDbEntity
 8
Размеры
100
AcDbBlockBegin
 2
*D3
 70
   1
 10
0.0
 20
0.0
 30
0.0
 3
*D3
 1
 
 0
LINE
 5
C572
330
C570
100
AcDbEntity
 8
Размеры
370
  -3
100
AcDbLine
 10
210.870000
 20
205.120000
 30
0.0
 11
203.370000
 21
205.120000
 31
0.0
 0
LINE
 5
C573
330
C570
100
AcDbEntity
 8
Размеры
370
  -3
100
AcDbLine
 10
210.870000
 20
181.120000
 30
0.0
 11
203.370000
 21
181.120000
 31
0.0
 0
LINE
 5
C574
330
C570
100
AcDbEntity
 8
Размеры
370
  -3
100
AcDbLine
 10
204.870000
 20
206.620000
 30
0.0
 11
204.870000
 21
179.620000
 31
0.0
 0
INSERT
 5
C575
330
C570
100
AcDbEntity
 8
Размеры
370
  -3
100
AcDbBlockReference
 2
_Oblique
 10
204.870000
 20
205.120000
 30
0.0
 41
2.0
 42
2.0
 43
2.0
 50
90
 0
INSERT
 5
C576
330
C570
100
AcDbEntity
 8
Размеры
370
  -3
100
AcDbBlockReference
 2
_Oblique
 10
204.870000
 20
181.120000
 30
0.0
 41
2.0
 42
2.0
 43
2.0
 50
270
 0
MTEXT
 5
C577
330
C570
100
AcDbEntity
 8
Размеры
100
AcDbMText
 10
203.870000
 20
193.120000
 30
0.0
 40
2.5
 41
0.0
 71
   8
 72
   5
 1
240
 7
SCADOFFICE
 11
1.0E-15
 21
1.0
 31
0.0
 73
   1
 44
1.0
 0
POINT
 5
C578
330
C570
100
AcDbEntity
 8
DEFPOINTS
 62
  0
100
AcDbPoint
 10
212.870000
 20
205.120000
 30
0.0
 0
POINT
 5
C579
330
C570
100
AcDbEntity
 8
DEFPOINTS
 62
  0
100
AcDbPoint
 10
212.870000
 20
181.120000
 30
0.0
 0
POINT
 5
C57A
330
C570
100
AcDbEntity
 8
DEFPOINTS
 62
  0
100
AcDbPoint
 10
204.870000
 20
181.120000
 30
0.0
 0
ENDBLK
 5
C57B
330
C570
100
AcDbEntity
 8
Размеры
100
AcDbBlockEnd
 0
BLOCK
 5
C581
330
C580
100
AcDbEntity
 8
Размеры
100
AcDbBlockBegin
 2
*D4
 70
   1
 10
0.0
 20
0.0
 30
0.0
 3
*D4
 1
 
 0
LINE
 5
C582
330
C580
100
AcDbEntity
 8
Размеры
370
  -3
100
AcDbLine
 10
222.920000
 20
177.120000
 30
0.0
 11
222.920000
 21
169.620000
 31
0.0
 0
LINE
 5
C583
330
C580
100
AcDbEntity
 8
Размеры
370
  -3
100
AcDbLine
 10
212.920000
 20
177.120000
 30
0.0
 11
212.920000
 21
169.620000
 31
0.0
 0
LINE
 5
C584
330
C580
100
AcDbEntity
 8
Размеры
370
  -3
100
AcDbLine
 10
224.420000
 20
171.120000
 30
0.0
 11
211.420000
 21
171.120000
 31
0.0
 0
INSERT
 5
C585
330
C580
100
AcDbEntity
 8
Размеры
370
  -3
100
AcDbBlockReference
 2
_Oblique
 10
222.920000
 20
171.120000
 30
0.0
 41
2.0
 42
2.0
 43
2.0
 0
INSERT
 5
C586
330
C580
100
AcDbEntity
 8
Размеры
370
  -3
100
AcDbBlockReference
 2
_Oblique
 10
212.920000
 20
171.120000
 30
0.0
 41
2.0
 42
2.0
 43
2.0
 0
MTEXT
 5
C587
330
C580
100
AcDbEntity
 8
Размеры
100
AcDbMText
 10
218.520000
 20
172.120000
 30
0.0
 40
2.5
 41
0.0
 71
   8
 72
   5
 1
100
 7
SCADOFFICE
 73
   1
 44
1.0
 0
POINT
 5
C588
330
C580
100
AcDbEntity
 8
DEFPOINTS
 62
  0
100
AcDbPoint
 10
222.920000
 20
179.120000
 30
0.0
 0
POINT
 5
C589
330
C580
100
AcDbEntity
 8
DEFPOINTS
 62
  0
100
AcDbPoint
 10
212.920000
 20
179.120000
 30
0.0
 0
POINT
 5
C58A
330
C580
100
AcDbEntity
 8
DEFPOINTS
 62
  0
100
AcDbPoint
 10
212.920000
 20
171.120000
 30
0.0
 0
ENDBLK
 5
C58B
330
C580
100
AcDbEntity
 8
Размеры
100
AcDbBlockEnd
 0
BLOCK
 5
C591
330
C590
100
AcDbEntity
 8
Размеры
100
AcDbBlockBegin
 2
*D5
 70
   1
 10
0.0
 20
0.0
 30
0.0
 3
*D5
 1
 
 0
LINE
 5
C592
330
C590
100
AcDbEntity
 8
Размеры
370
  -3
100
AcDbLine
 10
82.570000
 20
41.990000
 30
0.0
 11
82.570000
 21
34.490000
 31
0.0
 0
LINE
 5
C593
330
C590
100
AcDbEntity
 8
Размеры
370
  -3
100
AcDbLine
 10
87.170000
 20
41.990000
 30
0.0
 11
87.170000
 21
34.490000
 31
0.0
 0
LINE
 5
C594
330
C590
100
AcDbEntity
 8
Размеры
370
  -3
100
AcDbLine
 10
81.070000
 20
35.990000
 30
0.0
 11
88.670000
 21
35.990000
 31
0.0
 0
LINE
 5
C59C
330
C590
100
AcDbEntity
 8
Размеры
370
  -3
100
AcDbLine
 10
87.170000
 20
35.990000
 30
0.0
 11
93.870000
 21
35.990000
 31
0.0
 0
INSERT
 5
C595
330
C590
100
AcDbEntity
 8
Размеры
370
  -3
100
AcDbBlockReference
 2
_Oblique
 10
82.570000
 20
35.990000
 30
0.0
 41
2.0
 42
2.0
 43
2.0
 50
180
 0
INSERT
 5
C596
330
C590
100
AcDbEntity
 8
Размеры
370
  -3
100
AcDbBlockReference
 2
_Oblique
 10
87.170000
 20
35.990000
 30
0.0
 41
2.0
 42
2.0
 43
2.0
 0
MTEXT
 5
C597
330
C590
100
AcDbEntity
 8
Размеры
100
AcDbMText
 10
91.370000
 20
36.990000
 30
0.0
 40
2.5
 41
0.0
 71
   8
 72
   5
 1
46
 7
SCADOFFICE
 73
   1
 44
1.0
 0
POINT
 5
C598
330
C590
100
AcDbEntity
 8
DEFPOINTS
 62
  0
100
AcDbPoint
 10
82.570000
 20
43.990000
 30
0.0
 0
POINT
 5
C599
330
C590
100
AcDbEntity
 8
DEFPOINTS
 62
  0
100
AcDbPoint
 10
87.170000
 20
43.990000
 30
0.0
 0
POINT
 5
C59A
330
C590
100
AcDbEntity
 8
DEFPOINTS
 62
  0
100
AcDbPoint
 10
87.170000
 20
35.990000
 30
0.0
 0
ENDBLK
 5
C59B
330
C590
100
AcDbEntity
 8
Размеры
100
AcDbBlockEnd
 0
BLOCK
 5
C5A1
330
C5A0
100
AcDbEntity
 8
Размеры
100
AcDbBlockBegin
 2
*D6
 70
   1
 10
0.0
 20
0.0
 30
0.0
 3
*D6
 1
 
 0
LINE
 5
C5A2
330
C5A0
100
AcDbEntity
 8
Размеры
370
  -3
100
AcDbLine
 10
82.570000
 20
41.990000
 30
0.0
 11
82.570000
 21
34.490000
 31
0.0
 0
LINE
 5
C5A3
330
C5A0
100
AcDbEntity
 8
Размеры
370
  -3
100
AcDbLine
 10
77.420000
 20
41.990000
 30
0.0
 11
77.420000
 21
34.490000
 31
0.0
 0
LINE
 5
C5A4
330
C5A0
100
AcDbEntity
 8
Размеры
370
  -3
100
AcDbLine
 10
84.070000
 20
35.990000
 30
0.0
 11
75.920000
 21
35.990000
 31
0.0
 0
LINE
 5
C5AC
330
C5A0
100
AcDbEntity
 8
Размеры
370
  -3
100
AcDbLine
 10
82.570000
 20
35.990000
 30
0.0
 11
66.520000
 21
35.990000
 31
0.0
 0
INSERT
 5
C5A5
330
C5A0
100
AcDbEntity
 8
Размеры
370
  -3
100
AcDbBlockReference
 2
_Oblique
 10
82.570000
 20
35.990000
 30
0.0
 41
2.0
 42
2.0
 43
2.0
 0
INSERT
 5
C5A6
330
C5A0
100
AcDbEntity
 8
Размеры
370
  -3
100
AcDbBlockReference
 2
_Oblique
 10
77.420000
 20
35.990000
 30
0.0
 41
2.0
 42
2.0
 43
2.0
 0
MTEXT
 5
C5A7
330
C5A0
100
AcDbEntity
 8
Размеры
100
AcDbMText
 10
69.020000
 20
36.990000
 30
0.0
 40
2.5
 41
0.0
 71
   8
 72
   5
 1
51.5
 7
SCADOFFICE
 73
   1
 44
1.0
 0
POINT
 5
C5A8
330
C5A0
100
AcDbEntity
 8
DEFPOINTS
 62
  0
100
AcDbPoint
 10
82.570000
 20
43.990000
 30
0.0
 0
POINT
 5
C5A9
330
C5A0
100
AcDbEntity
 8
DEFPOINTS
 62
  0
100
AcDbPoint
 10
77.420000
 20
43.990000
 30
0.0
 0
POINT
 5
C5AA
330
C5A0
100
AcDbEntity
 8
DEFPOINTS
 62
  0
100
AcDbPoint
 10
77.420000
 20
35.990000
 30
0.0
 0
ENDBLK
 5
C5AB
330
C5A0
100
AcDbEntity
 8
Размеры
100
AcDbBlockEnd
 0
BLOCK
 5
C5B1
330
C5B0
100
AcDbEntity
 8
Размеры
100
AcDbBlockBegin
 2
*D7
 70
   1
 10
0.0
 20
0.0
 30
0.0
 3
*D7
 1
 
 0
LINE
 5
C5B2
330
C5B0
100
AcDbEntity
 8
Размеры
370
  -3
100
AcDbLine
 10
77.420000
 20
98.490000
 30
0.0
 11
77.420000
 21
113.990000
 31
0.0
 0
LINE
 5
C5B3
330
C5B0
100
AcDbEntity
 8
Размеры
370
  -3
100
AcDbLine
 10
126.920000
 20
98.490000
 30
0.0
 11
126.920000
 21
113.990000
 31
0.0
 0
LINE
 5
C5B4
330
C5B0
100
AcDbEntity
 8
Размеры
370
  -3
100
AcDbLine
 10
75.920000
 20
112.490000
 30
0.0
 11
128.420000
 21
112.490000
 31
0.0
 0
INSERT
 5
C5B5
330
C5B0
100
AcDbEntity
 8
Размеры
370
  -3
100
AcDbBlockReference
 2
_Oblique
 10
77.420000
 20
112.490000
 30
0.0
 41
2.0
 42
2.0
 43
2.0
 50
180
 0
INSERT
 5
C5B6
330
C5B0
100
AcDbEntity
 8
Размеры
370
  -3
100
AcDbBlockReference
 2
_Oblique
 10
126.920000
 20
112.490000
 30
0.0
 41
2.0
 42
2.0
 43
2.0
 0
MTEXT
 5
C5B7
330
C5B0
100
AcDbEntity
 8
Размеры
100
AcDbMText
 10
102.170000
 20
113.490000
 30
0.0
 40
2.5
 41
0.0
 71
   8
 72
   5
 1
495
 7
SCADOFFICE
 73
   1
 44
1.0
 0
POINT
 5
C5B8
330
C5B0
100
AcDbEntity
 8
DEFPOINTS
 62
  0
100
AcDbPoint
 10
77.420000
 20
96.490000
 30
0.0
 0
POINT
 5
C5B9
330
C5B0
100
AcDbEntity
 8
DEFPOINTS
 62
  0
100
AcDbPoint
 10
126.920000
 20
96.490000
 30
0.0
 0
POINT
 5
C5BA
330
C5B0
100
AcDbEntity
 8
DEFPOINTS
 62
  0
100
AcDbPoint
 10
126.920000
 20
112.490000
 30
0.0
 0
ENDBLK
 5
C5BB
330
C5B0
100
AcDbEntity
 8
Размеры
100
AcDbBlockEnd
 0
BLOCK
 5
C5C1
330
C5C0
100
AcDbEntity
 8
Размеры
100
AcDbBlockBegin
 2
*D8
 70
   1
 10
0.0
 20
0.0
 30
0.0
 3
*D8
 1
 
 0
LINE
 5
C5C2
330
C5C0
100
AcDbEntity
 8
Размеры
370
  -3
100
AcDbLine
 10
75.420000
 20
43.990000
 30
0.0
 11
59.920000
 21
43.990000
 31
0.0
 0
LINE
 5
C5C3
330
C5C0
100
AcDbEntity
 8
Размеры
370
  -3
100
AcDbLine
 10
75.420000
 20
96.490000
 30
0.0
 11
59.920000
 21
96.490000
 31
0.0
 0
LINE
 5
C5C4
330
C5C0
100
AcDbEntity
 8
Размеры
370
  -3
100
AcDbLine
 10
61.420000
 20
42.490000
 30
0.0
 11
61.420000
 21
97.990000
 31
0.0
 0
INSERT
 5
C5C5
330
C5C0
100
AcDbEntity
 8
Размеры
370
  -3
100
AcDbBlockReference
 2
_Oblique
 10
61.420000
 20
43.990000
 30
0.0
 41
2.0
 42
2.0
 43
2.0
 50
270
 0
INSERT
 5
C5C6
330
C5C0
100
AcDbEntity
 8
Размеры
370
  -3
100
AcDbBlockReference
 2
_Oblique
 10
61.420000
 20
96.490000
 30
0.0
 41
2.0
 42
2.0
 43
2.0
 50
90
 0
MTEXT
 5
C5C7
330
C5C0
100
AcDbEntity
 8
Размеры
100
AcDbMText
 10
60.420000
 20
70.240000
 30
0.0
 40
2.5
 41
0.0
 71
   8
 72
   5
 1
525
 7
SCADOFFICE
 11
1.0E-15
 21
1.0
 31
0.0
 73
   1
 44
1.0
 0
POINT
 5
C5C8
330
C5C0
100
AcDbEntity
 8
DEFPOINTS
 62
  0
100
AcDbPoint
 10
77.420000
 20
43.990000
 30
0.0
 0
POINT
 5
C5C9
330
C5C0
100
AcDbEntity
 8
DEFPOINTS
 62
  0
100
AcDbPoint
 10
77.420000
 20
96.490000
 30
0.0
 0
POINT
 5
C5CA
330
C5C0
100
AcDbEntity
 8
DEFPOINTS
 62
  0
100
AcDbPoint
 10
61.420000
 20
96.490000
 30
0.0
 0
ENDBLK
 5
C5CB
330
C5C0
100
AcDbEntity
 8
Размеры
100
AcDbBlockEnd
 0
BLOCK
 5
C5D1
330
C5D0
100
AcDbEntity
 8
Размеры
100
AcDbBlockBegin
 2
*D9
 70
   1
 10
0.0
 20
0.0
 30
0.0
 3
*D9
 1
 
 0
LINE
 5
C5D2
330
C5D0
100
AcDbEntity
 8
Размеры
370
  -3
100
AcDbLine
 10
87.170000
 20
98.490000
 30
0.0
 11
87.170000
 21
105.990000
 31
0.0
 0
LINE
 5
C5D3
330
C5D0
100
AcDbEntity
 8
Размеры
370
  -3
100
AcDbLine
 10
88.370000
 20
98.490000
 30
0.0
 11
88.370000
 21
105.990000
 31
0.0
 0
LINE
 5
C5D4
330
C5D0
100
AcDbEntity
 8
Размеры
370
  -3
100
AcDbLine
 10
85.670000
 20
104.490000
 30
0.0
 11
89.870000
 21
104.490000
 31
0.0
 0
LINE
 5
C5DC
330
C5D0
100
AcDbEntity
 8
Размеры
370
  -3
100
AcDbLine
 10
88.370000
 20
104.490000
 30
0.0
 11
95.070000
 21
104.490000
 31
0.0
 0
INSERT
 5
C5D5
330
C5D0
100
AcDbEntity
 8
Размеры
370
  -3
100
AcDbBlockReference
 2
_Oblique
 10
87.170000
 20
104.490000
 30
0.0
 41
2.0
 42
2.0
 43
2.0
 50
180
 0
INSERT
 5
C5D6
330
C5D0
100
AcDbEntity
 8
Размеры
370
  -3
100
AcDbBlockReference
 2
_Oblique
 10
88.370000
 20
104.490000
 30
0.0
 41
2.0
 42
2.0
 43
2.0
 0
MTEXT
 5
C5D7
330
C5D0
100
AcDbEntity
 8
Размеры
100
AcDbMText
 10
92.570000
 20
105.490000
 30
0.0
 40
2.5
 41
0.0
 71
   8
 72
   5
 1
12
 7
SCADOFFICE
 73
   1
 44
1.0
 0
POINT
 5
C5D8
330
C5D0
100
AcDbEntity
 8
DEFPOINTS
 62
  0
100
AcDbPoint
 10
87.170000
 20
96.490000
 30
0.0
 0
POINT
 5
C5D9
330
C5D0
100
AcDbEntity
 8
DEFPOINTS
 62
  0
100
AcDbPoint
 10
88.370000
 20
96.490000
 30
0.0
 0
POINT
 5
C5DA
330
C5D0
100
AcDbEntity
 8
DEFPOINTS
 62
  0
100
AcDbPoint
 10
88.370000
 20
104.490000
 30
0.0
 0
ENDBLK
 5
C5DB
330
C5D0
100
AcDbEntity
 8
Размеры
100
AcDbBlockEnd
 0
BLOCK
 5
C5E1
330
C5E0
100
AcDbEntity
 8
Размеры
100
AcDbBlockBegin
 2
*D10
 70
   1
 10
0.0
 20
0.0
 30
0.0
 3
*D10
 1
 
 0
LINE
 5
C5E2
330
C5E0
100
AcDbEntity
 8
Размеры
370
  -3
100
AcDbLine
 10
126.920000
 20
98.490000
 30
0.0
 11
126.920000
 21
105.990000
 31
0.0
 0
LINE
 5
C5E3
330
C5E0
100
AcDbEntity
 8
Размеры
370
  -3
100
AcDbLine
 10
117.170000
 20
98.490000
 30
0.0
 11
117.170000
 21
105.990000
 31
0.0
 0
LINE
 5
C5E4
330
C5E0
100
AcDbEntity
 8
Размеры
370
  -3
100
AcDbLine
 10
128.420000
 20
104.490000
 30
0.0
 11
115.670000
 21
104.490000
 31
0.0
 0
INSERT
 5
C5E5
330
C5E0
100
AcDbEntity
 8
Размеры
370
  -3
100
AcDbBlockReference
 2
_Oblique
 10
126.920000
 20
104.490000
 30
0.0
 41
2.0
 42
2.0
 43
2.0
 0
INSERT
 5
C5E6
330
C5E0
100
AcDbEntity
 8
Размеры
370
  -3
100
AcDbBlockReference
 2
_Oblique
 10
117.170000
 20
104.490000
 30
0.0
 41
2.0
 42
2.0
 43
2.0
 0
MTEXT
 5
C5E7
330
C5E0
100
AcDbEntity
 8
Размеры
100
AcDbMText
 10
122.045000
 20
105.490000
 30
0.0
 40
2.5
 41
0.0
 71
   8
 72
   5
 1
97.5
 7
SCADOFFICE
 73
   1
 44
1.0
 0
POINT
 5
C5E8
330
C5E0
100
AcDbEntity
 8
DEFPOINTS
 62
  0
100
AcDbPoint
 10
126.920000
 20
96.490000
 30
0.0
 0
POINT
 5
C5E9
330
C5E0
100
AcDbEntity
 8
DEFPOINTS
 62
  0
100
AcDbPoint
 10
117.170000
 20
96.490000
 30
0.0
 0
POINT
 5
C5EA
330
C5E0
100
AcDbEntity
 8
DEFPOINTS
 62
  0
100
AcDbPoint
 10
117.170000
 20
104.490000
 30
0.0
 0
ENDBLK
 5
C5EB
330
C5E0
100
AcDbEntity
 8
Размеры
100
AcDbBlockEnd
 0
BLOCK
 5
C5F1
330
C5F0
100
AcDbEntity
 8
Размеры
100
AcDbBlockBegin
 2
*D11
 70
   1
 10
0.0
 20
0.0
 30
0.0
 3
*D11
 1
 
 0
LINE
 5
C5F2
330
C5F0
100
AcDbEntity
 8
Размеры
370
  -3
100
AcDbLine
 10
75.420000
 20
96.490000
 30
0.0
 11
67.920000
 21
96.490000
 31
0.0
 0
LINE
 5
C5F3
330
C5F0
100
AcDbEntity
 8
Размеры
370
  -3
100
AcDbLine
 10
75.420000
 20
85.240000
 30
0.0
 11
67.920000
 21
85.240000
 31
0.0
 0
LINE
 5
C5F4
330
C5F0
100
AcDbEntity
 8
Размеры
370
  -3
100
AcDbLine
 10
69.420000
 20
97.990000
 30
0.0
 11
69.420000
 21
83.740000
 31
0.0
 0
INSERT
 5
C5F5
330
C5F0
100
AcDbEntity
 8
Размеры
370
  -3
100
AcDbBlockReference
 2
_Oblique
 10
69.420000
 20
96.490000
 30
0.0
 41
2.0
 42
2.0
 43
2.0
 50
90
 0
INSERT
 5
C5F6
330
C5F0
100
AcDbEntity
 8
Размеры
370
  -3
100
AcDbBlockReference
 2
_Oblique
 10
69.420000
 20
85.240000
 30
0.0
 41
2.0
 42
2.0
 43
2.0
 50
270
 0
MTEXT
 5
C5F7
330
C5F0
100
AcDbEntity
 8
Размеры
100
AcDbMText
 10
68.420000
 20
90.865000
 30
0.0
 40
2.5
 41
0.0
 71
   8
 72
   5
 1
112.5
 7
SCADOFFICE
 11
1.0E-15
 21
1.0
 31
0.0
 73
   1
 44
1.0
 0
POINT
 5
C5F8
330
C5F0
100
AcDbEntity
 8
DEFPOINTS
 62
  0
100
AcDbPoint
 10
77.420000
 20
96.490000
 30
0.0
 0
POINT
 5
C5F9
330
C5F0
100
AcDbEntity
 8
DEFPOINTS
 62
  0
100
AcDbPoint
 10
77.420000
 20
85.240000
 30
0.0
 0
POINT
 5
C5FA
330
C5F0
100
AcDbEntity
 8
DEFPOINTS
 62
  0
100
AcDbPoint
 10
69.420000
 20
85.240000
 30
0.0
 0
ENDBLK
 5
C5FB
330
C5F0
100
AcDbEntity
 8
Размеры
100
AcDbBlockEnd
 0
BLOCK
 5
C601
330
C600
100
AcDbEntity
 8
Размеры
100
AcDbBlockBegin
 2
*D12
 70
   1
 10
0.0
 20
0.0
 30
0.0
 3
*D12
 1
 
 0
LINE
 5
C602
330
C600
100
AcDbEntity
 8
Размеры
370
  -3
100
AcDbLine
 10
128.920000
 20
54.040000
 30
0.0
 11
136.420000
 21
54.040000
 31
0.0
 0
LINE
 5
C603
330
C600
100
AcDbEntity
 8
Размеры
370
  -3
100
AcDbLine
 10
128.920000
 20
48.540000
 30
0.0
 11
136.420000
 21
48.540000
 31
0.0
 0
LINE
 5
C604
330
C600
100
AcDbEntity
 8
Размеры
370
  -3
100
AcDbLine
 10
134.920000
 20
55.540000
 30
0.0
 11
134.920000
 21
47.040000
 31
0.0
 0
LINE
 5
C60C
330
C600
100
AcDbEntity
 8
Размеры
370
  -3
100
AcDbLine
 10
134.920000
 20
54.040000
 30
0.0
 11
134.920000
 21
41.840000
 31
0.0
 0
INSERT
 5
C605
330
C600
100
AcDbEntity
 8
Размеры
370
  -3
100
AcDbBlockReference
 2
_Oblique
 10
134.920000
 20
54.040000
 30
0.0
 41
2.0
 42
2.0
 43
2.0
 50
90
 0
INSERT
 5
C606
330
C600
100
AcDbEntity
 8
Размеры
370
  -3
100
AcDbBlockReference
 2
_Oblique
 10
134.920000
 20
48.540000
 30
0.0
 41
2.0
 42
2.0
 43
2.0
 50
270
 0
MTEXT
 5
C607
330
C600
100
AcDbEntity
 8
Размеры
100
AcDbMText
 10
133.920000
 20
44.340000
 30
0.0
 40
2.5
 41
0.0
 71
   8
 72
   5
 1
55
 7
SCADOFFICE
 11
1.0E-15
 21
1.0
 31
0.0
 73
   1
 44
1.0
 0
POINT
 5
C608
330
C600
100
AcDbEntity
 8
DEFPOINTS
 62
  0
100
AcDbPoint
 10
126.920000
 20
54.040000
 30
0.0
 0
POINT
 5
C609
330
C600
100
AcDbEntity
 8
DEFPOINTS
 62
  0
100
AcDbPoint
 10
126.920000
 20
48.540000
 30
0.0
 0
POINT
 5
C60A
330
C600
100
AcDbEntity
 8
DEFPOINTS
 62
  0
100
AcDbPoint
 10
134.920000
 20
48.540000
 30
0.0
 0
ENDBLK
 5
C60B
330
C600
100
AcDbEntity
 8
Размеры
100
AcDbBlockEnd
 0
ENDSEC
 0
SECTION
 2
ENTITIES
 0
LINE
 5
5001
330
1E
 100
AcDbEntity
 8
Штамп+рамка
 6
CONTINUOUS
 100
AcDbLine
 39
0.030000
 10
0.000000
 20
297.000000
 11
420.000000
 21
297.000000
 0
LINE
 5
5002
330
1E
 100
AcDbEntity
 8
Штамп+рамка
 6
CONTINUOUS
 100
AcDbLine
 39
0.030000
 10
420.000000
 20
297.000000
 11
420.000000
 21
0.000000
 0
LINE
 5
5003
330
1E
 100
AcDbEntity
 8
Штамп+рамка
 6
CONTINUOUS
 100
AcDbLine
 39
0.030000
 10
420.000000
 20
0.000000
 11
0.000000
 21
0.000000
 0
LINE
 5
5004
330
1E
 100
AcDbEntity
 8
Штамп+рамка
 6
CONTINUOUS
 100
AcDbLine
 39
0.030000
 10
0.000000
 20
0.000000
 11
0.000000
 21
297.000000
 0
LINE
 5
5005
330
1E
 100
AcDbEntity
 8
Штамп+рамка
 6
CONTINUOUS
 100
AcDbLine
 39
0.030000
 10
20.000000
 20
292.000000
 11
415.000000
 21
292.000000
 0
LINE
 5
5006
330
1E
 100
AcDbEntity
 8
Штамп+рамка
 6
CONTINUOUS
 100
AcDbLine
 39
0.030000
 10
415.000000
 20
292.000000
 11
415.000000
 21
5.000000
 0
LINE
 5
5007
330
1E
 100
AcDbEntity
 8
Штамп+рамка
 6
CONTINUOUS
 100
AcDbLine
 39
0.030000
 10
415.000000
 20
5.000000
 11
20.000000
 21
5.000000
 0
LINE
 5
5008
330
1E
 100
AcDbEntity
 8
Штамп+рамка
 6
CONTINUOUS
 100
AcDbLine
 39
0.030000
 10
20.000000
 20
5.000000
 11
20.000000
 21
292.000000
 0
LINE
 5
5009
330
1E
 100
AcDbEntity
 8
Штамп+рамка
 6
CONTINUOUS
 100
AcDbLine
 39
0.030000
 10
230.000000
 20
45.000000
 11
415.000000
 21
45.000000
 0
LINE
 5
5010
330
1E
 100
AcDbEntity
 8
Штамп+рамка
 6
CONTINUOUS
 100
AcDbLine
 39
0.030000
 10
295.000000
 20
30.000000
 11
415.000000
 21
30.000000
 0
LINE
 5
5011
330
1E
 100
AcDbEntity
 8
Штамп+рамка
 6
CONTINUOUS
 100
AcDbLine
 39
0.030000
 10
365.000000
 20
25.000000
 11
415.000000
 21
25.000000
 0
LINE
 5
5012
330
1E
 100
AcDbEntity
 8
Штамп+рамка
 6
CONTINUOUS
 100
AcDbLine
 39
0.030000
 10
365.000000
 20
20.000000
 11
415.000000
 21
20.000000
 0
LINE
 5
5013
330
1E
 100
AcDbEntity
 8
Штамп+рамка
 6
CONTINUOUS
 100
AcDbLine
 39
0.030000
 10
230.000000
 20
45.000000
 11
230.000000
 21
5.000000
 0
LINE
 5
5014
330
1E
 100
AcDbEntity
 8
Штамп+рамка
 6
CONTINUOUS
 100
AcDbLine
 39
0.030000
 10
240.000000
 20
45.000000
 11
240.000000
 21
30.000000
 0
LINE
 5
5015
330
1E
 100
AcDbEntity
 8
Штамп+рамка
 6
CONTINUOUS
 100
AcDbLine
 39
0.030000
 10
250.000000
 20
45.000000
 11
250.000000
 21
5.000000
 0
LINE
 5
5016
330
1E
 100
AcDbEntity
 8
Штамп+рамка
 6
CONTINUOUS
 100
AcDbLine
 39
0.030000
 10
260.000000
 20
45.000000
 11
260.000000
 21
30.000000
 0
LINE
 5
5017
330
1E
 100
AcDbEntity
 8
Штамп+рамка
 6
CONTINUOUS
 100
AcDbLine
 39
0.030000
 10
270.000000
 20
45.000000
 11
270.000000
 21
5.000000
 0
LINE
 5
5018
330
1E
 100
AcDbEntity
 8
Штамп+рамка
 6
CONTINUOUS
 100
AcDbLine
 39
0.030000
 10
285.000000
 20
45.000000
 11
285.000000
 21
5.000000
 0
LINE
 5
5019
330
1E
 100
AcDbEntity
 8
Штамп+рамка
 6
CONTINUOUS
 100
AcDbLine
 39
0.030000
 10
295.000000
 20
45.000000
 11
295.000000
 21
5.000000
 0
LINE
 5
5020
330
1E
 100
AcDbEntity
 8
Штамп+рамка
 6
CONTINUOUS
 100
AcDbLine
 39
0.030000
 10
365.000000
 20
30.000000
 11
365.000000
 21
5.000000
 0
LINE
 5
5021
330
1E
 100
AcDbEntity
 8
Штамп+рамка
 6
CONTINUOUS
 100
AcDbLine
 39
0.030000
 10
380.000000
 20
30.000000
 11
380.000000
 21
20.000000
 0
LINE
 5
5022
330
1E
 100
AcDbEntity
 8
Штамп+рамка
 6
CONTINUOUS
 100
AcDbLine
 39
0.030000
 10
395.000000
 20
30.000000
 11
395.000000
 21
20.000000
 0
LINE
 5
5023
330
1E
 100
AcDbEntity
 8
Штамп+рамка
 6
CONTINUOUS
 100
AcDbLine
 39
0.030000
 10
230.000000
 20
40.000000
 11
295.000000
 21
40.000000
 0
LINE
 5
5024
330
1E
 100
AcDbEntity
 8
Штамп+рамка
 6
CONTINUOUS
 100
AcDbLine
 39
0.030000
 10
230.000000
 20
35.000000
 11
295.000000
 21
35.000000
 0
LINE
 5
5025
330
1E
 100
AcDbEntity
 8
Штамп+рамка
 6
CONTINUOUS
 100
AcDbLine
 39
0.030000
 10
230.000000
 20
30.000000
 11
295.000000
 21
30.000000
 0
LINE
 5
5026
330
1E
 100
AcDbEntity
 8
Штамп+рамка
 6
CONTINUOUS
 100
AcDbLine
 39
0.030000
 10
230.000000
 20
25.000000
 11
295.000000
 21
25.000000
 0
LINE
 5
5027
330
1E
 100
AcDbEntity
 8
Штамп+рамка
 6
CONTINUOUS
 100
AcDbLine
 39
0.030000
 10
230.000000
 20
20.000000
 11
295.000000
 21
20.000000
 0
LINE
 5
5028
330
1E
 100
AcDbEntity
 8
Штамп+рамка
 6
CONTINUOUS
 100
AcDbLine
 39
0.030000
 10
230.000000
 20
15.000000
 11
295.000000
 21
15.000000
 0
LINE
 5
5029
330
1E
 100
AcDbEntity
 8
Штамп+рамка
 6
CONTINUOUS
 100
AcDbLine
 39
0.030000
 10
230.000000
 20
10.000000
 11
295.000000
 21
10.000000
 0
TEXT
 5
2501
330
1E
 100
AcDbEntity
 8
Штамп+рамка
 48
50.0
 100
AcDbText
 10
235.000000
 20
31.000000
 40
2.500000
 1
Изм.
 50
0.000000
 41
0.700000
 51
15.000000
 7
SCADOFFICE
 72
  1
 11
235.000000
 21
31.000000
 100
AcDbText
 0
TEXT
 5
2502
330
1E
 100
AcDbEntity
 8
Штамп+рамка
 48
50.0
 100
AcDbText
 10
240.000000
 20
31.000000
 40
2.500000
 1
Кол.уч
 50
0.000000
 41
0.700000
 51
15.000000
 7
SCADOFFICE
 72
5
 11
250.000000
 21
31.000000
 100
AcDbText
 0
TEXT
 5
2503
330
1E
 100
AcDbEntity
 8
Штамп+рамка
 48
50.0
 100
AcDbText
 10
255.000000
 20
31.000000
 40
2.500000
 1
Лист
 50
0.000000
 41
0.700000
 51
15.000000
 7
SCADOFFICE
 72
  1
 11
255.000000
 21
31.000000
 100
AcDbText
 0
TEXT
 5
2504
330
1E
 100
AcDbEntity
 8
Штамп+рамка
 48
50.0
 100
AcDbText
 10
260.000000
 20
31.000000
 40
2.500000
 1
N док.
 50
0.000000
 41
0.700000
 51
15.000000
 7
SCADOFFICE
 72
5
 11
270.000000
 21
31.000000
 100
AcDbText
 0
TEXT
 5
2505
330
1E
 100
AcDbEntity
 8
Штамп+рамка
 48
50.0
 100
AcDbText
 10
277.500000
 20
31.000000
 40
2.500000
 1
Подп.
 50
0.000000
 41
0.700000
 51
15.000000
 7
SCADOFFICE
 72
  1
 11
277.500000
 21
31.000000
 100
AcDbText
 0
TEXT
 5
2506
330
1E
 100
AcDbEntity
 8
Штамп+рамка
 48
50.0
 100
AcDbText
 10
290.000000
 20
31.000000
 40
2.500000
 1
Дата
 50
0.000000
 41
0.700000
 51
15.000000
 7
SCADOFFICE
 72
  1
 11
290.000000
 21
31.000000
 100
AcDbText
 0
TEXT
 5
2507
330
1E
 100
AcDbEntity
 8
Штамп+рамка
 48
50.0
 100
AcDbText
 10
372.500000
 20
26.000000
 40
2.500000
 1
Стадия
 50
0.000000
 41
0.700000
 51
15.000000
 7
SCADOFFICE
 72
  1
 11
372.500000
 21
26.000000
 100
AcDbText
 0
TEXT
 5
2508
330
1E
 100
AcDbEntity
 8
Штамп+рамка
 48
50.0
 100
AcDbText
 10
387.500000
 20
26.000000
 40
2.500000
 1
Лист
 50
0.000000
 41
0.700000
 51
15.000000
 7
SCADOFFICE
 72
  1
 11
387.500000
 21
26.000000
 100
AcDbText
 0
TEXT
 5
2509
330
1E
 100
AcDbEntity
 8
Штамп+рамка
 48
50.0
 100
AcDbText
 10
405.000000
 20
26.000000
 40
2.500000
 1
Листов
 50
0.000000
 41
0.700000
 51
15.000000
 7
SCADOFFICE
 72
  1
 11
405.000000
 21
26.000000
 100
AcDbText
 0
TEXT
 5
2510
330
1E
 100
AcDbEntity
 8
Штамп+рамка
 48
50.0
 100
AcDbText
 10
385.000000
 20
1.500000
 40
2.500000
 1
Формат А3
 50
0.000000
 41
0.700000
 51
15.000000
 7
SCADOFFICE
 72
  0
 11
385.000000
 21
1.500000
 100
AcDbText
 0
TEXT
 5
2511
330
1E
 100
AcDbEntity
 8
Штамп+рамка
 48
50.0
 100
AcDbText
 10
315.000000
 20
1.500000
 40
2.500000
 1
Копировал
 50
0.000000
 41
0.700000
 51
15.000000
 7
SCADOFFICE
 72
  0
 11
315.000000
 21
1.500000
 100
AcDbText
 0
TEXT
 5
2512
330
1E
 100
AcDbEntity
 8
Штамп+рамка
 48
50.0
 100
AcDbText
 10
25.000000
 20
7.500000
 40
2.500000
 1
Вид сварки
 50
0.000000
 41
0.700000
 51
15.000000
 7
SCADOFFICE
 72
  0
 11
25.000000
 21
7.500000
 100
AcDbText
 0
TEXT
 5
2513
330
1E
 100
AcDbEntity
 8
Штамп+рамка
 48
50.0
 100
AcDbText
 10
42.500000
 20
7.500000
 40
2.500000
 1
Ручная
 50
0.000000
 41
0.700000
 51
15.000000
 7
SCADOFFICE
 72
  0
 11
42.500000
 21
7.500000
 100
AcDbText
 0
LINE
 5
5030
330
1E
 100
AcDbEntity
 8
Изометрия
 6
CONTINUOUS
 100
AcDbLine
 39
0.030000
 10
346.867375
 20
248.262687
 11
354.399625
 21
251.857625
 0
LINE
 5
5031
330
1E
 100
AcDbEntity
 8
Изометрия
 6
CONTINUOUS
 100
AcDbLine
 39
0.030000
 10
354.399625
 20
251.857625
 11
354.399625
 21
219.332000
 0
LINE
 5
5032
330
1E
 100
AcDbEntity
 8
Изометрия
 6
CONTINUOUS
 100
AcDbLine
 39
0.030000
 10
354.399625
 20
219.332000
 11
346.867375
 21
215.737062
 0
LINE
 5
5033
330
1E
 100
AcDbEntity
 8
Изометрия
 6
CONTINUOUS
 100
AcDbLine
 39
0.030000
 10
346.867375
 20
215.737062
 11
346.867375
 21
248.262687
 0
LINE
 5
5034
330
1E
 100
AcDbEntity
 8
Изометрия
 6
CONTINUOUS
 100
AcDbLine
 39
0.030000
 10
346.867375
 20
248.262687
 11
345.840250
 21
248.776250
 0
LINE
 5
5035
330
1E
 100
AcDbEntity
 8
Изометрия
 6
CONTINUOUS
 100
AcDbLine
 39
0.030000
 10
345.840250
 20
248.776250
 11
345.840250
 21
216.250625
 0
LINE
 5
5036
330
1E
 100
AcDbEntity
 8
Изометрия
 6
CONTINUOUS
 100
AcDbLine
 39
0.030000
 10
345.840250
 20
216.250625
 11
346.867375
 21
215.737062
 0
LINE
 5
5037
330
1E
 100
AcDbEntity
 8
Изометрия
 6
CONTINUOUS
 100
AcDbLine
 39
0.030000
 10
345.840250
 20
219.160812
 11
341.047000
 21
220.872687
 0
LINE
 5
5038
330
1E
 100
AcDbEntity
 8
Изометрия
 6
CONTINUOUS
 100
AcDbLine
 39
0.030000
 10
341.047000
 20
220.872687
 11
341.047000
 21
253.398312
 0
LINE
 5
5039
330
1E
 100
AcDbEntity
 8
Изометрия
 6
CONTINUOUS
 100
AcDbLine
 39
0.030000
 10
341.047000
 20
253.398312
 11
337.794437
 21
251.686437
 0
LINE
 5
5040
330
1E
 100
AcDbEntity
 8
Изометрия
 6
CONTINUOUS
 100
AcDbLine
 39
0.030000
 10
337.794437
 20
251.686437
 11
337.794437
 21
219.160812
 0
LINE
 5
5041
330
1E
 100
AcDbEntity
 8
Изометрия
 6
CONTINUOUS
 100
AcDbLine
 39
0.030000
 10
337.794437
 20
219.160812
 11
341.047000
 21
220.872687
 0
LINE
 5
5042
330
1E
 100
AcDbEntity
 8
Изометрия
 6
CONTINUOUS
 100
AcDbLine
 39
0.030000
 10
337.794437
 20
219.160812
 11
336.767313
 21
219.674375
 0
LINE
 5
5043
330
1E
 100
AcDbEntity
 8
Изометрия
 6
CONTINUOUS
 100
AcDbLine
 39
0.030000
 10
336.767313
 20
219.674375
 11
336.767313
 21
252.200000
 0
LINE
 5
5044
330
1E
 100
AcDbEntity
 8
Изометрия
 6
CONTINUOUS
 100
AcDbLine
 39
0.030000
 10
336.767313
 20
252.200000
 11
337.794437
 21
251.686437
 0
LINE
 5
5045
330
1E
 100
AcDbEntity
 8
Изометрия
 6
CONTINUOUS
 100
AcDbLine
 39
0.030000
 10
336.767313
 20
252.200000
 11
344.299562
 21
255.794938
 0
LINE
 5
5046
330
1E
 100
AcDbEntity
 8
Изометрия
 6
CONTINUOUS
 100
AcDbLine
 39
0.030000
 10
344.299562
 20
255.794938
 11
345.326687
 21
255.281375
 0
LINE
 5
5047
330
1E
 100
AcDbEntity
 8
Изометрия
 6
CONTINUOUS
 100
AcDbLine
 39
0.030000
 10
345.326687
 20
255.281375
 11
342.074125
 21
253.740687
 0
LINE
 5
5048
330
1E
 100
AcDbEntity
 8
Изометрия
 6
CONTINUOUS
 100
AcDbLine
 39
0.030000
 10
342.074125
 20
253.740687
 11
350.119937
 21
250.830500
 0
LINE
 5
5049
330
1E
 100
AcDbEntity
 8
Изометрия
 6
CONTINUOUS
 100
AcDbLine
 39
0.030000
 10
350.119937
 20
250.830500
 11
353.372500
 21
252.371187
 0
LINE
 5
5050
330
1E
 100
AcDbEntity
 8
Изометрия
 6
CONTINUOUS
 100
AcDbLine
 39
0.030000
 10
353.372500
 20
252.371187
 11
354.399625
 21
251.857625
 0
LINE
 5
5051
330
1E
 100
AcDbEntity
 8
Изометрия
 6
CONTINUOUS
 100
AcDbLine
 39
0.030000
 10
345.840250
 20
248.776250
 11
349.092812
 21
250.488125
 0
LINE
 5
5052
330
1E
 100
AcDbEntity
 8
Изометрия
 6
CONTINUOUS
 100
AcDbLine
 39
0.030000
 10
349.092812
 20
250.488125
 11
341.047000
 21
253.398312
 0
LINE
 5
5053
330
1E
 100
AcDbEntity
 8
Изометрия
 6
CONTINUOUS
 100
AcDbLine
 39
0.030000
 10
345.326687
 20
255.281375
 11
345.326687
 21
252.542375
 0
LINE
 5
5054
330
1E
 100
AcDbEntity
 8
Изометрия
 6
CONTINUOUS
 100
AcDbLine
 39
0.030000
 10
323.072312
 20
199.987812
 11
342.074125
 21
209.231937
 0
LINE
 5
5055
330
1E
 100
AcDbEntity
 8
Изометрия
 6
CONTINUOUS
 100
AcDbLine
 39
0.030000
 10
342.074125
 20
209.231937
 11
369.977688
 21
198.960687
 0
LINE
 5
5056
330
1E
 100
AcDbEntity
 8
Изометрия
 6
CONTINUOUS
 100
AcDbLine
 39
0.030000
 10
369.977688
 20
198.960687
 11
350.975875
 21
189.716562
 0
LINE
 5
5057
330
1E
 100
AcDbEntity
 8
Изометрия
 6
CONTINUOUS
 100
AcDbLine
 39
0.030000
 10
350.975875
 20
189.716562
 11
323.072312
 21
199.987812
 0
LINE
 5
5058
330
1E
 100
AcDbEntity
 8
Изометрия
 6
CONTINUOUS
 100
AcDbLine
 39
0.030000
 10
323.072312
 20
199.987812
 11
323.072312
 21
198.960687
 0
LINE
 5
5059
330
1E
 100
AcDbEntity
 8
Изометрия
 6
CONTINUOUS
 100
AcDbLine
 39
0.030000
 10
323.072312
 20
198.960687
 11
350.975875
 21
188.689438
 0
LINE
 5
5060
330
1E
 100
AcDbEntity
 8
Изометрия
 6
CONTINUOUS
 100
AcDbLine
 39
0.030000
 10
350.975875
 20
188.689438
 11
350.975875
 21
189.716562
 0
LINE
 5
5061
330
1E
 100
AcDbEntity
 8
Изометрия
 6
CONTINUOUS
 100
AcDbLine
 39
0.030000
 10
350.975875
 20
188.689438
 11
369.977688
 21
197.933562
 0
LINE
 5
5062
330
1E
 100
AcDbEntity
 8
Изометрия
 6
CONTINUOUS
 100
AcDbLine
 39
0.030000
 10
369.977688
 20
197.933562
 11
369.977688
 21
198.960687
 0
ELLIPSE
 5
1001
330
1E
 100
AcDbEntity
 8
Изометрия
 100
AcDbEllipse
 10
342.074125
 20
206.664125
 11
-0.684750
 21
0.000000
 210
0.0
 220
0.0
 230
1.0
 40
0.750000
 41
0.000000
 42
6.283185
 0
HATCH
 5
1002
330
1E
 100
AcDbEntity
 8
Изометрия
 100
AcDbHatch
 10
0.0
 20
0.0
 30
0.0
 210
0.0
 220
0.0
 230
1.0
 2
SOLID
 70
  1
 71
  1
 91
  1
 92
  5
 93
  1
 72
  3
 10
342.074125
 20
206.664125
 11
-0.684750
 21
0.000000
 40
0.750000
 50
0.000000
 51
360.000000
 73
  1
 97
  1
330
2B
 75
  0
 76
  1
 47
0.0
 98
  1
 10
342.074125
 20
206.664125
 0
ELLIPSE
 5
1003
330
1E
 100
AcDbEntity
 8
Изометрия
 100
AcDbEllipse
 10
327.865562
 20
200.672562
 11
-0.684750
 21
0.000000
 210
0.0
 220
0.0
 230
1.0
 40
0.750000
 41
0.000000
 42
6.283185
 0
HATCH
 5
1004
330
1E
 100
AcDbEntity
 8
Изометрия
 100
AcDbHatch
 10
0.0
 20
0.0
 30
0.0
 210
0.0
 220
0.0
 230
1.0
 2
SOLID
 70
  1
 71
  1
 91
  1
 92
  5
 93
  1
 72
  3
 10
327.865562
 20
200.672562
 11
-0.684750
 21
0.000000
 40
0.750000
 50
0.000000
 51
360.000000
 73
  1
 97
  1
330
2B
 75
  0
 76
  1
 47
0.0
 98
  1
 10
327.865562
 20
200.672562
 0
ELLIPSE
 5
1005
330
1E
 100
AcDbEntity
 8
Изометрия
 100
AcDbEllipse
 10
364.499687
 20
198.789500
 11
-0.684750
 21
0.000000
 210
0.0
 220
0.0
 230
1.0
 40
0.750000
 41
0.000000
 42
6.283185
 0
HATCH
 5
1006
330
1E
 100
AcDbEntity
 8
Изометрия
 100
AcDbHatch
 10
0.0
 20
0.0
 30
0.0
 210
0.0
 220
0.0
 230
1.0
 2
SOLID
 70
  1
 71
  1
 91
  1
 92
  5
 93
  1
 72
  3
 10
364.499687
 20
198.789500
 11
-0.684750
 21
0.000000
 40
0.750000
 50
0.000000
 51
360.000000
 73
  1
 97
  1
330
2B
 75
  0
 76
  1
 47
0.0
 98
  1
 10
364.499687
 20
198.789500
 0
ELLIPSE
 5
1007
330
1E
 100
AcDbEntity
 8
Изометрия
 100
AcDbEllipse
 10
350.291125
 20
192.797937
 11
-0.684750
 21
0.000000
 210
0.0
 220
0.0
 230
1.0
 40
0.750000
 41
0.000000
 42
6.283185
 0
HATCH
 5
1008
330
1E
 100
AcDbEntity
 8
Изометрия
 100
AcDbHatch
 10
0.0
 20
0.0
 30
0.0
 210
0.0
 220
0.0
 230
1.0
 2
SOLID
 70
  1
 71
  1
 91
  1
 92
  5
 93
  1
 72
  3
 10
350.291125
 20
192.797937
 11
-0.684750
 21
0.000000
 40
0.750000
 50
0.000000
 51
360.000000
 73
  1
 97
  1
330
2B
 75
  0
 76
  1
 47
0.0
 98
  1
 10
350.291125
 20
192.797937
 0
LINE
 5
5063
330
1E
 100
AcDbEntity
 8
Изометрия
 6
CONTINUOUS
 100
AcDbLine
 39
0.030000
 10
324.955375
 20
223.440500
 11
334.541875
 21
219.503187
 0
LINE
 5
5064
330
1E
 100
AcDbEntity
 8
Изометрия
 6
CONTINUOUS
 100
AcDbLine
 39
0.030000
 10
334.541875
 20
219.503187
 11
340.875812
 21
210.430250
 0
LINE
 5
5065
330
1E
 100
AcDbEntity
 8
Изометрия
 6
CONTINUOUS
 100
AcDbLine
 39
0.030000
 10
340.875812
 20
210.430250
 11
318.621437
 21
218.647250
 0
LINE
 5
5066
330
1E
 100
AcDbEntity
 8
Изометрия
 6
CONTINUOUS
 100
AcDbLine
 39
0.030000
 10
318.621437
 20
218.647250
 11
324.955375
 21
223.440500
 0
LINE
 5
5067
330
1E
 100
AcDbEntity
 8
Изометрия
 6
CONTINUOUS
 100
AcDbLine
 39
0.030000
 10
324.955375
 20
223.440500
 11
325.811312
 21
223.782875
 0
LINE
 5
5068
330
1E
 100
AcDbEntity
 8
Изометрия
 6
CONTINUOUS
 100
AcDbLine
 39
0.030000
 10
325.811312
 20
223.782875
 11
335.397812
 21
219.674375
 0
LINE
 5
5069
330
1E
 100
AcDbEntity
 8
Изометрия
 6
CONTINUOUS
 100
AcDbLine
 39
0.030000
 10
335.397812
 20
219.674375
 11
334.541875
 21
219.503187
 0
LINE
 5
5070
330
1E
 100
AcDbEntity
 8
Изометрия
 6
CONTINUOUS
 100
AcDbLine
 39
0.030000
 10
335.397812
 20
219.674375
 11
341.731750
 21
210.772625
 0
LINE
 5
5071
330
1E
 100
AcDbEntity
 8
Изометрия
 6
CONTINUOUS
 100
AcDbLine
 39
0.030000
 10
341.731750
 20
210.772625
 11
340.875812
 21
210.430250
 0
LINE
 5
5072
330
1E
 100
AcDbEntity
 8
Изометрия
 6
CONTINUOUS
 100
AcDbLine
 39
0.030000
 10
354.399625
 20
228.747312
 11
360.733563
 21
219.845562
 0
LINE
 5
5073
330
1E
 100
AcDbEntity
 8
Изометрия
 6
CONTINUOUS
 100
AcDbLine
 39
0.030000
 10
360.733563
 20
219.845562
 11
354.399625
 21
221.899813
 0
LINE
 5
5074
330
1E
 100
AcDbEntity
 8
Изометрия
 6
CONTINUOUS
 100
AcDbLine
 39
0.030000
 10
354.399625
 20
221.899813
 11
354.399625
 21
228.747312
 0
LINE
 5
5075
330
1E
 100
AcDbEntity
 8
Изометрия
 6
CONTINUOUS
 100
AcDbLine
 39
0.030000
 10
354.399625
 20
228.747312
 11
355.255563
 21
229.089687
 0
LINE
 5
5076
330
1E
 100
AcDbEntity
 8
Изометрия
 6
CONTINUOUS
 100
AcDbLine
 39
0.030000
 10
355.255563
 20
229.089687
 11
354.399625
 21
229.432062
 0
LINE
 5
5077
330
1E
 100
AcDbEntity
 8
Изометрия
 6
CONTINUOUS
 100
AcDbLine
 39
0.030000
 10
355.255563
 20
229.089687
 11
361.589500
 21
220.187937
 0
LINE
 5
5078
330
1E
 100
AcDbEntity
 8
Изометрия
 6
CONTINUOUS
 100
AcDbLine
 39
0.030000
 10
361.589500
 20
220.187937
 11
360.733563
 21
219.845562
 0
LINE
 5
5079
330
1E
 100
AcDbEntity
 8
Изометрия
 6
CONTINUOUS
 100
AcDbLine
 39
0.030000
 10
326.838438
 20
204.609875
 11
329.406250
 21
212.826875
 0
LINE
 5
5080
330
1E
 100
AcDbEntity
 8
Изометрия
 6
CONTINUOUS
 100
AcDbLine
 39
0.030000
 10
329.406250
 20
212.826875
 11
329.406250
 21
205.979375
 0
LINE
 5
5081
330
1E
 100
AcDbEntity
 8
Изометрия
 6
CONTINUOUS
 100
AcDbLine
 39
0.030000
 10
329.406250
 20
205.979375
 11
326.838438
 21
204.609875
 0
LINE
 5
5082
330
1E
 100
AcDbEntity
 8
Изометрия
 6
CONTINUOUS
 100
AcDbLine
 39
0.030000
 10
326.838438
 20
204.609875
 11
325.811312
 21
205.123437
 0
LINE
 5
5083
330
1E
 100
AcDbEntity
 8
Изометрия
 6
CONTINUOUS
 100
AcDbLine
 39
0.030000
 10
325.811312
 20
205.123437
 11
328.550312
 21
213.169250
 0
LINE
 5
5084
330
1E
 100
AcDbEntity
 8
Изометрия
 6
CONTINUOUS
 100
AcDbLine
 39
0.030000
 10
328.550312
 20
213.169250
 11
329.406250
 21
212.826875
 0
LINE
 5
5085
330
1E
 100
AcDbEntity
 8
Изометрия
 6
CONTINUOUS
 100
AcDbLine
 39
0.030000
 10
317.765500
 20
208.033625
 11
320.333312
 21
216.250625
 0
LINE
 5
5086
330
1E
 100
AcDbEntity
 8
Изометрия
 6
CONTINUOUS
 100
AcDbLine
 39
0.030000
 10
320.333312
 20
216.250625
 11
320.333312
 21
209.403125
 0
LINE
 5
5087
330
1E
 100
AcDbEntity
 8
Изометрия
 6
CONTINUOUS
 100
AcDbLine
 39
0.030000
 10
320.333312
 20
209.403125
 11
317.765500
 21
208.033625
 0
LINE
 5
5088
330
1E
 100
AcDbEntity
 8
Изометрия
 6
CONTINUOUS
 100
AcDbLine
 39
0.030000
 10
317.765500
 20
208.033625
 11
316.738375
 21
208.547187
 0
LINE
 5
5089
330
1E
 100
AcDbEntity
 8
Изометрия
 6
CONTINUOUS
 100
AcDbLine
 39
0.030000
 10
316.738375
 20
208.547187
 11
319.477375
 21
216.593000
 0
LINE
 5
5090
330
1E
 100
AcDbEntity
 8
Изометрия
 6
CONTINUOUS
 100
AcDbLine
 39
0.030000
 10
319.477375
 20
216.593000
 11
320.333312
 21
216.250625
 0
LINE
 5
5091
330
1E
 100
AcDbEntity
 8
Изометрия
 6
CONTINUOUS
 100
AcDbLine
 39
0.030000
 10
364.499687
 20
226.179500
 11
361.931875
 21
231.657500
 0
LINE
 5
5092
330
1E
 100
AcDbEntity
 8
Изометрия
 6
CONTINUOUS
 100
AcDbLine
 39
0.030000
 10
361.931875
 20
231.657500
 11
361.931875
 21
224.810000
 0
LINE
 5
5093
330
1E
 100
AcDbEntity
 8
Изометрия
 6
CONTINUOUS
 100
AcDbLine
 39
0.030000
 10
361.931875
 20
224.810000
 11
364.499687
 21
226.179500
 0
LINE
 5
5094
330
1E
 100
AcDbEntity
 8
Изометрия
 6
CONTINUOUS
 100
AcDbLine
 39
0.030000
 10
361.931875
 20
231.657500
 11
361.075937
 21
231.999875
 0
LINE
 5
5095
330
1E
 100
AcDbEntity
 8
Изометрия
 6
CONTINUOUS
 100
AcDbLine
 39
0.030000
 10
361.075937
 20
231.999875
 11
361.075937
 21
225.152375
 0
LINE
 5
5096
330
1E
 100
AcDbEntity
 8
Изометрия
 6
CONTINUOUS
 100
AcDbLine
 39
0.030000
 10
361.075937
 20
225.152375
 11
361.931875
 21
224.810000
 0
LWPOLYLINE
 5
5097
330
1E
 100
AcDbEntity
 8
Узел
 6
CONTINUOUS
 48
1.0
 100
AcDbPolyline
 90
2
 70
0
 43
0.400000
 10
87.170000
 20
205.120000
 10
87.170000
 20
226.120000
 0
LWPOLYLINE
 5
5098
330
1E
 100
AcDbEntity
 8
Узел
 6
CONTINUOUS
 48
1.0
 100
AcDbPolyline
 90
2
 70
0
 43
0.400000
 10
88.720000
 20
205.120000
 10
88.720000
 20
226.120000
 0
LWPOLYLINE
 5
5099
330
1E
 100
AcDbEntity
 8
Узел
 6
CONTINUOUS
 48
1.0
 100
AcDbPolyline
 90
2
 70
0
 43
0.400000
 10
115.620000
 20
205.120000
 10
115.620000
 20
226.120000
 0
LWPOLYLINE
 5
5100
330
1E
 100
AcDbEntity
 8
Узел
 6
CONTINUOUS
 48
1.0
 100
AcDbPolyline
 90
2
 70
0
 43
0.400000
 10
117.170000
 20
205.120000
 10
117.170000
 20
226.120000
 0
LWPOLYLINE
 5
5101
330
1E
 100
AcDbEntity
 8
Узел
 6
CONTINUOUS
 48
1.0
 100
AcDbPolyline
 90
2
 70
0
 43
0.400000
 10
77.420000
 20
181.120000
 10
126.920000
 20
181.120000
 0
LWPOLYLINE
 5
5102
330
1E
 100
AcDbEntity
 8
Узел
 6
CONTINUOUS
 48
1.0
 100
AcDbPolyline
 90
2
 70
0
 43
0.400000
 10
126.920000
 20
181.120000
 10
126.920000
 20
179.120000
 0
LWPOLYLINE
 5
5103
330
1E
 100
AcDbEntity
 8
Узел
 6
CONTINUOUS
 48
1.0
 100
AcDbPolyline
 90
2
 70
0
 43
0.400000
 10
126.920000
 20
179.120000
 10
77.420000
 20
179.120000
 0
LWPOLYLINE
 5
5104
330
1E
 100
AcDbEntity
 8
Узел
 6
CONTINUOUS
 48
1.0
 100
AcDbPolyline
 90
2
 70
0
 43
0.400000
 10
77.420000
 20
179.120000
 10
77.420000
 20
181.120000
 0
LWPOLYLINE
 5
5105
330
1E
 100
AcDbEntity
 8
Узел
 6
CONTINUOUS
 48
1.0
 100
AcDbPolyline
 90
2
 70
0
 43
0.400000
 10
88.370000
 20
205.120000
 10
88.370000
 20
181.120000
 0
LWPOLYLINE
 5
5106
330
1E
 100
AcDbEntity
 8
Узел
 6
CONTINUOUS
 48
1.0
 100
AcDbPolyline
 90
2
 70
0
 43
0.400000
 10
115.970000
 20
205.120000
 10
115.970000
 20
181.120000
 0
LWPOLYLINE
 5
5107
330
1E
 100
AcDbEntity
 8
Узел
 6
CONTINUOUS
 48
1.0
 100
AcDbPolyline
 90
2
 70
0
 43
0.400000
 10
87.170000
 20
205.120000
 10
87.170000
 20
181.120000
 0
LWPOLYLINE
 5
5108
330
1E
 100
AcDbEntity
 8
Узел
 6
CONTINUOUS
 48
1.0
 100
AcDbPolyline
 90
2
 70
0
 43
0.400000
 10
117.170000
 20
205.120000
 10
117.170000
 20
181.120000
 0
LWPOLYLINE
 5
5109
330
1E
 100
AcDbEntity
 8
Узел
 6
CONTINUOUS
 48
1.0
 100
AcDbPolyline
 90
2
 70
0
 43
0.400000
 10
77.420000
 20
181.120000
 10
87.170000
 20
205.120000
 0
LWPOLYLINE
 5
5110
330
1E
 100
AcDbEntity
 8
Узел
 6
CONTINUOUS
 48
1.0
 100
AcDbPolyline
 90
2
 70
0
 43
0.400000
 10
87.170000
 20
205.120000
 10
117.170000
 20
205.120000
 0
LWPOLYLINE
 5
5111
330
1E
 100
AcDbEntity
 8
Узел
 6
CONTINUOUS
 48
1.0
 100
AcDbPolyline
 90
2
 70
0
 43
0.400000
 10
117.170000
 20
205.120000
 10
126.920000
 20
181.120000
 0
LINE
 5
5112
330
1E
 100
AcDbEntity
 8
Узел
 6
CONTINUOUS
 100
AcDbLine
 39
0.030000
 10
85.920000
 20
226.120000
 11
100.920000
 21
226.120000
 0
LINE
 5
5113
330
1E
 100
AcDbEntity
 8
Узел
 6
CONTINUOUS
 100
AcDbLine
 39
0.030000
 10
100.920000
 20
226.120000
 11
101.753333
 21
225.286667
 0
LINE
 5
5114
330
1E
 100
AcDbEntity
 8
Узел
 6
CONTINUOUS
 100
AcDbLine
 39
0.030000
 10
101.753333
 20
225.286667
 11
102.586667
 21
226.953333
 0
LINE
 5
5115
330
1E
 100
AcDbEntity
 8
Узел
 6
CONTINUOUS
 100
AcDbLine
 39
0.030000
 10
102.586667
 20
226.953333
 11
103.420000
 21
226.120000
 0
LINE
 5
5116
330
1E
 100
AcDbEntity
 8
Узел
 6
CONTINUOUS
 100
AcDbLine
 39
0.030000
 10
103.420000
 20
226.120000
 11
118.420000
 21
226.120000
 0
ARC
 5
1009
330
1E
 100
AcDbEntity
 8
Профиль
 6
CONTINUOUS
 48
1.0
 100
AcDbCircle
 39
0.030000
 10
102.170000
 20
181.120000
 40
2.000000
 100
AcDbArc
 50
0.000000
 51
179.900000
 0
CIRCLE
 5
1010
330
1E
 100
AcDbEntity
 8
Выноски
 6
CONTINUOUS
 48
1.0
 100
AcDbCircle
 39
0.030000
 10
121.045000
 20
192.120000
 40
0.250000
 0
HATCH
 5
1011
330
1E
 100
AcDbEntity
 8
Выноски
 100
AcDbHatch
 10
0.0
 20
0.0
 30
0.0
 210
0.0
 220
0.0
 230
1.0
 2
SOLID
 70
  1
 71
  1
 91
  1
 92
  7
 72
  1
 73
  1
 93
  2
 10
120.795000
 20
192.120000
 42
1.0
 10
121.295000
 20
192.120000
 42
1.0
 97
  1
330
2B
 75
  0
 76
  1
 47
0.0
 98
  1
 10
121.045000
 20
192.120000
 0
TEXT
 5
2514
330
1E
 100
AcDbEntity
 8
Выноски
 48
50.0
 100
AcDbText
 10
133.920000
 20
208.870000
 40
2.500000
 1
3
 50
0.000000
 41
0.700000
 51
15.000000
 7
SCADOFFICE
 72
  0
 11
133.920000
 21
208.870000
 100
AcDbText
 0
LINE
 5
5117
330
1E
 100
AcDbEntity
 8
Выноски
 6
CONTINUOUS
 100
AcDbLine
 39
0.030000
 10
121.045000
 20
192.120000
 11
131.920000
 21
210.120000
 0
LINE
 5
5118
330
1E
 100
AcDbEntity
 8
Выноски
 6
CONTINUOUS
 100
AcDbLine
 39
0.030000
 10
131.920000
 20
210.120000
 11
133.420000
 21
210.120000
 0
LINE
 5
5119
330
1E
 100
AcDbEntity
 8
Выноски
 6
CONTINUOUS
 100
AcDbLine
 39
0.030000
 10
82.570000
 20
183.120000
 11
82.570000
 21
177.120000
 0
LINE
 5
5120
330
1E
 100
AcDbEntity
 8
Выноски
 6
CONTINUOUS
 100
AcDbLine
 39
0.030000
 10
121.770000
 20
183.120000
 11
121.770000
 21
177.120000
 0
LINE
 5
5121
330
1E
 100
AcDbEntity
 8
Выноски
 6
CONTINUOUS
 100
AcDbLine
 39
0.030000
 10
78.670000
 20
181.120000
 11
78.670000
 21
182.120000
 0
LINE
 5
5122
330
1E
 100
AcDbEntity
 8
Выноски
 6
CONTINUOUS
 100
AcDbLine
 39
0.030000
 10
80.170000
 20
181.120000
 11
80.170000
 21
182.120000
 0
LINE
 5
5123
330
1E
 100
AcDbEntity
 8
Выноски
 6
CONTINUOUS
 100
AcDbLine
 39
0.030000
 10
81.670000
 20
181.120000
 11
81.670000
 21
182.120000
 0
LINE
 5
5124
330
1E
 100
AcDbEntity
 8
Выноски
 6
CONTINUOUS
 100
AcDbLine
 39
0.030000
 10
83.170000
 20
181.120000
 11
83.170000
 21
182.120000
 0
LINE
 5
5125
330
1E
 100
AcDbEntity
 8
Выноски
 6
CONTINUOUS
 100
AcDbLine
 39
0.030000
 10
84.670000
 20
181.120000
 11
84.670000
 21
182.120000
 0
LINE
 5
5126
330
1E
 100
AcDbEntity
 8
Выноски
 6
CONTINUOUS
 100
AcDbLine
 39
0.030000
 10
86.170000
 20
181.120000
 11
86.170000
 21
182.120000
 0
LINE
 5
5127
330
1E
 100
AcDbEntity
 8
Выноски
 6
CONTINUOUS
 100
AcDbLine
 39
0.030000
 10
118.670000
 20
181.120000
 11
118.670000
 21
182.120000
 0
LINE
 5
5128
330
1E
 100
AcDbEntity
 8
Выноски
 6
CONTINUOUS
 100
AcDbLine
 39
0.030000
 10
120.170000
 20
181.120000
 11
120.170000
 21
182.120000
 0
LINE
 5
5129
330
1E
 100
AcDbEntity
 8
Выноски
 6
CONTINUOUS
 100
AcDbLine
 39
0.030000
 10
121.670000
 20
181.120000
 11
121.670000
 21
182.120000
 0
LINE
 5
5130
330
1E
 100
AcDbEntity
 8
Выноски
 6
CONTINUOUS
 100
AcDbLine
 39
0.030000
 10
123.170000
 20
181.120000
 11
123.170000
 21
182.120000
 0
LINE
 5
5131
330
1E
 100
AcDbEntity
 8
Выноски
 6
CONTINUOUS
 100
AcDbLine
 39
0.030000
 10
124.670000
 20
181.120000
 11
124.670000
 21
182.120000
 0
LINE
 5
5132
330
1E
 100
AcDbEntity
 8
Выноски
 6
CONTINUOUS
 100
AcDbLine
 39
0.030000
 10
126.170000
 20
181.120000
 11
126.170000
 21
182.120000
 0
HATCH
 5
1012
330
1D
 100
AcDbEntity
 8
Выноски
 100
AcDbHatch
 10
0.0
 20
0.0
 30
0.0
 210
0.0
 220
0.0
 230
1.0
 2
SOLID
 70
  1
 71
  0
 91
  1
 92
  3
 72
  0
 73
  1
 93
   3
 10
87.170000
 20
181.120000
 10
85.670000
 20
181.120000
 10
87.170000
 20
182.620000
 97
  0
 75
  0
 76
  2
 98
  0
 0
HATCH
 5
1013
330
1D
 100
AcDbEntity
 8
Выноски
 100
AcDbHatch
 10
0.0
 20
0.0
 30
0.0
 210
0.0
 220
0.0
 230
1.0
 2
SOLID
 70
  1
 71
  0
 91
  1
 92
  3
 72
  0
 73
  1
 93
   3
 10
117.170000
 20
181.120000
 10
118.670000
 20
181.120000
 10
117.170000
 20
182.620000
 97
  0
 75
  0
 76
  2
 98
  0
 0
LINE
 5
5133
330
1E
 100
AcDbEntity
 8
Выноски
 6
CONTINUOUS
 100
AcDbLine
 39
0.030000
 10
89.870000
 20
181.120000
 11
89.870000
 21
182.120000
 0
LINE
 5
5134
330
1E
 100
AcDbEntity
 8
Выноски
 6
CONTINUOUS
 100
AcDbLine
 39
0.030000
 10
91.370000
 20
181.120000
 11
91.370000
 21
182.120000
 0
LINE
 5
5135
330
1E
 100
AcDbEntity
 8
Выноски
 6
CONTINUOUS
 100
AcDbLine
 39
0.030000
 10
92.870000
 20
181.120000
 11
92.870000
 21
182.120000
 0
LINE
 5
5136
330
1E
 100
AcDbEntity
 8
Выноски
 6
CONTINUOUS
 100
AcDbLine
 39
0.030000
 10
94.370000
 20
181.120000
 11
94.370000
 21
182.120000
 0
LINE
 5
5137
330
1E
 100
AcDbEntity
 8
Выноски
 6
CONTINUOUS
 100
AcDbLine
 39
0.030000
 10
95.870000
 20
181.120000
 11
95.870000
 21
182.120000
 0
LINE
 5
5138
330
1E
 100
AcDbEntity
 8
Выноски
 6
CONTINUOUS
 100
AcDbLine
 39
0.030000
 10
97.370000
 20
181.120000
 11
97.370000
 21
182.120000
 0
LINE
 5
5139
330
1E
 100
AcDbEntity
 8
Выноски
 6
CONTINUOUS
 100
AcDbLine
 39
0.030000
 10
98.870000
 20
181.120000
 11
98.870000
 21
182.120000
 0
LINE
 5
5140
330
1E
 100
AcDbEntity
 8
Выноски
 6
CONTINUOUS
 100
AcDbLine
 39
0.030000
 10
100.370000
 20
181.120000
 11
100.370000
 21
182.120000
 0
LINE
 5
5141
330
1E
 100
AcDbEntity
 8
Выноски
 6
CONTINUOUS
 100
AcDbLine
 39
0.030000
 10
101.870000
 20
181.120000
 11
101.870000
 21
182.120000
 0
LINE
 5
5142
330
1E
 100
AcDbEntity
 8
Выноски
 6
CONTINUOUS
 100
AcDbLine
 39
0.030000
 10
103.370000
 20
181.120000
 11
103.370000
 21
182.120000
 0
LINE
 5
5143
330
1E
 100
AcDbEntity
 8
Выноски
 6
CONTINUOUS
 100
AcDbLine
 39
0.030000
 10
104.870000
 20
181.120000
 11
104.870000
 21
182.120000
 0
LINE
 5
5144
330
1E
 100
AcDbEntity
 8
Выноски
 6
CONTINUOUS
 100
AcDbLine
 39
0.030000
 10
106.370000
 20
181.120000
 11
106.370000
 21
182.120000
 0
LINE
 5
5145
330
1E
 100
AcDbEntity
 8
Выноски
 6
CONTINUOUS
 100
AcDbLine
 39
0.030000
 10
107.870000
 20
181.120000
 11
107.870000
 21
182.120000
 0
LINE
 5
5146
330
1E
 100
AcDbEntity
 8
Выноски
 6
CONTINUOUS
 100
AcDbLine
 39
0.030000
 10
109.370000
 20
181.120000
 11
109.370000
 21
182.120000
 0
LINE
 5
5147
330
1E
 100
AcDbEntity
 8
Выноски
 6
CONTINUOUS
 100
AcDbLine
 39
0.030000
 10
110.870000
 20
181.120000
 11
110.870000
 21
182.120000
 0
LINE
 5
5148
330
1E
 100
AcDbEntity
 8
Выноски
 6
CONTINUOUS
 100
AcDbLine
 39
0.030000
 10
112.370000
 20
181.120000
 11
112.370000
 21
182.120000
 0
LINE
 5
5149
330
1E
 100
AcDbEntity
 8
Выноски
 6
CONTINUOUS
 100
AcDbLine
 39
0.030000
 10
113.870000
 20
181.120000
 11
113.870000
 21
182.120000
 0
LINE
 5
5150
330
1E
 100
AcDbEntity
 8
Выноски
 6
CONTINUOUS
 100
AcDbLine
 39
0.030000
 10
115.370000
 20
181.120000
 11
115.370000
 21
182.120000
 0
HATCH
 5
1014
330
1D
 100
AcDbEntity
 8
Выноски
 100
AcDbHatch
 10
0.0
 20
0.0
 30
0.0
 210
0.0
 220
0.0
 230
1.0
 2
SOLID
 70
  1
 71
  0
 91
  1
 92
  3
 72
  0
 73
  1
 93
   3
 10
88.370000
 20
181.120000
 10
89.870000
 20
181.120000
 10
88.370000
 20
182.620000
 97
  0
 75
  0
 76
  2
 98
  0
 0
HATCH
 5
1015
330
1D
 100
AcDbEntity
 8
Выноски
 100
AcDbHatch
 10
0.0
 20
0.0
 30
0.0
 210
0.0
 220
0.0
 230
1.0
 2
SOLID
 70
  1
 71
  0
 91
  1
 92
  3
 72
  0
 73
  1
 93
   3
 10
115.970000
 20
181.120000
 10
114.470000
 20
181.120000
 10
115.970000
 20
182.620000
 97
  0
 75
  0
 76
  2
 98
  0
 0
LINE
 5
5151
330
1E
 100
AcDbEntity
 8
Выноски
 6
CONTINUOUS
 100
AcDbLine
 39
0.030000
 10
87.170000
 20
182.120000
 11
86.170000
 21
182.120000
 0
LINE
 5
5152
330
1E
 100
AcDbEntity
 8
Выноски
 6
CONTINUOUS
 100
AcDbLine
 39
0.030000
 10
87.170000
 20
183.620000
 11
86.170000
 21
183.620000
 0
LINE
 5
5153
330
1E
 100
AcDbEntity
 8
Выноски
 6
CONTINUOUS
 100
AcDbLine
 39
0.030000
 10
87.170000
 20
185.120000
 11
86.170000
 21
185.120000
 0
LINE
 5
5154
330
1E
 100
AcDbEntity
 8
Выноски
 6
CONTINUOUS
 100
AcDbLine
 39
0.030000
 10
87.170000
 20
186.620000
 11
86.170000
 21
186.620000
 0
LINE
 5
5155
330
1E
 100
AcDbEntity
 8
Выноски
 6
CONTINUOUS
 100
AcDbLine
 39
0.030000
 10
87.170000
 20
188.120000
 11
86.170000
 21
188.120000
 0
LINE
 5
5156
330
1E
 100
AcDbEntity
 8
Выноски
 6
CONTINUOUS
 100
AcDbLine
 39
0.030000
 10
87.170000
 20
189.620000
 11
86.170000
 21
189.620000
 0
LINE
 5
5157
330
1E
 100
AcDbEntity
 8
Выноски
 6
CONTINUOUS
 100
AcDbLine
 39
0.030000
 10
87.170000
 20
191.120000
 11
86.170000
 21
191.120000
 0
LINE
 5
5158
330
1E
 100
AcDbEntity
 8
Выноски
 6
CONTINUOUS
 100
AcDbLine
 39
0.030000
 10
87.170000
 20
192.620000
 11
86.170000
 21
192.620000
 0
LINE
 5
5159
330
1E
 100
AcDbEntity
 8
Выноски
 6
CONTINUOUS
 100
AcDbLine
 39
0.030000
 10
87.170000
 20
194.120000
 11
86.170000
 21
194.120000
 0
LINE
 5
5160
330
1E
 100
AcDbEntity
 8
Выноски
 6
CONTINUOUS
 100
AcDbLine
 39
0.030000
 10
87.170000
 20
195.620000
 11
86.170000
 21
195.620000
 0
LINE
 5
5161
330
1E
 100
AcDbEntity
 8
Выноски
 6
CONTINUOUS
 100
AcDbLine
 39
0.030000
 10
87.170000
 20
197.120000
 11
86.170000
 21
197.120000
 0
LINE
 5
5162
330
1E
 100
AcDbEntity
 8
Выноски
 6
CONTINUOUS
 100
AcDbLine
 39
0.030000
 10
87.170000
 20
198.620000
 11
86.170000
 21
198.620000
 0
LINE
 5
5163
330
1E
 100
AcDbEntity
 8
Выноски
 6
CONTINUOUS
 100
AcDbLine
 39
0.030000
 10
87.170000
 20
200.120000
 11
86.170000
 21
200.120000
 0
LINE
 5
5164
330
1E
 100
AcDbEntity
 8
Выноски
 6
CONTINUOUS
 100
AcDbLine
 39
0.030000
 10
87.170000
 20
201.620000
 11
86.170000
 21
201.620000
 0
LINE
 5
5165
330
1E
 100
AcDbEntity
 8
Выноски
 6
CONTINUOUS
 100
AcDbLine
 39
0.030000
 10
87.170000
 20
203.120000
 11
86.170000
 21
203.120000
 0
LINE
 5
5166
330
1E
 100
AcDbEntity
 8
Выноски
 6
CONTINUOUS
 100
AcDbLine
 39
0.030000
 10
87.170000
 20
204.620000
 11
86.170000
 21
204.620000
 0
LINE
 5
5167
330
1E
 100
AcDbEntity
 8
Выноски
 6
CONTINUOUS
 100
AcDbLine
 39
0.030000
 10
117.170000
 20
182.120000
 11
118.170000
 21
182.120000
 0
LINE
 5
5168
330
1E
 100
AcDbEntity
 8
Выноски
 6
CONTINUOUS
 100
AcDbLine
 39
0.030000
 10
117.170000
 20
183.620000
 11
118.170000
 21
183.620000
 0
LINE
 5
5169
330
1E
 100
AcDbEntity
 8
Выноски
 6
CONTINUOUS
 100
AcDbLine
 39
0.030000
 10
117.170000
 20
185.120000
 11
118.170000
 21
185.120000
 0
LINE
 5
5170
330
1E
 100
AcDbEntity
 8
Выноски
 6
CONTINUOUS
 100
AcDbLine
 39
0.030000
 10
117.170000
 20
186.620000
 11
118.170000
 21
186.620000
 0
LINE
 5
5171
330
1E
 100
AcDbEntity
 8
Выноски
 6
CONTINUOUS
 100
AcDbLine
 39
0.030000
 10
117.170000
 20
188.120000
 11
118.170000
 21
188.120000
 0
LINE
 5
5172
330
1E
 100
AcDbEntity
 8
Выноски
 6
CONTINUOUS
 100
AcDbLine
 39
0.030000
 10
117.170000
 20
189.620000
 11
118.170000
 21
189.620000
 0
LINE
 5
5173
330
1E
 100
AcDbEntity
 8
Выноски
 6
CONTINUOUS
 100
AcDbLine
 39
0.030000
 10
117.170000
 20
191.120000
 11
118.170000
 21
191.120000
 0
LINE
 5
5174
330
1E
 100
AcDbEntity
 8
Выноски
 6
CONTINUOUS
 100
AcDbLine
 39
0.030000
 10
117.170000
 20
192.620000
 11
118.170000
 21
192.620000
 0
LINE
 5
5175
330
1E
 100
AcDbEntity
 8
Выноски
 6
CONTINUOUS
 100
AcDbLine
 39
0.030000
 10
117.170000
 20
194.120000
 11
118.170000
 21
194.120000
 0
LINE
 5
5176
330
1E
 100
AcDbEntity
 8
Выноски
 6
CONTINUOUS
 100
AcDbLine
 39
0.030000
 10
117.170000
 20
195.620000
 11
118.170000
 21
195.620000
 0
LINE
 5
5177
330
1E
 100
AcDbEntity
 8
Выноски
 6
CONTINUOUS
 100
AcDbLine
 39
0.030000
 10
117.170000
 20
197.120000
 11
118.170000
 21
197.120000
 0
LINE
 5
5178
330
1E
 100
AcDbEntity
 8
Выноски
 6
CONTINUOUS
 100
AcDbLine
 39
0.030000
 10
117.170000
 20
198.620000
 11
118.170000
 21
198.620000
 0
LINE
 5
5179
330
1E
 100
AcDbEntity
 8
Выноски
 6
CONTINUOUS
 100
AcDbLine
 39
0.030000
 10
117.170000
 20
200.120000
 11
118.170000
 21
200.120000
 0
LINE
 5
5180
330
1E
 100
AcDbEntity
 8
Выноски
 6
CONTINUOUS
 100
AcDbLine
 39
0.030000
 10
117.170000
 20
201.620000
 11
118.170000
 21
201.620000
 0
LINE
 5
5181
330
1E
 100
AcDbEntity
 8
Выноски
 6
CONTINUOUS
 100
AcDbLine
 39
0.030000
 10
117.170000
 20
203.120000
 11
118.170000
 21
203.120000
 0
LINE
 5
5182
330
1E
 100
AcDbEntity
 8
Выноски
 6
CONTINUOUS
 100
AcDbLine
 39
0.030000
 10
117.170000
 20
204.620000
 11
118.170000
 21
204.620000
 0
LINE
 5
5183
330
1E
 100
AcDbEntity
 8
Выноски
 6
CONTINUOUS
 100
AcDbLine
 39
0.030000
 10
88.370000
 20
182.120000
 11
89.370000
 21
182.120000
 0
LINE
 5
5184
330
1E
 100
AcDbEntity
 8
Выноски
 6
CONTINUOUS
 100
AcDbLine
 39
0.030000
 10
88.370000
 20
183.620000
 11
89.370000
 21
183.620000
 0
LINE
 5
5185
330
1E
 100
AcDbEntity
 8
Выноски
 6
CONTINUOUS
 100
AcDbLine
 39
0.030000
 10
88.370000
 20
185.120000
 11
89.370000
 21
185.120000
 0
LINE
 5
5186
330
1E
 100
AcDbEntity
 8
Выноски
 6
CONTINUOUS
 100
AcDbLine
 39
0.030000
 10
88.370000
 20
186.620000
 11
89.370000
 21
186.620000
 0
LINE
 5
5187
330
1E
 100
AcDbEntity
 8
Выноски
 6
CONTINUOUS
 100
AcDbLine
 39
0.030000
 10
88.370000
 20
188.120000
 11
89.370000
 21
188.120000
 0
LINE
 5
5188
330
1E
 100
AcDbEntity
 8
Выноски
 6
CONTINUOUS
 100
AcDbLine
 39
0.030000
 10
88.370000
 20
189.620000
 11
89.370000
 21
189.620000
 0
LINE
 5
5189
330
1E
 100
AcDbEntity
 8
Выноски
 6
CONTINUOUS
 100
AcDbLine
 39
0.030000
 10
88.370000
 20
191.120000
 11
89.370000
 21
191.120000
 0
LINE
 5
5190
330
1E
 100
AcDbEntity
 8
Выноски
 6
CONTINUOUS
 100
AcDbLine
 39
0.030000
 10
88.370000
 20
192.620000
 11
89.370000
 21
192.620000
 0
LINE
 5
5191
330
1E
 100
AcDbEntity
 8
Выноски
 6
CONTINUOUS
 100
AcDbLine
 39
0.030000
 10
88.370000
 20
194.120000
 11
89.370000
 21
194.120000
 0
LINE
 5
5192
330
1E
 100
AcDbEntity
 8
Выноски
 6
CONTINUOUS
 100
AcDbLine
 39
0.030000
 10
88.370000
 20
195.620000
 11
89.370000
 21
195.620000
 0
LINE
 5
5193
330
1E
 100
AcDbEntity
 8
Выноски
 6
CONTINUOUS
 100
AcDbLine
 39
0.030000
 10
88.370000
 20
197.120000
 11
89.370000
 21
197.120000
 0
LINE
 5
5194
330
1E
 100
AcDbEntity
 8
Выноски
 6
CONTINUOUS
 100
AcDbLine
 39
0.030000
 10
88.370000
 20
198.620000
 11
89.370000
 21
198.620000
 0
LINE
 5
5195
330
1E
 100
AcDbEntity
 8
Выноски
 6
CONTINUOUS
 100
AcDbLine
 39
0.030000
 10
88.370000
 20
200.120000
 11
89.370000
 21
200.120000
 0
LINE
 5
5196
330
1E
 100
AcDbEntity
 8
Выноски
 6
CONTINUOUS
 100
AcDbLine
 39
0.030000
 10
88.370000
 20
201.620000
 11
89.370000
 21
201.620000
 0
LINE
 5
5197
330
1E
 100
AcDbEntity
 8
Выноски
 6
CONTINUOUS
 100
AcDbLine
 39
0.030000
 10
88.370000
 20
203.120000
 11
89.370000
 21
203.120000
 0
LINE
 5
5198
330
1E
 100
AcDbEntity
 8
Выноски
 6
CONTINUOUS
 100
AcDbLine
 39
0.030000
 10
88.370000
 20
204.620000
 11
89.370000
 21
204.620000
 0
LINE
 5
5199
330
1E
 100
AcDbEntity
 8
Выноски
 6
CONTINUOUS
 100
AcDbLine
 39
0.030000
 10
115.970000
 20
182.120000
 11
114.970000
 21
182.120000
 0
LINE
 5
5200
330
1E
 100
AcDbEntity
 8
Выноски
 6
CONTINUOUS
 100
AcDbLine
 39
0.030000
 10
115.970000
 20
183.620000
 11
114.970000
 21
183.620000
 0
LINE
 5
5201
330
1E
 100
AcDbEntity
 8
Выноски
 6
CONTINUOUS
 100
AcDbLine
 39
0.030000
 10
115.970000
 20
185.120000
 11
114.970000
 21
185.120000
 0
LINE
 5
5202
330
1E
 100
AcDbEntity
 8
Выноски
 6
CONTINUOUS
 100
AcDbLine
 39
0.030000
 10
115.970000
 20
186.620000
 11
114.970000
 21
186.620000
 0
LINE
 5
5203
330
1E
 100
AcDbEntity
 8
Выноски
 6
CONTINUOUS
 100
AcDbLine
 39
0.030000
 10
115.970000
 20
188.120000
 11
114.970000
 21
188.120000
 0
LINE
 5
5204
330
1E
 100
AcDbEntity
 8
Выноски
 6
CONTINUOUS
 100
AcDbLine
 39
0.030000
 10
115.970000
 20
189.620000
 11
114.970000
 21
189.620000
 0
LINE
 5
5205
330
1E
 100
AcDbEntity
 8
Выноски
 6
CONTINUOUS
 100
AcDbLine
 39
0.030000
 10
115.970000
 20
191.120000
 11
114.970000
 21
191.120000
 0
LINE
 5
5206
330
1E
 100
AcDbEntity
 8
Выноски
 6
CONTINUOUS
 100
AcDbLine
 39
0.030000
 10
115.970000
 20
192.620000
 11
114.970000
 21
192.620000
 0
LINE
 5
5207
330
1E
 100
AcDbEntity
 8
Выноски
 6
CONTINUOUS
 100
AcDbLine
 39
0.030000
 10
115.970000
 20
194.120000
 11
114.970000
 21
194.120000
 0
LINE
 5
5208
330
1E
 100
AcDbEntity
 8
Выноски
 6
CONTINUOUS
 100
AcDbLine
 39
0.030000
 10
115.970000
 20
195.620000
 11
114.970000
 21
195.620000
 0
LINE
 5
5209
330
1E
 100
AcDbEntity
 8
Выноски
 6
CONTINUOUS
 100
AcDbLine
 39
0.030000
 10
115.970000
 20
197.120000
 11
114.970000
 21
197.120000
 0
LINE
 5
5210
330
1E
 100
AcDbEntity
 8
Выноски
 6
CONTINUOUS
 100
AcDbLine
 39
0.030000
 10
115.970000
 20
198.620000
 11
114.970000
 21
198.620000
 0
LINE
 5
5211
330
1E
 100
AcDbEntity
 8
Выноски
 6
CONTINUOUS
 100
AcDbLine
 39
0.030000
 10
115.970000
 20
200.120000
 11
114.970000
 21
200.120000
 0
LINE
 5
5212
330
1E
 100
AcDbEntity
 8
Выноски
 6
CONTINUOUS
 100
AcDbLine
 39
0.030000
 10
115.970000
 20
201.620000
 11
114.970000
 21
201.620000
 0
LINE
 5
5213
330
1E
 100
AcDbEntity
 8
Выноски
 6
CONTINUOUS
 100
AcDbLine
 39
0.030000
 10
115.970000
 20
203.120000
 11
114.970000
 21
203.120000
 0
LINE
 5
5214
330
1E
 100
AcDbEntity
 8
Выноски
 6
CONTINUOUS
 100
AcDbLine
 39
0.030000
 10
115.970000
 20
204.620000
 11
114.970000
 21
204.620000
 0
DIMENSION
 5
4001
330
1E
 100
AcDbEntity
 8
Размеры
 100
AcDbDimension
 2
*D1
 10
134.920000
 20
179.120000
 30
0.0
 11
134.920000
 21
174.920000
 31
0.0
 70
  160
 71
  5
 42
20
 3
SCADOFFICE_DIM
 100
AcDbAlignedDimension
 13
126.920000
 23
181.120000
 33
0.0
 14
126.920000
 24
179.120000
 34
0.0
 50
90
 100
AcDbRotatedDimension
 0
DIMENSION
 5
4002
330
1E
 100
AcDbEntity
 8
Размеры
 100
AcDbDimension
 2
*D2
 10
77.420000
 20
171.120000
 30
0.0
 11
82.295000
 21
171.120000
 31
0.0
 70
  0
 71
  5
 42
97.5
 3
SCADOFFICE_DIM
 100
AcDbAlignedDimension
 13
87.170000
 23
179.120000
 33
0.0
 14
77.420000
 24
179.120000
 34
0.0
 50
0
 100
AcDbRotatedDimension
 0
LWPOLYLINE
 5
5215
330
1E
 100
AcDbEntity
 8
Размеры
 6
CONTINUOUS
 48
1.0
 100
AcDbPolyline
 90
2
 70
0
 43
0.400000
 10
224.120000
 20
181.120000
 10
224.120000
 20
226.120000
 0
LWPOLYLINE
 5
5216
330
1E
 100
AcDbEntity
 8
Размеры
 6
CONTINUOUS
 48
1.0
 100
AcDbPolyline
 90
2
 70
0
 43
0.400000
 10
254.120000
 20
181.120000
 10
254.120000
 20
226.120000
 0
LINE
 5
5217
330
1E
 100
AcDbEntity
 8
Размеры
 6
CONTINUOUS
 100
AcDbLine
 39
0.030000
 10
222.870000
 20
226.120000
 11
237.870000
 21
226.120000
 0
LINE
 5
5218
330
1E
 100
AcDbEntity
 8
Размеры
 6
CONTINUOUS
 100
AcDbLine
 39
0.030000
 10
237.870000
 20
226.120000
 11
238.703333
 21
225.286667
 0
LINE
 5
5219
330
1E
 100
AcDbEntity
 8
Размеры
 6
CONTINUOUS
 100
AcDbLine
 39
0.030000
 10
238.703333
 20
225.286667
 11
239.536667
 21
226.953333
 0
LINE
 5
5220
330
1E
 100
AcDbEntity
 8
Размеры
 6
CONTINUOUS
 100
AcDbLine
 39
0.030000
 10
239.536667
 20
226.953333
 11
240.370000
 21
226.120000
 0
LINE
 5
5221
330
1E
 100
AcDbEntity
 8
Размеры
 6
CONTINUOUS
 100
AcDbLine
 39
0.030000
 10
240.370000
 20
226.120000
 11
255.370000
 21
226.120000
 0
LWPOLYLINE
 5
5222
330
1E
 100
AcDbEntity
 8
Размеры
 6
CONTINUOUS
 48
1.0
 100
AcDbPolyline
 90
2
 70
0
 43
0.400000
 10
212.870000
 20
181.120000
 10
265.370000
 20
181.120000
 0
LWPOLYLINE
 5
5223
330
1E
 100
AcDbEntity
 8
Размеры
 6
CONTINUOUS
 48
1.0
 100
AcDbPolyline
 90
2
 70
0
 43
0.400000
 10
265.370000
 20
181.120000
 10
265.370000
 20
179.120000
 0
LWPOLYLINE
 5
5224
330
1E
 100
AcDbEntity
 8
Размеры
 6
CONTINUOUS
 48
1.0
 100
AcDbPolyline
 90
2
 70
0
 43
0.400000
 10
265.370000
 20
179.120000
 10
212.870000
 20
179.120000
 0
LWPOLYLINE
 5
5225
330
1E
 100
AcDbEntity
 8
Размеры
 6
CONTINUOUS
 48
1.0
 100
AcDbPolyline
 90
2
 70
0
 43
0.400000
 10
212.870000
 20
179.120000
 10
212.870000
 20
181.120000
 0
LWPOLYLINE
 5
5226
330
1E
 100
AcDbEntity
 8
Размеры
 6
CONTINUOUS
 48
1.0
 100
AcDbPolyline
 90
2
 70
0
 43
0.400000
 10
222.920000
 20
205.120000
 10
224.120000
 20
205.120000
 0
LWPOLYLINE
 5
5227
330
1E
 100
AcDbEntity
 8
Размеры
 6
CONTINUOUS
 48
1.0
 100
AcDbPolyline
 90
2
 70
0
 43
0.400000
 10
224.120000
 20
205.120000
 10
224.120000
 20
181.120000
 0
LWPOLYLINE
 5
5228
330
1E
 100
AcDbEntity
 8
Размеры
 6
CONTINUOUS
 48
1.0
 100
AcDbPolyline
 90
2
 70
0
 43
0.400000
 10
224.120000
 20
181.120000
 10
222.920000
 20
181.120000
 0
LWPOLYLINE
 5
5229
330
1E
 100
AcDbEntity
 8
Размеры
 6
CONTINUOUS
 48
1.0
 100
AcDbPolyline
 90
2
 70
0
 43
0.400000
 10
222.920000
 20
181.120000
 10
222.920000
 20
205.120000
 0
LWPOLYLINE
 5
5230
330
1E
 100
AcDbEntity
 8
Размеры
 6
CONTINUOUS
 48
1.0
 100
AcDbPolyline
 90
2
 70
0
 43
0.400000
 10
254.120000
 20
205.120000
 10
255.320000
 20
205.120000
 0
LWPOLYLINE
 5
5231
330
1E
 100
AcDbEntity
 8
Размеры
 6
CONTINUOUS
 48
1.0
 100
AcDbPolyline
 90
2
 70
0
 43
0.400000
 10
255.320000
 20
205.120000
 10
255.320000
 20
181.120000
 0
LWPOLYLINE
 5
5232
330
1E
 100
AcDbEntity
 8
Размеры
 6
CONTINUOUS
 48
1.0
 100
AcDbPolyline
 90
2
 70
0
 43
0.400000
 10
255.320000
 20
181.120000
 10
254.120000
 20
181.120000
 0
LWPOLYLINE
 5
5233
330
1E
 100
AcDbEntity
 8
Размеры
 6
CONTINUOUS
 48
1.0
 100
AcDbPolyline
 90
2
 70
0
 43
0.400000
 10
254.120000
 20
181.120000
 10
254.120000
 20
205.120000
 0
LWPOLYLINE
 5
5234
330
1E
 100
AcDbEntity
 8
Размеры
 6
CONTINUOUS
 48
1.0
 100
AcDbPolyline
 90
2
 70
0
 43
0.400000
 10
212.920000
 20
181.120000
 10
222.920000
 20
205.120000
 0
LWPOLYLINE
 5
5235
330
1E
 100
AcDbEntity
 8
Размеры
 6
CONTINUOUS
 48
1.0
 100
AcDbPolyline
 90
2
 70
0
 43
0.400000
 10
255.320000
 20
205.120000
 10
265.320000
 20
181.120000
 0
LINE
 5
5236
330
1E
 100
AcDbEntity
 8
Размеры
 6
DASHED
 100
AcDbLine
 39
0.030000
 10
238.620000
 20
225.120000
 11
238.620000
 21
181.120000
 0
LINE
 5
5237
330
1E
 100
AcDbEntity
 8
Размеры
 6
DASHED
 100
AcDbLine
 39
0.030000
 10
239.620000
 20
225.120000
 11
239.620000
 21
181.120000
 0
CIRCLE
 5
1016
330
1E
 100
AcDbEntity
 8
Выноски
 6
CONTINUOUS
 48
1.0
 100
AcDbCircle
 39
0.030000
 10
251.620000
 20
223.620000
 40
0.250000
 0
HATCH
 5
1017
330
1E
 100
AcDbEntity
 8
Выноски
 100
AcDbHatch
 10
0.0
 20
0.0
 30
0.0
 210
0.0
 220
0.0
 230
1.0
 2
SOLID
 70
  1
 71
  1
 91
  1
 92
  7
 72
  1
 73
  1
 93
  2
 10
251.370000
 20
223.620000
 42
1.0
 10
251.870000
 20
223.620000
 42
1.0
 97
  1
330
2B
 75
  0
 76
  1
 47
0.0
 98
  1
 10
251.620000
 20
223.620000
 0
TEXT
 5
2515
330
1E
 100
AcDbEntity
 8
Выноски
 48
50.0
 100
AcDbText
 10
265.120000
 20
231.620000
 40
2.500000
 1
Двутавр 30К2
 50
0.000000
 41
0.700000
 51
15.000000
 7
SCADOFFICE
 72
  0
 11
265.120000
 21
231.620000
 100
AcDbText
 0
LINE
 5
5238
330
1E
 100
AcDbEntity
 8
Выноски
 6
CONTINUOUS
 100
AcDbLine
 39
0.030000
 10
251.620000
 20
223.620000
 11
264.120000
 21
231.120000
 0
LINE
 5
5239
330
1E
 100
AcDbEntity
 8
Выноски
 6
CONTINUOUS
 100
AcDbLine
 39
0.030000
 10
264.120000
 20
231.120000
 11
283.620000
 21
231.120000
 0
CIRCLE
 5
1018
330
1E
 100
AcDbEntity
 8
Выноски
 6
CONTINUOUS
 48
1.0
 100
AcDbCircle
 39
0.030000
 10
263.370000
 20
180.120000
 40
0.250000
 0
HATCH
 5
1019
330
1E
 100
AcDbEntity
 8
Выноски
 100
AcDbHatch
 10
0.0
 20
0.0
 30
0.0
 210
0.0
 220
0.0
 230
1.0
 2
SOLID
 70
  1
 71
  1
 91
  1
 92
  7
 72
  1
 73
  1
 93
  2
 10
263.120000
 20
180.120000
 42
1.0
 10
263.620000
 20
180.120000
 42
1.0
 97
  1
330
2B
 75
  0
 76
  1
 47
0.0
 98
  1
 10
263.370000
 20
180.120000
 0
TEXT
 5
2516
330
1E
 100
AcDbEntity
 8
Выноски
 48
50.0
 100
AcDbText
 10
272.370000
 20
184.870000
 40
2.500000
 1
1
 50
0.000000
 41
0.700000
 51
15.000000
 7
SCADOFFICE
 72
  0
 11
272.370000
 21
184.870000
 100
AcDbText
 0
LINE
 5
5240
330
1E
 100
AcDbEntity
 8
Выноски
 6
CONTINUOUS
 100
AcDbLine
 39
0.030000
 10
263.370000
 20
180.120000
 11
270.370000
 21
186.120000
 0
LINE
 5
5241
330
1E
 100
AcDbEntity
 8
Выноски
 6
CONTINUOUS
 100
AcDbLine
 39
0.030000
 10
270.370000
 20
186.120000
 11
271.870000
 21
186.120000
 0
TEXT
 5
2517
330
1E
 100
AcDbEntity
 8
Выноски
 48
50.0
 100
AcDbText
 10
272.370000
 20
204.070000
 40
2.500000
 1
4
 50
0.000000
 41
0.700000
 51
15.000000
 7
SCADOFFICE
 72
  0
 11
272.370000
 21
204.070000
 100
AcDbText
 0
CIRCLE
 5
1020
330
1E
 100
AcDbEntity
 8
Выноски
 6
CONTINUOUS
 48
1.0
 100
AcDbCircle
 39
0.030000
 10
259.320000
 20
192.120000
 40
0.250000
 0
HATCH
 5
1021
330
1E
 100
AcDbEntity
 8
Выноски
 100
AcDbHatch
 10
0.0
 20
0.0
 30
0.0
 210
0.0
 220
0.0
 230
1.0
 2
SOLID
 70
  1
 71
  1
 91
  1
 92
  7
 72
  1
 73
  1
 93
  2
 10
259.070000
 20
192.120000
 42
1.0
 10
259.570000
 20
192.120000
 42
1.0
 97
  1
330
2B
 75
  0
 76
  1
 47
0.0
 98
  1
 10
259.320000
 20
192.120000
 0
LINE
 5
5242
330
1E
 100
AcDbEntity
 8
Выноски
 6
CONTINUOUS
 100
AcDbLine
 39
0.030000
 10
259.320000
 20
192.120000
 11
270.370000
 21
205.320000
 0
LINE
 5
5243
330
1E
 100
AcDbEntity
 8
Выноски
 6
CONTINUOUS
 100
AcDbLine
 39
0.030000
 10
270.370000
 20
205.320000
 11
271.870000
 21
205.320000
 0
LINE
 5
5244
330
1E
 100
AcDbEntity
 8
Выноски
 6
CONTINUOUS
 100
AcDbLine
 39
0.030000
 10
218.620000
 20
183.120000
 11
218.620000
 21
177.120000
 0
LINE
 5
5245
330
1E
 100
AcDbEntity
 8
Выноски
 6
CONTINUOUS
 100
AcDbLine
 39
0.030000
 10
259.620000
 20
183.120000
 11
259.620000
 21
177.120000
 0
LINE
 5
5246
330
1E
 100
AcDbEntity
 8
Выноски
 6
CONTINUOUS
 100
AcDbLine
 39
0.030000
 10
224.120000
 20
182.620000
 11
225.120000
 21
182.620000
 0
LINE
 5
5247
330
1E
 100
AcDbEntity
 8
Выноски
 6
CONTINUOUS
 100
AcDbLine
 39
0.030000
 10
224.120000
 20
184.120000
 11
225.120000
 21
184.120000
 0
LINE
 5
5248
330
1E
 100
AcDbEntity
 8
Выноски
 6
CONTINUOUS
 100
AcDbLine
 39
0.030000
 10
224.120000
 20
185.620000
 11
225.120000
 21
185.620000
 0
LINE
 5
5249
330
1E
 100
AcDbEntity
 8
Выноски
 6
CONTINUOUS
 100
AcDbLine
 39
0.030000
 10
224.120000
 20
187.120000
 11
225.120000
 21
187.120000
 0
LINE
 5
5250
330
1E
 100
AcDbEntity
 8
Выноски
 6
CONTINUOUS
 100
AcDbLine
 39
0.030000
 10
224.120000
 20
188.620000
 11
225.120000
 21
188.620000
 0
LINE
 5
5251
330
1E
 100
AcDbEntity
 8
Выноски
 6
CONTINUOUS
 100
AcDbLine
 39
0.030000
 10
224.120000
 20
190.120000
 11
225.120000
 21
190.120000
 0
LINE
 5
5252
330
1E
 100
AcDbEntity
 8
Выноски
 6
CONTINUOUS
 100
AcDbLine
 39
0.030000
 10
224.120000
 20
191.620000
 11
225.120000
 21
191.620000
 0
LINE
 5
5253
330
1E
 100
AcDbEntity
 8
Выноски
 6
CONTINUOUS
 100
AcDbLine
 39
0.030000
 10
224.120000
 20
193.120000
 11
225.120000
 21
193.120000
 0
LINE
 5
5254
330
1E
 100
AcDbEntity
 8
Выноски
 6
CONTINUOUS
 100
AcDbLine
 39
0.030000
 10
224.120000
 20
194.620000
 11
225.120000
 21
194.620000
 0
LINE
 5
5255
330
1E
 100
AcDbEntity
 8
Выноски
 6
CONTINUOUS
 100
AcDbLine
 39
0.030000
 10
224.120000
 20
196.120000
 11
225.120000
 21
196.120000
 0
LINE
 5
5256
330
1E
 100
AcDbEntity
 8
Выноски
 6
CONTINUOUS
 100
AcDbLine
 39
0.030000
 10
224.120000
 20
197.620000
 11
225.120000
 21
197.620000
 0
LINE
 5
5257
330
1E
 100
AcDbEntity
 8
Выноски
 6
CONTINUOUS
 100
AcDbLine
 39
0.030000
 10
224.120000
 20
199.120000
 11
225.120000
 21
199.120000
 0
LINE
 5
5258
330
1E
 100
AcDbEntity
 8
Выноски
 6
CONTINUOUS
 100
AcDbLine
 39
0.030000
 10
224.120000
 20
200.620000
 11
225.120000
 21
200.620000
 0
LINE
 5
5259
330
1E
 100
AcDbEntity
 8
Выноски
 6
CONTINUOUS
 100
AcDbLine
 39
0.030000
 10
224.120000
 20
202.120000
 11
225.120000
 21
202.120000
 0
LINE
 5
5260
330
1E
 100
AcDbEntity
 8
Выноски
 6
CONTINUOUS
 100
AcDbLine
 39
0.030000
 10
224.120000
 20
203.620000
 11
225.120000
 21
203.620000
 0
LINE
 5
5261
330
1E
 100
AcDbEntity
 8
Выноски
 6
CONTINUOUS
 100
AcDbLine
 39
0.030000
 10
224.120000
 20
205.120000
 11
225.120000
 21
205.120000
 0
LINE
 5
5262
330
1E
 100
AcDbEntity
 8
Выноски
 6
CONTINUOUS
 100
AcDbLine
 39
0.030000
 10
254.120000
 20
182.620000
 11
253.120000
 21
182.620000
 0
LINE
 5
5263
330
1E
 100
AcDbEntity
 8
Выноски
 6
CONTINUOUS
 100
AcDbLine
 39
0.030000
 10
254.120000
 20
184.120000
 11
253.120000
 21
184.120000
 0
LINE
 5
5264
330
1E
 100
AcDbEntity
 8
Выноски
 6
CONTINUOUS
 100
AcDbLine
 39
0.030000
 10
254.120000
 20
185.620000
 11
253.120000
 21
185.620000
 0
LINE
 5
5265
330
1E
 100
AcDbEntity
 8
Выноски
 6
CONTINUOUS
 100
AcDbLine
 39
0.030000
 10
254.120000
 20
187.120000
 11
253.120000
 21
187.120000
 0
LINE
 5
5266
330
1E
 100
AcDbEntity
 8
Выноски
 6
CONTINUOUS
 100
AcDbLine
 39
0.030000
 10
254.120000
 20
188.620000
 11
253.120000
 21
188.620000
 0
LINE
 5
5267
330
1E
 100
AcDbEntity
 8
Выноски
 6
CONTINUOUS
 100
AcDbLine
 39
0.030000
 10
254.120000
 20
190.120000
 11
253.120000
 21
190.120000
 0
LINE
 5
5268
330
1E
 100
AcDbEntity
 8
Выноски
 6
CONTINUOUS
 100
AcDbLine
 39
0.030000
 10
254.120000
 20
191.620000
 11
253.120000
 21
191.620000
 0
LINE
 5
5269
330
1E
 100
AcDbEntity
 8
Выноски
 6
CONTINUOUS
 100
AcDbLine
 39
0.030000
 10
254.120000
 20
193.120000
 11
253.120000
 21
193.120000
 0
LINE
 5
5270
330
1E
 100
AcDbEntity
 8
Выноски
 6
CONTINUOUS
 100
AcDbLine
 39
0.030000
 10
254.120000
 20
194.620000
 11
253.120000
 21
194.620000
 0
LINE
 5
5271
330
1E
 100
AcDbEntity
 8
Выноски
 6
CONTINUOUS
 100
AcDbLine
 39
0.030000
 10
254.120000
 20
196.120000
 11
253.120000
 21
196.120000
 0
LINE
 5
5272
330
1E
 100
AcDbEntity
 8
Выноски
 6
CONTINUOUS
 100
AcDbLine
 39
0.030000
 10
254.120000
 20
197.620000
 11
253.120000
 21
197.620000
 0
LINE
 5
5273
330
1E
 100
AcDbEntity
 8
Выноски
 6
CONTINUOUS
 100
AcDbLine
 39
0.030000
 10
254.120000
 20
199.120000
 11
253.120000
 21
199.120000
 0
LINE
 5
5274
330
1E
 100
AcDbEntity
 8
Выноски
 6
CONTINUOUS
 100
AcDbLine
 39
0.030000
 10
254.120000
 20
200.620000
 11
253.120000
 21
200.620000
 0
LINE
 5
5275
330
1E
 100
AcDbEntity
 8
Выноски
 6
CONTINUOUS
 100
AcDbLine
 39
0.030000
 10
254.120000
 20
202.120000
 11
253.120000
 21
202.120000
 0
LINE
 5
5276
330
1E
 100
AcDbEntity
 8
Выноски
 6
CONTINUOUS
 100
AcDbLine
 39
0.030000
 10
254.120000
 20
203.620000
 11
253.120000
 21
203.620000
 0
LINE
 5
5277
330
1E
 100
AcDbEntity
 8
Выноски
 6
CONTINUOUS
 100
AcDbLine
 39
0.030000
 10
254.120000
 20
205.120000
 11
253.120000
 21
205.120000
 0
HATCH
 5
1022
330
1D
 100
AcDbEntity
 8
Выноски
 100
AcDbHatch
 10
0.0
 20
0.0
 30
0.0
 210
0.0
 220
0.0
 230
1.0
 2
SOLID
 70
  1
 71
  0
 91
  1
 92
  3
 72
  0
 73
  1
 93
   3
 10
224.120000
 20
181.120000
 10
225.620000
 20
181.120000
 10
224.120000
 20
182.620000
 97
  0
 75
  0
 76
  2
 98
  0
 0
HATCH
 5
1023
330
1D
 100
AcDbEntity
 8
Выноски
 100
AcDbHatch
 10
0.0
 20
0.0
 30
0.0
 210
0.0
 220
0.0
 230
1.0
 2
SOLID
 70
  1
 71
  0
 91
  1
 92
  3
 72
  0
 73
  1
 93
   3
 10
254.120000
 20
181.120000
 10
252.620000
 20
181.120000
 10
254.120000
 20
182.620000
 97
  0
 75
  0
 76
  2
 98
  0
 0
LINE
 5
5278
330
1E
 100
AcDbEntity
 8
Выноски
 6
CONTINUOUS
 100
AcDbLine
 39
0.030000
 10
225.620000
 20
181.120000
 11
225.620000
 21
182.120000
 0
LINE
 5
5279
330
1E
 100
AcDbEntity
 8
Выноски
 6
CONTINUOUS
 100
AcDbLine
 39
0.030000
 10
227.120000
 20
181.120000
 11
227.120000
 21
182.120000
 0
LINE
 5
5280
330
1E
 100
AcDbEntity
 8
Выноски
 6
CONTINUOUS
 100
AcDbLine
 39
0.030000
 10
228.620000
 20
181.120000
 11
228.620000
 21
182.120000
 0
LINE
 5
5281
330
1E
 100
AcDbEntity
 8
Выноски
 6
CONTINUOUS
 100
AcDbLine
 39
0.030000
 10
230.120000
 20
181.120000
 11
230.120000
 21
182.120000
 0
LINE
 5
5282
330
1E
 100
AcDbEntity
 8
Выноски
 6
CONTINUOUS
 100
AcDbLine
 39
0.030000
 10
231.620000
 20
181.120000
 11
231.620000
 21
182.120000
 0
LINE
 5
5283
330
1E
 100
AcDbEntity
 8
Выноски
 6
CONTINUOUS
 100
AcDbLine
 39
0.030000
 10
233.120000
 20
181.120000
 11
233.120000
 21
182.120000
 0
LINE
 5
5284
330
1E
 100
AcDbEntity
 8
Выноски
 6
CONTINUOUS
 100
AcDbLine
 39
0.030000
 10
234.620000
 20
181.120000
 11
234.620000
 21
182.120000
 0
LINE
 5
5285
330
1E
 100
AcDbEntity
 8
Выноски
 6
CONTINUOUS
 100
AcDbLine
 39
0.030000
 10
236.120000
 20
181.120000
 11
236.120000
 21
182.120000
 0
LINE
 5
5286
330
1E
 100
AcDbEntity
 8
Выноски
 6
CONTINUOUS
 100
AcDbLine
 39
0.030000
 10
237.620000
 20
181.120000
 11
237.620000
 21
182.120000
 0
LINE
 5
5287
330
1E
 100
AcDbEntity
 8
Выноски
 6
CONTINUOUS
 100
AcDbLine
 39
0.030000
 10
239.120000
 20
181.120000
 11
239.120000
 21
182.120000
 0
LINE
 5
5288
330
1E
 100
AcDbEntity
 8
Выноски
 6
CONTINUOUS
 100
AcDbLine
 39
0.030000
 10
240.620000
 20
181.120000
 11
240.620000
 21
182.120000
 0
LINE
 5
5289
330
1E
 100
AcDbEntity
 8
Выноски
 6
CONTINUOUS
 100
AcDbLine
 39
0.030000
 10
242.120000
 20
181.120000
 11
242.120000
 21
182.120000
 0
LINE
 5
5290
330
1E
 100
AcDbEntity
 8
Выноски
 6
CONTINUOUS
 100
AcDbLine
 39
0.030000
 10
243.620000
 20
181.120000
 11
243.620000
 21
182.120000
 0
LINE
 5
5291
330
1E
 100
AcDbEntity
 8
Выноски
 6
CONTINUOUS
 100
AcDbLine
 39
0.030000
 10
245.120000
 20
181.120000
 11
245.120000
 21
182.120000
 0
LINE
 5
5292
330
1E
 100
AcDbEntity
 8
Выноски
 6
CONTINUOUS
 100
AcDbLine
 39
0.030000
 10
246.620000
 20
181.120000
 11
246.620000
 21
182.120000
 0
LINE
 5
5293
330
1E
 100
AcDbEntity
 8
Выноски
 6
CONTINUOUS
 100
AcDbLine
 39
0.030000
 10
248.120000
 20
181.120000
 11
248.120000
 21
182.120000
 0
LINE
 5
5294
330
1E
 100
AcDbEntity
 8
Выноски
 6
CONTINUOUS
 100
AcDbLine
 39
0.030000
 10
249.620000
 20
181.120000
 11
249.620000
 21
182.120000
 0
LINE
 5
5295
330
1E
 100
AcDbEntity
 8
Выноски
 6
CONTINUOUS
 100
AcDbLine
 39
0.030000
 10
251.120000
 20
181.120000
 11
251.120000
 21
182.120000
 0
LINE
 5
5296
330
1E
 100
AcDbEntity
 8
Выноски
 6
CONTINUOUS
 100
AcDbLine
 39
0.030000
 10
252.620000
 20
181.120000
 11
252.620000
 21
182.120000
 0
LINE
 5
5297
330
1E
 100
AcDbEntity
 8
Выноски
 6
CONTINUOUS
 100
AcDbLine
 39
0.030000
 10
254.120000
 20
181.120000
 11
254.120000
 21
182.120000
 0
LINE
 5
5298
330
1E
 100
AcDbEntity
 8
Выноски
 6
CONTINUOUS
 100
AcDbLine
 39
0.030000
 10
222.920000
 20
182.620000
 11
221.920000
 21
182.620000
 0
LINE
 5
5299
330
1E
 100
AcDbEntity
 8
Выноски
 6
CONTINUOUS
 100
AcDbLine
 39
0.030000
 10
222.920000
 20
184.120000
 11
221.920000
 21
184.120000
 0
LINE
 5
5300
330
1E
 100
AcDbEntity
 8
Выноски
 6
CONTINUOUS
 100
AcDbLine
 39
0.030000
 10
222.920000
 20
185.620000
 11
221.920000
 21
185.620000
 0
LINE
 5
5301
330
1E
 100
AcDbEntity
 8
Выноски
 6
CONTINUOUS
 100
AcDbLine
 39
0.030000
 10
222.920000
 20
187.120000
 11
221.920000
 21
187.120000
 0
LINE
 5
5302
330
1E
 100
AcDbEntity
 8
Выноски
 6
CONTINUOUS
 100
AcDbLine
 39
0.030000
 10
222.920000
 20
188.620000
 11
221.920000
 21
188.620000
 0
LINE
 5
5303
330
1E
 100
AcDbEntity
 8
Выноски
 6
CONTINUOUS
 100
AcDbLine
 39
0.030000
 10
222.920000
 20
190.120000
 11
221.920000
 21
190.120000
 0
LINE
 5
5304
330
1E
 100
AcDbEntity
 8
Выноски
 6
CONTINUOUS
 100
AcDbLine
 39
0.030000
 10
222.920000
 20
191.620000
 11
221.920000
 21
191.620000
 0
LINE
 5
5305
330
1E
 100
AcDbEntity
 8
Выноски
 6
CONTINUOUS
 100
AcDbLine
 39
0.030000
 10
222.920000
 20
193.120000
 11
221.920000
 21
193.120000
 0
LINE
 5
5306
330
1E
 100
AcDbEntity
 8
Выноски
 6
CONTINUOUS
 100
AcDbLine
 39
0.030000
 10
222.920000
 20
194.620000
 11
221.920000
 21
194.620000
 0
LINE
 5
5307
330
1E
 100
AcDbEntity
 8
Выноски
 6
CONTINUOUS
 100
AcDbLine
 39
0.030000
 10
222.920000
 20
196.120000
 11
221.920000
 21
196.120000
 0
LINE
 5
5308
330
1E
 100
AcDbEntity
 8
Выноски
 6
CONTINUOUS
 100
AcDbLine
 39
0.030000
 10
222.920000
 20
197.620000
 11
221.920000
 21
197.620000
 0
LINE
 5
5309
330
1E
 100
AcDbEntity
 8
Выноски
 6
CONTINUOUS
 100
AcDbLine
 39
0.030000
 10
222.920000
 20
199.120000
 11
221.920000
 21
199.120000
 0
LINE
 5
5310
330
1E
 100
AcDbEntity
 8
Выноски
 6
CONTINUOUS
 100
AcDbLine
 39
0.030000
 10
222.920000
 20
200.620000
 11
221.920000
 21
200.620000
 0
LINE
 5
5311
330
1E
 100
AcDbEntity
 8
Выноски
 6
CONTINUOUS
 100
AcDbLine
 39
0.030000
 10
222.920000
 20
202.120000
 11
221.920000
 21
202.120000
 0
LINE
 5
5312
330
1E
 100
AcDbEntity
 8
Выноски
 6
CONTINUOUS
 100
AcDbLine
 39
0.030000
 10
222.920000
 20
203.620000
 11
221.920000
 21
203.620000
 0
LINE
 5
5313
330
1E
 100
AcDbEntity
 8
Выноски
 6
CONTINUOUS
 100
AcDbLine
 39
0.030000
 10
222.920000
 20
205.120000
 11
221.920000
 21
205.120000
 0
LINE
 5
5314
330
1E
 100
AcDbEntity
 8
Выноски
 6
CONTINUOUS
 100
AcDbLine
 39
0.030000
 10
255.320000
 20
182.620000
 11
256.320000
 21
182.620000
 0
LINE
 5
5315
330
1E
 100
AcDbEntity
 8
Выноски
 6
CONTINUOUS
 100
AcDbLine
 39
0.030000
 10
255.320000
 20
184.120000
 11
256.320000
 21
184.120000
 0
LINE
 5
5316
330
1E
 100
AcDbEntity
 8
Выноски
 6
CONTINUOUS
 100
AcDbLine
 39
0.030000
 10
255.320000
 20
185.620000
 11
256.320000
 21
185.620000
 0
LINE
 5
5317
330
1E
 100
AcDbEntity
 8
Выноски
 6
CONTINUOUS
 100
AcDbLine
 39
0.030000
 10
255.320000
 20
187.120000
 11
256.320000
 21
187.120000
 0
LINE
 5
5318
330
1E
 100
AcDbEntity
 8
Выноски
 6
CONTINUOUS
 100
AcDbLine
 39
0.030000
 10
255.320000
 20
188.620000
 11
256.320000
 21
188.620000
 0
LINE
 5
5319
330
1E
 100
AcDbEntity
 8
Выноски
 6
CONTINUOUS
 100
AcDbLine
 39
0.030000
 10
255.320000
 20
190.120000
 11
256.320000
 21
190.120000
 0
LINE
 5
5320
330
1E
 100
AcDbEntity
 8
Выноски
 6
CONTINUOUS
 100
AcDbLine
 39
0.030000
 10
255.320000
 20
191.620000
 11
256.320000
 21
191.620000
 0
LINE
 5
5321
330
1E
 100
AcDbEntity
 8
Выноски
 6
CONTINUOUS
 100
AcDbLine
 39
0.030000
 10
255.320000
 20
193.120000
 11
256.320000
 21
193.120000
 0
LINE
 5
5322
330
1E
 100
AcDbEntity
 8
Выноски
 6
CONTINUOUS
 100
AcDbLine
 39
0.030000
 10
255.320000
 20
194.620000
 11
256.320000
 21
194.620000
 0
LINE
 5
5323
330
1E
 100
AcDbEntity
 8
Выноски
 6
CONTINUOUS
 100
AcDbLine
 39
0.030000
 10
255.320000
 20
196.120000
 11
256.320000
 21
196.120000
 0
LINE
 5
5324
330
1E
 100
AcDbEntity
 8
Выноски
 6
CONTINUOUS
 100
AcDbLine
 39
0.030000
 10
255.320000
 20
197.620000
 11
256.320000
 21
197.620000
 0
LINE
 5
5325
330
1E
 100
AcDbEntity
 8
Выноски
 6
CONTINUOUS
 100
AcDbLine
 39
0.030000
 10
255.320000
 20
199.120000
 11
256.320000
 21
199.120000
 0
LINE
 5
5326
330
1E
 100
AcDbEntity
 8
Выноски
 6
CONTINUOUS
 100
AcDbLine
 39
0.030000
 10
255.320000
 20
200.620000
 11
256.320000
 21
200.620000
 0
LINE
 5
5327
330
1E
 100
AcDbEntity
 8
Выноски
 6
CONTINUOUS
 100
AcDbLine
 39
0.030000
 10
255.320000
 20
202.120000
 11
256.320000
 21
202.120000
 0
LINE
 5
5328
330
1E
 100
AcDbEntity
 8
Выноски
 6
CONTINUOUS
 100
AcDbLine
 39
0.030000
 10
255.320000
 20
203.620000
 11
256.320000
 21
203.620000
 0
LINE
 5
5329
330
1E
 100
AcDbEntity
 8
Выноски
 6
CONTINUOUS
 100
AcDbLine
 39
0.030000
 10
255.320000
 20
205.120000
 11
256.320000
 21
205.120000
 0
HATCH
 5
1024
330
1D
 100
AcDbEntity
 8
Выноски
 100
AcDbHatch
 10
0.0
 20
0.0
 30
0.0
 210
0.0
 220
0.0
 230
1.0
 2
SOLID
 70
  1
 71
  0
 91
  1
 92
  3
 72
  0
 73
  1
 93
   3
 10
222.920000
 20
181.120000
 10
221.420000
 20
181.120000
 10
222.920000
 20
182.620000
 97
  0
 75
  0
 76
  2
 98
  0
 0
HATCH
 5
1025
330
1D
 100
AcDbEntity
 8
Выноски
 100
AcDbHatch
 10
0.0
 20
0.0
 30
0.0
 210
0.0
 220
0.0
 230
1.0
 2
SOLID
 70
  1
 71
  0
 91
  1
 92
  3
 72
  0
 73
  1
 93
   3
 10
255.320000
 20
181.120000
 10
256.820000
 20
181.120000
 10
255.320000
 20
182.620000
 97
  0
 75
  0
 76
  2
 98
  0
 0
LINE
 5
5330
330
1E
 100
AcDbEntity
 8
Выноски
 6
CONTINUOUS
 100
AcDbLine
 39
0.030000
 10
213.920000
 20
181.120000
 11
213.920000
 21
182.120000
 0
LINE
 5
5331
330
1E
 100
AcDbEntity
 8
Выноски
 6
CONTINUOUS
 100
AcDbLine
 39
0.030000
 10
215.420000
 20
181.120000
 11
215.420000
 21
182.120000
 0
LINE
 5
5332
330
1E
 100
AcDbEntity
 8
Выноски
 6
CONTINUOUS
 100
AcDbLine
 39
0.030000
 10
216.920000
 20
181.120000
 11
216.920000
 21
182.120000
 0
LINE
 5
5333
330
1E
 100
AcDbEntity
 8
Выноски
 6
CONTINUOUS
 100
AcDbLine
 39
0.030000
 10
218.420000
 20
181.120000
 11
218.420000
 21
182.120000
 0
LINE
 5
5334
330
1E
 100
AcDbEntity
 8
Выноски
 6
CONTINUOUS
 100
AcDbLine
 39
0.030000
 10
219.920000
 20
181.120000
 11
219.920000
 21
182.120000
 0
LINE
 5
5335
330
1E
 100
AcDbEntity
 8
Выноски
 6
CONTINUOUS
 100
AcDbLine
 39
0.030000
 10
221.420000
 20
181.120000
 11
221.420000
 21
182.120000
 0
LINE
 5
5336
330
1E
 100
AcDbEntity
 8
Выноски
 6
CONTINUOUS
 100
AcDbLine
 39
0.030000
 10
256.320000
 20
181.120000
 11
256.320000
 21
182.120000
 0
LINE
 5
5337
330
1E
 100
AcDbEntity
 8
Выноски
 6
CONTINUOUS
 100
AcDbLine
 39
0.030000
 10
257.820000
 20
181.120000
 11
257.820000
 21
182.120000
 0
LINE
 5
5338
330
1E
 100
AcDbEntity
 8
Выноски
 6
CONTINUOUS
 100
AcDbLine
 39
0.030000
 10
259.320000
 20
181.120000
 11
259.320000
 21
182.120000
 0
LINE
 5
5339
330
1E
 100
AcDbEntity
 8
Выноски
 6
CONTINUOUS
 100
AcDbLine
 39
0.030000
 10
260.820000
 20
181.120000
 11
260.820000
 21
182.120000
 0
LINE
 5
5340
330
1E
 100
AcDbEntity
 8
Выноски
 6
CONTINUOUS
 100
AcDbLine
 39
0.030000
 10
262.320000
 20
181.120000
 11
262.320000
 21
182.120000
 0
LINE
 5
5341
330
1E
 100
AcDbEntity
 8
Выноски
 6
CONTINUOUS
 100
AcDbLine
 39
0.030000
 10
263.820000
 20
181.120000
 11
263.820000
 21
182.120000
 0
HATCH
 5
1026
330
1D
 100
AcDbEntity
 8
Выноски
 100
AcDbHatch
 10
0.0
 20
0.0
 30
0.0
 210
0.0
 220
0.0
 230
1.0
 2
SOLID
 70
  1
 71
  0
 91
  1
 92
  3
 72
  0
 73
  1
 93
   3
 10
224.120000
 20
188.320000
 10
228.005730
 20
191.466602
 10
226.241320
 20
190.441320
 97
  0
 75
  0
 76
  2
 98
  0
 0
LINE
 5
5342
330
1E
 100
AcDbEntity
 8
Выноски
 6
CONTINUOUS
 100
AcDbLine
 39
0.030000
 10
224.120000
 20
188.320000
 11
229.120000
 21
193.320000
 0
LINE
 5
5343
330
1E
 100
AcDbEntity
 8
Выноски
 6
CONTINUOUS
 100
AcDbLine
 39
0.030000
 10
229.120000
 20
193.320000
 11
234.120000
 21
193.320000
 0
TEXT
 5
2518
330
1E
 100
AcDbEntity
 8
Выноски
 48
50.0
 100
AcDbText
 10
231.620000
 20
193.820000
 40
2.500000
 1
5
 50
0.000000
 41
0.700000
 51
15.000000
 7
SCADOFFICE
 72
  1
 11
231.620000
 21
193.820000
 100
AcDbText
 0
DIMENSION
 5
4003
330
1E
 100
AcDbEntity
 8
Размеры
 100
AcDbDimension
 2
*D3
 10
204.870000
 20
181.120000
 30
0.0
 11
204.870000
 21
193.120000
 31
0.0
 70
  0
 71
  5
 42
240
 3
SCADOFFICE_DIM
 100
AcDbAlignedDimension
 13
212.870000
 23
205.120000
 33
0.0
 14
212.870000
 24
181.120000
 34
0.0
 50
90
 100
AcDbRotatedDimension
 0
DIMENSION
 5
4004
330
1E
 100
AcDbEntity
 8
Размеры
 100
AcDbDimension
 2
*D4
 10
212.920000
 20
171.120000
 30
0.0
 11
218.520000
 21
171.120000
 31
0.0
 70
  0
 71
  5
 42
100
 3
SCADOFFICE_DIM
 100
AcDbAlignedDimension
 13
222.920000
 23
179.120000
 33
0.0
 14
212.920000
 24
179.120000
 34
0.0
 50
0
 100
AcDbRotatedDimension
 0
LINE
 5
5344
330
1E
 100
AcDbEntity
 8
Профиль
 6
CONTINUOUS
 100
AcDbLine
 39
0.030000
 10
87.170000
 20
55.240000
 11
87.170000
 21
85.240000
 0
LINE
 5
5345
330
1E
 100
AcDbEntity
 8
Профиль
 6
CONTINUOUS
 100
AcDbLine
 39
0.030000
 10
87.170000
 20
85.240000
 11
88.720000
 21
85.240000
 0
LINE
 5
5346
330
1E
 100
AcDbEntity
 8
Профиль
 6
CONTINUOUS
 100
AcDbLine
 39
0.030000
 10
88.720000
 20
85.240000
 11
88.720000
 21
72.540000
 0
ARC
 5
1027
330
1E
 100
AcDbEntity
 8
Профиль
 6
CONTINUOUS
 48
1.0
 100
AcDbCircle
 39
0.030000
 10
90.520000
 20
72.540000
 40
1.800000
 100
AcDbArc
 50
180.000000
 51
269.900000
 0
LINE
 5
5347
330
1E
 100
AcDbEntity
 8
Профиль
 6
CONTINUOUS
 100
AcDbLine
 39
0.030000
 10
90.520000
 20
70.740000
 11
113.820000
 21
70.740000
 0
ARC
 5
1028
330
1E
 100
AcDbEntity
 8
Профиль
 6
CONTINUOUS
 48
1.0
 100
AcDbCircle
 39
0.030000
 10
113.820000
 20
72.540000
 40
1.800000
 100
AcDbArc
 50
270.000000
 51
359.900000
 0
LINE
 5
5348
330
1E
 100
AcDbEntity
 8
Профиль
 6
CONTINUOUS
 100
AcDbLine
 39
0.030000
 10
115.620000
 20
72.540000
 11
115.620000
 21
85.240000
 0
LINE
 5
5349
330
1E
 100
AcDbEntity
 8
Профиль
 6
CONTINUOUS
 100
AcDbLine
 39
0.030000
 10
115.620000
 20
85.240000
 11
117.170000
 21
85.240000
 0
LINE
 5
5350
330
1E
 100
AcDbEntity
 8
Профиль
 6
CONTINUOUS
 100
AcDbLine
 39
0.030000
 10
117.170000
 20
85.240000
 11
117.170000
 21
55.240000
 0
LINE
 5
5351
330
1E
 100
AcDbEntity
 8
Профиль
 6
CONTINUOUS
 100
AcDbLine
 39
0.030000
 10
117.170000
 20
55.240000
 11
115.620000
 21
55.240000
 0
LINE
 5
5352
330
1E
 100
AcDbEntity
 8
Профиль
 6
CONTINUOUS
 100
AcDbLine
 39
0.030000
 10
115.620000
 20
55.240000
 11
115.620000
 21
67.940000
 0
ARC
 5
1029
330
1E
 100
AcDbEntity
 8
Профиль
 6
CONTINUOUS
 48
1.0
 100
AcDbCircle
 39
0.030000
 10
113.820000
 20
67.940000
 40
1.800000
 100
AcDbArc
 50
0.000000
 51
89.900000
 0
LINE
 5
5353
330
1E
 100
AcDbEntity
 8
Профиль
 6
CONTINUOUS
 100
AcDbLine
 39
0.030000
 10
113.820000
 20
69.740000
 11
90.520000
 21
69.740000
 0
ARC
 5
1030
330
1E
 100
AcDbEntity
 8
Профиль
 6
CONTINUOUS
 48
1.0
 100
AcDbCircle
 39
0.030000
 10
90.520000
 20
67.940000
 40
1.800000
 100
AcDbArc
 50
90.000000
 51
179.900000
 0
LINE
 5
5354
330
1E
 100
AcDbEntity
 8
Профиль
 6
CONTINUOUS
 100
AcDbLine
 39
0.030000
 10
88.720000
 20
67.940000
 11
88.720000
 21
55.240000
 0
LINE
 5
5355
330
1E
 100
AcDbEntity
 8
Профиль
 6
CONTINUOUS
 100
AcDbLine
 39
0.030000
 10
88.720000
 20
55.240000
 11
87.170000
 21
55.240000
 0
LINE
 5
5356
330
1E
 100
AcDbEntity
 8
Узел
 6
CONTINUOUS
 100
AcDbLine
 39
0.030000
 10
90.520000
 20
69.740000
 11
90.520000
 21
68.740000
 0
LINE
 5
5357
330
1E
 100
AcDbEntity
 8
Узел
 6
CONTINUOUS
 100
AcDbLine
 39
0.030000
 10
90.520000
 20
70.740000
 11
90.520000
 21
71.740000
 0
LINE
 5
5358
330
1E
 100
AcDbEntity
 8
Узел
 6
CONTINUOUS
 100
AcDbLine
 39
0.030000
 10
92.020000
 20
69.740000
 11
92.020000
 21
68.740000
 0
LINE
 5
5359
330
1E
 100
AcDbEntity
 8
Узел
 6
CONTINUOUS
 100
AcDbLine
 39
0.030000
 10
92.020000
 20
70.740000
 11
92.020000
 21
71.740000
 0
LINE
 5
5360
330
1E
 100
AcDbEntity
 8
Узел
 6
CONTINUOUS
 100
AcDbLine
 39
0.030000
 10
93.520000
 20
69.740000
 11
93.520000
 21
68.740000
 0
LINE
 5
5361
330
1E
 100
AcDbEntity
 8
Узел
 6
CONTINUOUS
 100
AcDbLine
 39
0.030000
 10
93.520000
 20
70.740000
 11
93.520000
 21
71.740000
 0
LINE
 5
5362
330
1E
 100
AcDbEntity
 8
Узел
 6
CONTINUOUS
 100
AcDbLine
 39
0.030000
 10
95.020000
 20
69.740000
 11
95.020000
 21
68.740000
 0
LINE
 5
5363
330
1E
 100
AcDbEntity
 8
Узел
 6
CONTINUOUS
 100
AcDbLine
 39
0.030000
 10
95.020000
 20
70.740000
 11
95.020000
 21
71.740000
 0
LINE
 5
5364
330
1E
 100
AcDbEntity
 8
Узел
 6
CONTINUOUS
 100
AcDbLine
 39
0.030000
 10
96.520000
 20
69.740000
 11
96.520000
 21
68.740000
 0
LINE
 5
5365
330
1E
 100
AcDbEntity
 8
Узел
 6
CONTINUOUS
 100
AcDbLine
 39
0.030000
 10
96.520000
 20
70.740000
 11
96.520000
 21
71.740000
 0
LINE
 5
5366
330
1E
 100
AcDbEntity
 8
Узел
 6
CONTINUOUS
 100
AcDbLine
 39
0.030000
 10
98.020000
 20
69.740000
 11
98.020000
 21
68.740000
 0
LINE
 5
5367
330
1E
 100
AcDbEntity
 8
Узел
 6
CONTINUOUS
 100
AcDbLine
 39
0.030000
 10
98.020000
 20
70.740000
 11
98.020000
 21
71.740000
 0
LINE
 5
5368
330
1E
 100
AcDbEntity
 8
Узел
 6
CONTINUOUS
 100
AcDbLine
 39
0.030000
 10
99.520000
 20
69.740000
 11
99.520000
 21
68.740000
 0
LINE
 5
5369
330
1E
 100
AcDbEntity
 8
Узел
 6
CONTINUOUS
 100
AcDbLine
 39
0.030000
 10
99.520000
 20
70.740000
 11
99.520000
 21
71.740000
 0
LINE
 5
5370
330
1E
 100
AcDbEntity
 8
Узел
 6
CONTINUOUS
 100
AcDbLine
 39
0.030000
 10
101.020000
 20
69.740000
 11
101.020000
 21
68.740000
 0
LINE
 5
5371
330
1E
 100
AcDbEntity
 8
Узел
 6
CONTINUOUS
 100
AcDbLine
 39
0.030000
 10
101.020000
 20
70.740000
 11
101.020000
 21
71.740000
 0
LINE
 5
5372
330
1E
 100
AcDbEntity
 8
Узел
 6
CONTINUOUS
 100
AcDbLine
 39
0.030000
 10
102.520000
 20
69.740000
 11
102.520000
 21
68.740000
 0
LINE
 5
5373
330
1E
 100
AcDbEntity
 8
Узел
 6
CONTINUOUS
 100
AcDbLine
 39
0.030000
 10
102.520000
 20
70.740000
 11
102.520000
 21
71.740000
 0
LINE
 5
5374
330
1E
 100
AcDbEntity
 8
Узел
 6
CONTINUOUS
 100
AcDbLine
 39
0.030000
 10
104.020000
 20
69.740000
 11
104.020000
 21
68.740000
 0
LINE
 5
5375
330
1E
 100
AcDbEntity
 8
Узел
 6
CONTINUOUS
 100
AcDbLine
 39
0.030000
 10
104.020000
 20
70.740000
 11
104.020000
 21
71.740000
 0
LINE
 5
5376
330
1E
 100
AcDbEntity
 8
Узел
 6
CONTINUOUS
 100
AcDbLine
 39
0.030000
 10
105.520000
 20
69.740000
 11
105.520000
 21
68.740000
 0
LINE
 5
5377
330
1E
 100
AcDbEntity
 8
Узел
 6
CONTINUOUS
 100
AcDbLine
 39
0.030000
 10
105.520000
 20
70.740000
 11
105.520000
 21
71.740000
 0
LINE
 5
5378
330
1E
 100
AcDbEntity
 8
Узел
 6
CONTINUOUS
 100
AcDbLine
 39
0.030000
 10
107.020000
 20
69.740000
 11
107.020000
 21
68.740000
 0
LINE
 5
5379
330
1E
 100
AcDbEntity
 8
Узел
 6
CONTINUOUS
 100
AcDbLine
 39
0.030000
 10
107.020000
 20
70.740000
 11
107.020000
 21
71.740000
 0
LINE
 5
5380
330
1E
 100
AcDbEntity
 8
Узел
 6
CONTINUOUS
 100
AcDbLine
 39
0.030000
 10
108.520000
 20
69.740000
 11
108.520000
 21
68.740000
 0
LINE
 5
5381
330
1E
 100
AcDbEntity
 8
Узел
 6
CONTINUOUS
 100
AcDbLine
 39
0.030000
 10
108.520000
 20
70.740000
 11
108.520000
 21
71.740000
 0
LINE
 5
5382
330
1E
 100
AcDbEntity
 8
Узел
 6
CONTINUOUS
 100
AcDbLine
 39
0.030000
 10
110.020000
 20
69.740000
 11
110.020000
 21
68.740000
 0
LINE
 5
5383
330
1E
 100
AcDbEntity
 8
Узел
 6
CONTINUOUS
 100
AcDbLine
 39
0.030000
 10
110.020000
 20
70.740000
 11
110.020000
 21
71.740000
 0
LINE
 5
5384
330
1E
 100
AcDbEntity
 8
Узел
 6
CONTINUOUS
 100
AcDbLine
 39
0.030000
 10
111.520000
 20
69.740000
 11
111.520000
 21
68.740000
 0
LINE
 5
5385
330
1E
 100
AcDbEntity
 8
Узел
 6
CONTINUOUS
 100
AcDbLine
 39
0.030000
 10
111.520000
 20
70.740000
 11
111.520000
 21
71.740000
 0
LINE
 5
5386
330
1E
 100
AcDbEntity
 8
Узел
 6
CONTINUOUS
 100
AcDbLine
 39
0.030000
 10
113.020000
 20
69.740000
 11
113.020000
 21
68.740000
 0
LINE
 5
5387
330
1E
 100
AcDbEntity
 8
Узел
 6
CONTINUOUS
 100
AcDbLine
 39
0.030000
 10
113.020000
 20
70.740000
 11
113.020000
 21
71.740000
 0
LINE
 5
5388
330
1E
 100
AcDbEntity
 8
Узел
 6
CONTINUOUS
 100
AcDbLine
 39
0.030000
 10
115.620000
 20
55.240000
 11
114.620000
 21
55.240000
 0
LINE
 5
5389
330
1E
 100
AcDbEntity
 8
Узел
 6
CONTINUOUS
 100
AcDbLine
 39
0.030000
 10
115.620000
 20
85.240000
 11
114.620000
 21
85.240000
 0
LINE
 5
5390
330
1E
 100
AcDbEntity
 8
Узел
 6
CONTINUOUS
 100
AcDbLine
 39
0.030000
 10
88.720000
 20
55.240000
 11
89.720000
 21
55.240000
 0
LINE
 5
5391
330
1E
 100
AcDbEntity
 8
Узел
 6
CONTINUOUS
 100
AcDbLine
 39
0.030000
 10
88.720000
 20
85.240000
 11
89.720000
 21
85.240000
 0
LINE
 5
5392
330
1E
 100
AcDbEntity
 8
Узел
 6
CONTINUOUS
 100
AcDbLine
 39
0.030000
 10
115.620000
 20
56.740000
 11
114.620000
 21
56.740000
 0
LINE
 5
5393
330
1E
 100
AcDbEntity
 8
Узел
 6
CONTINUOUS
 100
AcDbLine
 39
0.030000
 10
115.620000
 20
83.740000
 11
114.620000
 21
83.740000
 0
LINE
 5
5394
330
1E
 100
AcDbEntity
 8
Узел
 6
CONTINUOUS
 100
AcDbLine
 39
0.030000
 10
88.720000
 20
56.740000
 11
89.720000
 21
56.740000
 0
LINE
 5
5395
330
1E
 100
AcDbEntity
 8
Узел
 6
CONTINUOUS
 100
AcDbLine
 39
0.030000
 10
88.720000
 20
83.740000
 11
89.720000
 21
83.740000
 0
LINE
 5
5396
330
1E
 100
AcDbEntity
 8
Узел
 6
CONTINUOUS
 100
AcDbLine
 39
0.030000
 10
115.620000
 20
58.240000
 11
114.620000
 21
58.240000
 0
LINE
 5
5397
330
1E
 100
AcDbEntity
 8
Узел
 6
CONTINUOUS
 100
AcDbLine
 39
0.030000
 10
115.620000
 20
82.240000
 11
114.620000
 21
82.240000
 0
LINE
 5
5398
330
1E
 100
AcDbEntity
 8
Узел
 6
CONTINUOUS
 100
AcDbLine
 39
0.030000
 10
88.720000
 20
58.240000
 11
89.720000
 21
58.240000
 0
LINE
 5
5399
330
1E
 100
AcDbEntity
 8
Узел
 6
CONTINUOUS
 100
AcDbLine
 39
0.030000
 10
88.720000
 20
82.240000
 11
89.720000
 21
82.240000
 0
LINE
 5
5400
330
1E
 100
AcDbEntity
 8
Узел
 6
CONTINUOUS
 100
AcDbLine
 39
0.030000
 10
115.620000
 20
59.740000
 11
114.620000
 21
59.740000
 0
LINE
 5
5401
330
1E
 100
AcDbEntity
 8
Узел
 6
CONTINUOUS
 100
AcDbLine
 39
0.030000
 10
115.620000
 20
80.740000
 11
114.620000
 21
80.740000
 0
LINE
 5
5402
330
1E
 100
AcDbEntity
 8
Узел
 6
CONTINUOUS
 100
AcDbLine
 39
0.030000
 10
88.720000
 20
59.740000
 11
89.720000
 21
59.740000
 0
LINE
 5
5403
330
1E
 100
AcDbEntity
 8
Узел
 6
CONTINUOUS
 100
AcDbLine
 39
0.030000
 10
88.720000
 20
80.740000
 11
89.720000
 21
80.740000
 0
LINE
 5
5404
330
1E
 100
AcDbEntity
 8
Узел
 6
CONTINUOUS
 100
AcDbLine
 39
0.030000
 10
115.620000
 20
61.240000
 11
114.620000
 21
61.240000
 0
LINE
 5
5405
330
1E
 100
AcDbEntity
 8
Узел
 6
CONTINUOUS
 100
AcDbLine
 39
0.030000
 10
115.620000
 20
79.240000
 11
114.620000
 21
79.240000
 0
LINE
 5
5406
330
1E
 100
AcDbEntity
 8
Узел
 6
CONTINUOUS
 100
AcDbLine
 39
0.030000
 10
88.720000
 20
61.240000
 11
89.720000
 21
61.240000
 0
LINE
 5
5407
330
1E
 100
AcDbEntity
 8
Узел
 6
CONTINUOUS
 100
AcDbLine
 39
0.030000
 10
88.720000
 20
79.240000
 11
89.720000
 21
79.240000
 0
LINE
 5
5408
330
1E
 100
AcDbEntity
 8
Узел
 6
CONTINUOUS
 100
AcDbLine
 39
0.030000
 10
115.620000
 20
62.740000
 11
114.620000
 21
62.740000
 0
LINE
 5
5409
330
1E
 100
AcDbEntity
 8
Узел
 6
CONTINUOUS
 100
AcDbLine
 39
0.030000
 10
115.620000
 20
77.740000
 11
114.620000
 21
77.740000
 0
LINE
 5
5410
330
1E
 100
AcDbEntity
 8
Узел
 6
CONTINUOUS
 100
AcDbLine
 39
0.030000
 10
88.720000
 20
62.740000
 11
89.720000
 21
62.740000
 0
LINE
 5
5411
330
1E
 100
AcDbEntity
 8
Узел
 6
CONTINUOUS
 100
AcDbLine
 39
0.030000
 10
88.720000
 20
77.740000
 11
89.720000
 21
77.740000
 0
LINE
 5
5412
330
1E
 100
AcDbEntity
 8
Узел
 6
CONTINUOUS
 100
AcDbLine
 39
0.030000
 10
115.620000
 20
64.240000
 11
114.620000
 21
64.240000
 0
LINE
 5
5413
330
1E
 100
AcDbEntity
 8
Узел
 6
CONTINUOUS
 100
AcDbLine
 39
0.030000
 10
115.620000
 20
76.240000
 11
114.620000
 21
76.240000
 0
LINE
 5
5414
330
1E
 100
AcDbEntity
 8
Узел
 6
CONTINUOUS
 100
AcDbLine
 39
0.030000
 10
88.720000
 20
64.240000
 11
89.720000
 21
64.240000
 0
LINE
 5
5415
330
1E
 100
AcDbEntity
 8
Узел
 6
CONTINUOUS
 100
AcDbLine
 39
0.030000
 10
88.720000
 20
76.240000
 11
89.720000
 21
76.240000
 0
LINE
 5
5416
330
1E
 100
AcDbEntity
 8
Узел
 6
CONTINUOUS
 100
AcDbLine
 39
0.030000
 10
115.620000
 20
65.740000
 11
114.620000
 21
65.740000
 0
LINE
 5
5417
330
1E
 100
AcDbEntity
 8
Узел
 6
CONTINUOUS
 100
AcDbLine
 39
0.030000
 10
115.620000
 20
74.740000
 11
114.620000
 21
74.740000
 0
LINE
 5
5418
330
1E
 100
AcDbEntity
 8
Узел
 6
CONTINUOUS
 100
AcDbLine
 39
0.030000
 10
88.720000
 20
65.740000
 11
89.720000
 21
65.740000
 0
LINE
 5
5419
330
1E
 100
AcDbEntity
 8
Узел
 6
CONTINUOUS
 100
AcDbLine
 39
0.030000
 10
88.720000
 20
74.740000
 11
89.720000
 21
74.740000
 0
LINE
 5
5420
330
1E
 100
AcDbEntity
 8
Узел
 6
CONTINUOUS
 100
AcDbLine
 39
0.030000
 10
115.620000
 20
67.240000
 11
114.620000
 21
67.240000
 0
LINE
 5
5421
330
1E
 100
AcDbEntity
 8
Узел
 6
CONTINUOUS
 100
AcDbLine
 39
0.030000
 10
115.620000
 20
73.240000
 11
114.620000
 21
73.240000
 0
LINE
 5
5422
330
1E
 100
AcDbEntity
 8
Узел
 6
CONTINUOUS
 100
AcDbLine
 39
0.030000
 10
88.720000
 20
67.240000
 11
89.720000
 21
67.240000
 0
LINE
 5
5423
330
1E
 100
AcDbEntity
 8
Узел
 6
CONTINUOUS
 100
AcDbLine
 39
0.030000
 10
88.720000
 20
73.240000
 11
89.720000
 21
73.240000
 0
LINE
 5
5424
330
1E
 100
AcDbEntity
 8
Узел
 6
CONTINUOUS
 100
AcDbLine
 39
0.030000
 10
87.170000
 20
56.240000
 11
86.170000
 21
56.240000
 0
LINE
 5
5425
330
1E
 100
AcDbEntity
 8
Узел
 6
CONTINUOUS
 100
AcDbLine
 39
0.030000
 10
117.170000
 20
56.240000
 11
118.170000
 21
56.240000
 0
LINE
 5
5426
330
1E
 100
AcDbEntity
 8
Узел
 6
CONTINUOUS
 100
AcDbLine
 39
0.030000
 10
87.170000
 20
57.740000
 11
86.170000
 21
57.740000
 0
LINE
 5
5427
330
1E
 100
AcDbEntity
 8
Узел
 6
CONTINUOUS
 100
AcDbLine
 39
0.030000
 10
117.170000
 20
57.740000
 11
118.170000
 21
57.740000
 0
LINE
 5
5428
330
1E
 100
AcDbEntity
 8
Узел
 6
CONTINUOUS
 100
AcDbLine
 39
0.030000
 10
87.170000
 20
59.240000
 11
86.170000
 21
59.240000
 0
LINE
 5
5429
330
1E
 100
AcDbEntity
 8
Узел
 6
CONTINUOUS
 100
AcDbLine
 39
0.030000
 10
117.170000
 20
59.240000
 11
118.170000
 21
59.240000
 0
LINE
 5
5430
330
1E
 100
AcDbEntity
 8
Узел
 6
CONTINUOUS
 100
AcDbLine
 39
0.030000
 10
87.170000
 20
60.740000
 11
86.170000
 21
60.740000
 0
LINE
 5
5431
330
1E
 100
AcDbEntity
 8
Узел
 6
CONTINUOUS
 100
AcDbLine
 39
0.030000
 10
117.170000
 20
60.740000
 11
118.170000
 21
60.740000
 0
LINE
 5
5432
330
1E
 100
AcDbEntity
 8
Узел
 6
CONTINUOUS
 100
AcDbLine
 39
0.030000
 10
87.170000
 20
62.240000
 11
86.170000
 21
62.240000
 0
LINE
 5
5433
330
1E
 100
AcDbEntity
 8
Узел
 6
CONTINUOUS
 100
AcDbLine
 39
0.030000
 10
117.170000
 20
62.240000
 11
118.170000
 21
62.240000
 0
LINE
 5
5434
330
1E
 100
AcDbEntity
 8
Узел
 6
CONTINUOUS
 100
AcDbLine
 39
0.030000
 10
87.170000
 20
63.740000
 11
86.170000
 21
63.740000
 0
LINE
 5
5435
330
1E
 100
AcDbEntity
 8
Узел
 6
CONTINUOUS
 100
AcDbLine
 39
0.030000
 10
117.170000
 20
63.740000
 11
118.170000
 21
63.740000
 0
LINE
 5
5436
330
1E
 100
AcDbEntity
 8
Узел
 6
CONTINUOUS
 100
AcDbLine
 39
0.030000
 10
87.170000
 20
65.240000
 11
86.170000
 21
65.240000
 0
LINE
 5
5437
330
1E
 100
AcDbEntity
 8
Узел
 6
CONTINUOUS
 100
AcDbLine
 39
0.030000
 10
117.170000
 20
65.240000
 11
118.170000
 21
65.240000
 0
LINE
 5
5438
330
1E
 100
AcDbEntity
 8
Узел
 6
CONTINUOUS
 100
AcDbLine
 39
0.030000
 10
87.170000
 20
66.740000
 11
86.170000
 21
66.740000
 0
LINE
 5
5439
330
1E
 100
AcDbEntity
 8
Узел
 6
CONTINUOUS
 100
AcDbLine
 39
0.030000
 10
117.170000
 20
66.740000
 11
118.170000
 21
66.740000
 0
LINE
 5
5440
330
1E
 100
AcDbEntity
 8
Узел
 6
CONTINUOUS
 100
AcDbLine
 39
0.030000
 10
87.170000
 20
68.240000
 11
86.170000
 21
68.240000
 0
LINE
 5
5441
330
1E
 100
AcDbEntity
 8
Узел
 6
CONTINUOUS
 100
AcDbLine
 39
0.030000
 10
117.170000
 20
68.240000
 11
118.170000
 21
68.240000
 0
LINE
 5
5442
330
1E
 100
AcDbEntity
 8
Узел
 6
CONTINUOUS
 100
AcDbLine
 39
0.030000
 10
87.170000
 20
69.740000
 11
86.170000
 21
69.740000
 0
LINE
 5
5443
330
1E
 100
AcDbEntity
 8
Узел
 6
CONTINUOUS
 100
AcDbLine
 39
0.030000
 10
117.170000
 20
69.740000
 11
118.170000
 21
69.740000
 0
LINE
 5
5444
330
1E
 100
AcDbEntity
 8
Узел
 6
CONTINUOUS
 100
AcDbLine
 39
0.030000
 10
87.170000
 20
71.240000
 11
86.170000
 21
71.240000
 0
LINE
 5
5445
330
1E
 100
AcDbEntity
 8
Узел
 6
CONTINUOUS
 100
AcDbLine
 39
0.030000
 10
117.170000
 20
71.240000
 11
118.170000
 21
71.240000
 0
LINE
 5
5446
330
1E
 100
AcDbEntity
 8
Узел
 6
CONTINUOUS
 100
AcDbLine
 39
0.030000
 10
87.170000
 20
72.740000
 11
86.170000
 21
72.740000
 0
LINE
 5
5447
330
1E
 100
AcDbEntity
 8
Узел
 6
CONTINUOUS
 100
AcDbLine
 39
0.030000
 10
117.170000
 20
72.740000
 11
118.170000
 21
72.740000
 0
LINE
 5
5448
330
1E
 100
AcDbEntity
 8
Узел
 6
CONTINUOUS
 100
AcDbLine
 39
0.030000
 10
87.170000
 20
74.240000
 11
86.170000
 21
74.240000
 0
LINE
 5
5449
330
1E
 100
AcDbEntity
 8
Узел
 6
CONTINUOUS
 100
AcDbLine
 39
0.030000
 10
117.170000
 20
74.240000
 11
118.170000
 21
74.240000
 0
LINE
 5
5450
330
1E
 100
AcDbEntity
 8
Узел
 6
CONTINUOUS
 100
AcDbLine
 39
0.030000
 10
87.170000
 20
75.740000
 11
86.170000
 21
75.740000
 0
LINE
 5
5451
330
1E
 100
AcDbEntity
 8
Узел
 6
CONTINUOUS
 100
AcDbLine
 39
0.030000
 10
117.170000
 20
75.740000
 11
118.170000
 21
75.740000
 0
LINE
 5
5452
330
1E
 100
AcDbEntity
 8
Узел
 6
CONTINUOUS
 100
AcDbLine
 39
0.030000
 10
87.170000
 20
77.240000
 11
86.170000
 21
77.240000
 0
LINE
 5
5453
330
1E
 100
AcDbEntity
 8
Узел
 6
CONTINUOUS
 100
AcDbLine
 39
0.030000
 10
117.170000
 20
77.240000
 11
118.170000
 21
77.240000
 0
LINE
 5
5454
330
1E
 100
AcDbEntity
 8
Узел
 6
CONTINUOUS
 100
AcDbLine
 39
0.030000
 10
87.170000
 20
78.740000
 11
86.170000
 21
78.740000
 0
LINE
 5
5455
330
1E
 100
AcDbEntity
 8
Узел
 6
CONTINUOUS
 100
AcDbLine
 39
0.030000
 10
117.170000
 20
78.740000
 11
118.170000
 21
78.740000
 0
LINE
 5
5456
330
1E
 100
AcDbEntity
 8
Узел
 6
CONTINUOUS
 100
AcDbLine
 39
0.030000
 10
87.170000
 20
80.240000
 11
86.170000
 21
80.240000
 0
LINE
 5
5457
330
1E
 100
AcDbEntity
 8
Узел
 6
CONTINUOUS
 100
AcDbLine
 39
0.030000
 10
117.170000
 20
80.240000
 11
118.170000
 21
80.240000
 0
LINE
 5
5458
330
1E
 100
AcDbEntity
 8
Узел
 6
CONTINUOUS
 100
AcDbLine
 39
0.030000
 10
87.170000
 20
81.740000
 11
86.170000
 21
81.740000
 0
LINE
 5
5459
330
1E
 100
AcDbEntity
 8
Узел
 6
CONTINUOUS
 100
AcDbLine
 39
0.030000
 10
117.170000
 20
81.740000
 11
118.170000
 21
81.740000
 0
LINE
 5
5460
330
1E
 100
AcDbEntity
 8
Узел
 6
CONTINUOUS
 100
AcDbLine
 39
0.030000
 10
87.170000
 20
83.240000
 11
86.170000
 21
83.240000
 0
LINE
 5
5461
330
1E
 100
AcDbEntity
 8
Узел
 6
CONTINUOUS
 100
AcDbLine
 39
0.030000
 10
117.170000
 20
83.240000
 11
118.170000
 21
83.240000
 0
LINE
 5
5462
330
1E
 100
AcDbEntity
 8
Узел
 6
CONTINUOUS
 100
AcDbLine
 39
0.030000
 10
87.170000
 20
84.740000
 11
86.170000
 21
84.740000
 0
LINE
 5
5463
330
1E
 100
AcDbEntity
 8
Узел
 6
CONTINUOUS
 100
AcDbLine
 39
0.030000
 10
117.170000
 20
84.740000
 11
118.170000
 21
84.740000
 0
LINE
 5
5464
330
1E
 100
AcDbEntity
 8
Узел
 6
CONTINUOUS
 100
AcDbLine
 39
0.030000
 10
90.520000
 20
69.740000
 11
90.520000
 21
68.740000
 0
LINE
 5
5465
330
1E
 100
AcDbEntity
 8
Узел
 6
CONTINUOUS
 100
AcDbLine
 39
0.030000
 10
90.520000
 20
70.740000
 11
90.520000
 21
71.740000
 0
LINE
 5
5466
330
1E
 100
AcDbEntity
 8
Узел
 6
CONTINUOUS
 100
AcDbLine
 39
0.030000
 10
92.020000
 20
69.740000
 11
92.020000
 21
68.740000
 0
LINE
 5
5467
330
1E
 100
AcDbEntity
 8
Узел
 6
CONTINUOUS
 100
AcDbLine
 39
0.030000
 10
92.020000
 20
70.740000
 11
92.020000
 21
71.740000
 0
LINE
 5
5468
330
1E
 100
AcDbEntity
 8
Узел
 6
CONTINUOUS
 100
AcDbLine
 39
0.030000
 10
93.520000
 20
69.740000
 11
93.520000
 21
68.740000
 0
LINE
 5
5469
330
1E
 100
AcDbEntity
 8
Узел
 6
CONTINUOUS
 100
AcDbLine
 39
0.030000
 10
93.520000
 20
70.740000
 11
93.520000
 21
71.740000
 0
LINE
 5
5470
330
1E
 100
AcDbEntity
 8
Узел
 6
CONTINUOUS
 100
AcDbLine
 39
0.030000
 10
95.020000
 20
69.740000
 11
95.020000
 21
68.740000
 0
LINE
 5
5471
330
1E
 100
AcDbEntity
 8
Узел
 6
CONTINUOUS
 100
AcDbLine
 39
0.030000
 10
95.020000
 20
70.740000
 11
95.020000
 21
71.740000
 0
LINE
 5
5472
330
1E
 100
AcDbEntity
 8
Узел
 6
CONTINUOUS
 100
AcDbLine
 39
0.030000
 10
96.520000
 20
69.740000
 11
96.520000
 21
68.740000
 0
LINE
 5
5473
330
1E
 100
AcDbEntity
 8
Узел
 6
CONTINUOUS
 100
AcDbLine
 39
0.030000
 10
96.520000
 20
70.740000
 11
96.520000
 21
71.740000
 0
LINE
 5
5474
330
1E
 100
AcDbEntity
 8
Узел
 6
CONTINUOUS
 100
AcDbLine
 39
0.030000
 10
98.020000
 20
69.740000
 11
98.020000
 21
68.740000
 0
LINE
 5
5475
330
1E
 100
AcDbEntity
 8
Узел
 6
CONTINUOUS
 100
AcDbLine
 39
0.030000
 10
98.020000
 20
70.740000
 11
98.020000
 21
71.740000
 0
LINE
 5
5476
330
1E
 100
AcDbEntity
 8
Узел
 6
CONTINUOUS
 100
AcDbLine
 39
0.030000
 10
99.520000
 20
69.740000
 11
99.520000
 21
68.740000
 0
LINE
 5
5477
330
1E
 100
AcDbEntity
 8
Узел
 6
CONTINUOUS
 100
AcDbLine
 39
0.030000
 10
99.520000
 20
70.740000
 11
99.520000
 21
71.740000
 0
LINE
 5
5478
330
1E
 100
AcDbEntity
 8
Узел
 6
CONTINUOUS
 100
AcDbLine
 39
0.030000
 10
101.020000
 20
69.740000
 11
101.020000
 21
68.740000
 0
LINE
 5
5479
330
1E
 100
AcDbEntity
 8
Узел
 6
CONTINUOUS
 100
AcDbLine
 39
0.030000
 10
101.020000
 20
70.740000
 11
101.020000
 21
71.740000
 0
LINE
 5
5480
330
1E
 100
AcDbEntity
 8
Узел
 6
CONTINUOUS
 100
AcDbLine
 39
0.030000
 10
102.520000
 20
69.740000
 11
102.520000
 21
68.740000
 0
LINE
 5
5481
330
1E
 100
AcDbEntity
 8
Узел
 6
CONTINUOUS
 100
AcDbLine
 39
0.030000
 10
102.520000
 20
70.740000
 11
102.520000
 21
71.740000
 0
LINE
 5
5482
330
1E
 100
AcDbEntity
 8
Узел
 6
CONTINUOUS
 100
AcDbLine
 39
0.030000
 10
104.020000
 20
69.740000
 11
104.020000
 21
68.740000
 0
LINE
 5
5483
330
1E
 100
AcDbEntity
 8
Узел
 6
CONTINUOUS
 100
AcDbLine
 39
0.030000
 10
104.020000
 20
70.740000
 11
104.020000
 21
71.740000
 0
LINE
 5
5484
330
1E
 100
AcDbEntity
 8
Узел
 6
CONTINUOUS
 100
AcDbLine
 39
0.030000
 10
105.520000
 20
69.740000
 11
105.520000
 21
68.740000
 0
LINE
 5
5485
330
1E
 100
AcDbEntity
 8
Узел
 6
CONTINUOUS
 100
AcDbLine
 39
0.030000
 10
105.520000
 20
70.740000
 11
105.520000
 21
71.740000
 0
LINE
 5
5486
330
1E
 100
AcDbEntity
 8
Узел
 6
CONTINUOUS
 100
AcDbLine
 39
0.030000
 10
107.020000
 20
69.740000
 11
107.020000
 21
68.740000
 0
LINE
 5
5487
330
1E
 100
AcDbEntity
 8
Узел
 6
CONTINUOUS
 100
AcDbLine
 39
0.030000
 10
107.020000
 20
70.740000
 11
107.020000
 21
71.740000
 0
LINE
 5
5488
330
1E
 100
AcDbEntity
 8
Узел
 6
CONTINUOUS
 100
AcDbLine
 39
0.030000
 10
108.520000
 20
69.740000
 11
108.520000
 21
68.740000
 0
LINE
 5
5489
330
1E
 100
AcDbEntity
 8
Узел
 6
CONTINUOUS
 100
AcDbLine
 39
0.030000
 10
108.520000
 20
70.740000
 11
108.520000
 21
71.740000
 0
LINE
 5
5490
330
1E
 100
AcDbEntity
 8
Узел
 6
CONTINUOUS
 100
AcDbLine
 39
0.030000
 10
110.020000
 20
69.740000
 11
110.020000
 21
68.740000
 0
LINE
 5
5491
330
1E
 100
AcDbEntity
 8
Узел
 6
CONTINUOUS
 100
AcDbLine
 39
0.030000
 10
110.020000
 20
70.740000
 11
110.020000
 21
71.740000
 0
LINE
 5
5492
330
1E
 100
AcDbEntity
 8
Узел
 6
CONTINUOUS
 100
AcDbLine
 39
0.030000
 10
111.520000
 20
69.740000
 11
111.520000
 21
68.740000
 0
LINE
 5
5493
330
1E
 100
AcDbEntity
 8
Узел
 6
CONTINUOUS
 100
AcDbLine
 39
0.030000
 10
111.520000
 20
70.740000
 11
111.520000
 21
71.740000
 0
LINE
 5
5494
330
1E
 100
AcDbEntity
 8
Узел
 6
CONTINUOUS
 100
AcDbLine
 39
0.030000
 10
113.020000
 20
69.740000
 11
113.020000
 21
68.740000
 0
LINE
 5
5495
330
1E
 100
AcDbEntity
 8
Узел
 6
CONTINUOUS
 100
AcDbLine
 39
0.030000
 10
113.020000
 20
70.740000
 11
113.020000
 21
71.740000
 0
LINE
 5
5496
330
1E
 100
AcDbEntity
 8
Узел
 6
CONTINUOUS
 100
AcDbLine
 39
0.030000
 10
115.620000
 20
55.240000
 11
114.620000
 21
55.240000
 0
LINE
 5
5497
330
1E
 100
AcDbEntity
 8
Узел
 6
CONTINUOUS
 100
AcDbLine
 39
0.030000
 10
115.620000
 20
85.240000
 11
114.620000
 21
85.240000
 0
LINE
 5
5498
330
1E
 100
AcDbEntity
 8
Узел
 6
CONTINUOUS
 100
AcDbLine
 39
0.030000
 10
88.720000
 20
55.240000
 11
89.720000
 21
55.240000
 0
LINE
 5
5499
330
1E
 100
AcDbEntity
 8
Узел
 6
CONTINUOUS
 100
AcDbLine
 39
0.030000
 10
88.720000
 20
85.240000
 11
89.720000
 21
85.240000
 0
LINE
 5
5500
330
1E
 100
AcDbEntity
 8
Узел
 6
CONTINUOUS
 100
AcDbLine
 39
0.030000
 10
115.620000
 20
56.740000
 11
114.620000
 21
56.740000
 0
LINE
 5
5501
330
1E
 100
AcDbEntity
 8
Узел
 6
CONTINUOUS
 100
AcDbLine
 39
0.030000
 10
115.620000
 20
83.740000
 11
114.620000
 21
83.740000
 0
LINE
 5
5502
330
1E
 100
AcDbEntity
 8
Узел
 6
CONTINUOUS
 100
AcDbLine
 39
0.030000
 10
88.720000
 20
56.740000
 11
89.720000
 21
56.740000
 0
LINE
 5
5503
330
1E
 100
AcDbEntity
 8
Узел
 6
CONTINUOUS
 100
AcDbLine
 39
0.030000
 10
88.720000
 20
83.740000
 11
89.720000
 21
83.740000
 0
LINE
 5
5504
330
1E
 100
AcDbEntity
 8
Узел
 6
CONTINUOUS
 100
AcDbLine
 39
0.030000
 10
115.620000
 20
58.240000
 11
114.620000
 21
58.240000
 0
LINE
 5
5505
330
1E
 100
AcDbEntity
 8
Узел
 6
CONTINUOUS
 100
AcDbLine
 39
0.030000
 10
115.620000
 20
82.240000
 11
114.620000
 21
82.240000
 0
LINE
 5
5506
330
1E
 100
AcDbEntity
 8
Узел
 6
CONTINUOUS
 100
AcDbLine
 39
0.030000
 10
88.720000
 20
58.240000
 11
89.720000
 21
58.240000
 0
LINE
 5
5507
330
1E
 100
AcDbEntity
 8
Узел
 6
CONTINUOUS
 100
AcDbLine
 39
0.030000
 10
88.720000
 20
82.240000
 11
89.720000
 21
82.240000
 0
LINE
 5
5508
330
1E
 100
AcDbEntity
 8
Узел
 6
CONTINUOUS
 100
AcDbLine
 39
0.030000
 10
115.620000
 20
59.740000
 11
114.620000
 21
59.740000
 0
LINE
 5
5509
330
1E
 100
AcDbEntity
 8
Узел
 6
CONTINUOUS
 100
AcDbLine
 39
0.030000
 10
115.620000
 20
80.740000
 11
114.620000
 21
80.740000
 0
LINE
 5
5510
330
1E
 100
AcDbEntity
 8
Узел
 6
CONTINUOUS
 100
AcDbLine
 39
0.030000
 10
88.720000
 20
59.740000
 11
89.720000
 21
59.740000
 0
LINE
 5
5511
330
1E
 100
AcDbEntity
 8
Узел
 6
CONTINUOUS
 100
AcDbLine
 39
0.030000
 10
88.720000
 20
80.740000
 11
89.720000
 21
80.740000
 0
LINE
 5
5512
330
1E
 100
AcDbEntity
 8
Узел
 6
CONTINUOUS
 100
AcDbLine
 39
0.030000
 10
115.620000
 20
61.240000
 11
114.620000
 21
61.240000
 0
LINE
 5
5513
330
1E
 100
AcDbEntity
 8
Узел
 6
CONTINUOUS
 100
AcDbLine
 39
0.030000
 10
115.620000
 20
79.240000
 11
114.620000
 21
79.240000
 0
LINE
 5
5514
330
1E
 100
AcDbEntity
 8
Узел
 6
CONTINUOUS
 100
AcDbLine
 39
0.030000
 10
88.720000
 20
61.240000
 11
89.720000
 21
61.240000
 0
LINE
 5
5515
330
1E
 100
AcDbEntity
 8
Узел
 6
CONTINUOUS
 100
AcDbLine
 39
0.030000
 10
88.720000
 20
79.240000
 11
89.720000
 21
79.240000
 0
LINE
 5
5516
330
1E
 100
AcDbEntity
 8
Узел
 6
CONTINUOUS
 100
AcDbLine
 39
0.030000
 10
115.620000
 20
62.740000
 11
114.620000
 21
62.740000
 0
LINE
 5
5517
330
1E
 100
AcDbEntity
 8
Узел
 6
CONTINUOUS
 100
AcDbLine
 39
0.030000
 10
115.620000
 20
77.740000
 11
114.620000
 21
77.740000
 0
LINE
 5
5518
330
1E
 100
AcDbEntity
 8
Узел
 6
CONTINUOUS
 100
AcDbLine
 39
0.030000
 10
88.720000
 20
62.740000
 11
89.720000
 21
62.740000
 0
LINE
 5
5519
330
1E
 100
AcDbEntity
 8
Узел
 6
CONTINUOUS
 100
AcDbLine
 39
0.030000
 10
88.720000
 20
77.740000
 11
89.720000
 21
77.740000
 0
LINE
 5
5520
330
1E
 100
AcDbEntity
 8
Узел
 6
CONTINUOUS
 100
AcDbLine
 39
0.030000
 10
115.620000
 20
64.240000
 11
114.620000
 21
64.240000
 0
LINE
 5
5521
330
1E
 100
AcDbEntity
 8
Узел
 6
CONTINUOUS
 100
AcDbLine
 39
0.030000
 10
115.620000
 20
76.240000
 11
114.620000
 21
76.240000
 0
LINE
 5
5522
330
1E
 100
AcDbEntity
 8
Узел
 6
CONTINUOUS
 100
AcDbLine
 39
0.030000
 10
88.720000
 20
64.240000
 11
89.720000
 21
64.240000
 0
LINE
 5
5523
330
1E
 100
AcDbEntity
 8
Узел
 6
CONTINUOUS
 100
AcDbLine
 39
0.030000
 10
88.720000
 20
76.240000
 11
89.720000
 21
76.240000
 0
LINE
 5
5524
330
1E
 100
AcDbEntity
 8
Узел
 6
CONTINUOUS
 100
AcDbLine
 39
0.030000
 10
115.620000
 20
65.740000
 11
114.620000
 21
65.740000
 0
LINE
 5
5525
330
1E
 100
AcDbEntity
 8
Узел
 6
CONTINUOUS
 100
AcDbLine
 39
0.030000
 10
115.620000
 20
74.740000
 11
114.620000
 21
74.740000
 0
LINE
 5
5526
330
1E
 100
AcDbEntity
 8
Узел
 6
CONTINUOUS
 100
AcDbLine
 39
0.030000
 10
88.720000
 20
65.740000
 11
89.720000
 21
65.740000
 0
LINE
 5
5527
330
1E
 100
AcDbEntity
 8
Узел
 6
CONTINUOUS
 100
AcDbLine
 39
0.030000
 10
88.720000
 20
74.740000
 11
89.720000
 21
74.740000
 0
LINE
 5
5528
330
1E
 100
AcDbEntity
 8
Узел
 6
CONTINUOUS
 100
AcDbLine
 39
0.030000
 10
115.620000
 20
67.240000
 11
114.620000
 21
67.240000
 0
LINE
 5
5529
330
1E
 100
AcDbEntity
 8
Узел
 6
CONTINUOUS
 100
AcDbLine
 39
0.030000
 10
115.620000
 20
73.240000
 11
114.620000
 21
73.240000
 0
LINE
 5
5530
330
1E
 100
AcDbEntity
 8
Узел
 6
CONTINUOUS
 100
AcDbLine
 39
0.030000
 10
88.720000
 20
67.240000
 11
89.720000
 21
67.240000
 0
LINE
 5
5531
330
1E
 100
AcDbEntity
 8
Узел
 6
CONTINUOUS
 100
AcDbLine
 39
0.030000
 10
88.720000
 20
73.240000
 11
89.720000
 21
73.240000
 0
LWPOLYLINE
 5
5532
330
1E
 100
AcDbEntity
 8
Узел
 6
CONTINUOUS
 48
1.0
 100
AcDbPolyline
 90
2
 70
0
 43
0.400000
 10
77.420000
 20
43.990000
 10
126.920000
 20
43.990000
 0
LWPOLYLINE
 5
5533
330
1E
 100
AcDbEntity
 8
Узел
 6
CONTINUOUS
 48
1.0
 100
AcDbPolyline
 90
2
 70
0
 43
0.400000
 10
126.920000
 20
43.990000
 10
126.920000
 20
96.490000
 0
LWPOLYLINE
 5
5534
330
1E
 100
AcDbEntity
 8
Узел
 6
CONTINUOUS
 48
1.0
 100
AcDbPolyline
 90
2
 70
0
 43
0.400000
 10
126.920000
 20
96.490000
 10
77.420000
 20
96.490000
 0
LWPOLYLINE
 5
5535
330
1E
 100
AcDbEntity
 8
Узел
 6
CONTINUOUS
 48
1.0
 100
AcDbPolyline
 90
2
 70
0
 43
0.400000
 10
77.420000
 20
96.490000
 10
77.420000
 20
43.990000
 0
LWPOLYLINE
 5
5536
330
1E
 100
AcDbEntity
 8
Узел
 6
CONTINUOUS
 48
1.0
 100
AcDbPolyline
 90
2
 70
0
 43
0.400000
 10
77.420000
 20
55.240000
 10
126.920000
 20
55.240000
 0
LWPOLYLINE
 5
5537
330
1E
 100
AcDbEntity
 8
Узел
 6
CONTINUOUS
 48
1.0
 100
AcDbPolyline
 90
2
 70
0
 43
0.400000
 10
126.920000
 20
55.240000
 10
126.920000
 20
54.040000
 0
LWPOLYLINE
 5
5538
330
1E
 100
AcDbEntity
 8
Узел
 6
CONTINUOUS
 48
1.0
 100
AcDbPolyline
 90
2
 70
0
 43
0.400000
 10
126.920000
 20
54.040000
 10
77.420000
 20
54.040000
 0
LWPOLYLINE
 5
5539
330
1E
 100
AcDbEntity
 8
Узел
 6
CONTINUOUS
 48
1.0
 100
AcDbPolyline
 90
2
 70
0
 43
0.400000
 10
77.420000
 20
54.040000
 10
77.420000
 20
55.240000
 0
LWPOLYLINE
 5
5540
330
1E
 100
AcDbEntity
 8
Узел
 6
CONTINUOUS
 48
1.0
 100
AcDbPolyline
 90
2
 70
0
 43
0.400000
 10
87.170000
 20
55.240000
 10
87.170000
 20
54.040000
 0
LWPOLYLINE
 5
5541
330
1E
 100
AcDbEntity
 8
Узел
 6
CONTINUOUS
 48
1.0
 100
AcDbPolyline
 90
2
 70
0
 43
0.400000
 10
117.170000
 20
55.240000
 10
117.170000
 20
54.040000
 0
LWPOLYLINE
 5
5542
330
1E
 100
AcDbEntity
 8
Узел
 6
CONTINUOUS
 48
1.0
 100
AcDbPolyline
 90
2
 70
0
 43
0.400000
 10
87.170000
 20
54.040000
 10
88.370000
 20
54.040000
 0
LWPOLYLINE
 5
5543
330
1E
 100
AcDbEntity
 8
Узел
 6
CONTINUOUS
 48
1.0
 100
AcDbPolyline
 90
2
 70
0
 43
0.400000
 10
88.370000
 20
54.040000
 10
88.370000
 20
44.040000
 0
LWPOLYLINE
 5
5544
330
1E
 100
AcDbEntity
 8
Узел
 6
CONTINUOUS
 48
1.0
 100
AcDbPolyline
 90
2
 70
0
 43
0.400000
 10
88.370000
 20
44.040000
 10
87.170000
 20
44.040000
 0
LWPOLYLINE
 5
5545
330
1E
 100
AcDbEntity
 8
Узел
 6
CONTINUOUS
 48
1.0
 100
AcDbPolyline
 90
2
 70
0
 43
0.400000
 10
87.170000
 20
44.040000
 10
87.170000
 20
54.040000
 0
LWPOLYLINE
 5
5546
330
1E
 100
AcDbEntity
 8
Узел
 6
CONTINUOUS
 48
1.0
 100
AcDbPolyline
 90
2
 70
0
 43
0.400000
 10
115.970000
 20
54.040000
 10
117.170000
 20
54.040000
 0
LWPOLYLINE
 5
5547
330
1E
 100
AcDbEntity
 8
Узел
 6
CONTINUOUS
 48
1.0
 100
AcDbPolyline
 90
2
 70
0
 43
0.400000
 10
117.170000
 20
54.040000
 10
117.170000
 20
44.040000
 0
LWPOLYLINE
 5
5548
330
1E
 100
AcDbEntity
 8
Узел
 6
CONTINUOUS
 48
1.0
 100
AcDbPolyline
 90
2
 70
0
 43
0.400000
 10
117.170000
 20
44.040000
 10
115.970000
 20
44.040000
 0
LWPOLYLINE
 5
5549
330
1E
 100
AcDbEntity
 8
Узел
 6
CONTINUOUS
 48
1.0
 100
AcDbPolyline
 90
2
 70
0
 43
0.400000
 10
115.970000
 20
44.040000
 10
115.970000
 20
54.040000
 0
LWPOLYLINE
 5
5550
330
1E
 100
AcDbEntity
 8
Узел
 6
CONTINUOUS
 48
1.0
 100
AcDbPolyline
 90
2
 70
0
 43
0.400000
 10
77.420000
 20
86.440000
 10
126.920000
 20
86.440000
 0
LWPOLYLINE
 5
5551
330
1E
 100
AcDbEntity
 8
Узел
 6
CONTINUOUS
 48
1.0
 100
AcDbPolyline
 90
2
 70
0
 43
0.400000
 10
126.920000
 20
86.440000
 10
126.920000
 20
85.240000
 0
LWPOLYLINE
 5
5552
330
1E
 100
AcDbEntity
 8
Узел
 6
CONTINUOUS
 48
1.0
 100
AcDbPolyline
 90
2
 70
0
 43
0.400000
 10
126.920000
 20
85.240000
 10
77.420000
 20
85.240000
 0
LWPOLYLINE
 5
5553
330
1E
 100
AcDbEntity
 8
Узел
 6
CONTINUOUS
 48
1.0
 100
AcDbPolyline
 90
2
 70
0
 43
0.400000
 10
77.420000
 20
85.240000
 10
77.420000
 20
86.440000
 0
LWPOLYLINE
 5
5554
330
1E
 100
AcDbEntity
 8
Узел
 6
CONTINUOUS
 48
1.0
 100
AcDbPolyline
 90
2
 70
0
 43
0.400000
 10
87.170000
 20
86.440000
 10
87.170000
 20
85.240000
 0
LWPOLYLINE
 5
5555
330
1E
 100
AcDbEntity
 8
Узел
 6
CONTINUOUS
 48
1.0
 100
AcDbPolyline
 90
2
 70
0
 43
0.400000
 10
117.170000
 20
86.440000
 10
117.170000
 20
85.240000
 0
LWPOLYLINE
 5
5556
330
1E
 100
AcDbEntity
 8
Узел
 6
CONTINUOUS
 48
1.0
 100
AcDbPolyline
 90
2
 70
0
 43
0.400000
 10
87.170000
 20
96.440000
 10
88.370000
 20
96.440000
 0
LWPOLYLINE
 5
5557
330
1E
 100
AcDbEntity
 8
Узел
 6
CONTINUOUS
 48
1.0
 100
AcDbPolyline
 90
2
 70
0
 43
0.400000
 10
88.370000
 20
96.440000
 10
88.370000
 20
86.440000
 0
LWPOLYLINE
 5
5558
330
1E
 100
AcDbEntity
 8
Узел
 6
CONTINUOUS
 48
1.0
 100
AcDbPolyline
 90
2
 70
0
 43
0.400000
 10
88.370000
 20
86.440000
 10
87.170000
 20
86.440000
 0
LWPOLYLINE
 5
5559
330
1E
 100
AcDbEntity
 8
Узел
 6
CONTINUOUS
 48
1.0
 100
AcDbPolyline
 90
2
 70
0
 43
0.400000
 10
87.170000
 20
86.440000
 10
87.170000
 20
96.440000
 0
LWPOLYLINE
 5
5560
330
1E
 100
AcDbEntity
 8
Узел
 6
CONTINUOUS
 48
1.0
 100
AcDbPolyline
 90
2
 70
0
 43
0.400000
 10
115.970000
 20
96.440000
 10
117.170000
 20
96.440000
 0
LWPOLYLINE
 5
5561
330
1E
 100
AcDbEntity
 8
Узел
 6
CONTINUOUS
 48
1.0
 100
AcDbPolyline
 90
2
 70
0
 43
0.400000
 10
117.170000
 20
96.440000
 10
117.170000
 20
86.440000
 0
LWPOLYLINE
 5
5562
330
1E
 100
AcDbEntity
 8
Узел
 6
CONTINUOUS
 48
1.0
 100
AcDbPolyline
 90
2
 70
0
 43
0.400000
 10
117.170000
 20
86.440000
 10
115.970000
 20
86.440000
 0
LWPOLYLINE
 5
5563
330
1E
 100
AcDbEntity
 8
Узел
 6
CONTINUOUS
 48
1.0
 100
AcDbPolyline
 90
2
 70
0
 43
0.400000
 10
115.970000
 20
86.440000
 10
115.970000
 20
96.440000
 0
CIRCLE
 5
1031
330
1E
 100
AcDbEntity
 8
Выноски
 6
CONTINUOUS
 48
1.0
 100
AcDbCircle
 39
0.030000
 10
121.770000
 20
91.940000
 40
0.250000
 0
HATCH
 5
1032
330
1E
 100
AcDbEntity
 8
Выноски
 100
AcDbHatch
 10
0.0
 20
0.0
 30
0.0
 210
0.0
 220
0.0
 230
1.0
 2
SOLID
 70
  1
 71
  1
 91
  1
 92
  7
 72
  1
 73
  1
 93
  2
 10
121.520000
 20
91.940000
 42
1.0
 10
122.020000
 20
91.940000
 42
1.0
 97
  1
330
2B
 75
  0
 76
  1
 47
0.0
 98
  1
 10
121.770000
 20
91.940000
 0
TEXT
 5
2519
330
1E
 100
AcDbEntity
 8
Выноски
 48
50.0
 100
AcDbText
 10
136.920000
 20
105.240000
 40
2.500000
 1
2
 50
0.000000
 41
0.700000
 51
15.000000
 7
SCADOFFICE
 72
  0
 11
136.920000
 21
105.240000
 100
AcDbText
 0
LINE
 5
5564
330
1E
 100
AcDbEntity
 8
Выноски
 6
CONTINUOUS
 100
AcDbLine
 39
0.030000
 10
121.770000
 20
91.940000
 11
134.420000
 21
106.490000
 0
LINE
 5
5565
330
1E
 100
AcDbEntity
 8
Выноски
 6
CONTINUOUS
 100
AcDbLine
 39
0.030000
 10
134.420000
 20
106.490000
 11
135.920000
 21
106.490000
 0
LINE
 5
5566
330
1E
 100
AcDbEntity
 8
Выноски
 6
CONTINUOUS
 100
AcDbLine
 39
0.030000
 10
82.570000
 20
93.940000
 11
82.570000
 21
89.940000
 0
LINE
 5
5567
330
1E
 100
AcDbEntity
 8
Выноски
 6
CONTINUOUS
 100
AcDbLine
 39
0.030000
 10
80.570000
 20
91.940000
 11
84.570000
 21
91.940000
 0
CIRCLE
 5
1033
330
1E
 100
AcDbEntity
 8
Профиль
 6
CONTINUOUS
 48
1.0
 100
AcDbCircle
 39
0.030000
 10
82.570000
 20
91.940000
 40
1.000000
 0
LINE
 5
5568
330
1E
 100
AcDbEntity
 8
Узел
 6
CONTINUOUS
 100
AcDbLine
 39
0.030000
 10
82.570000
 20
50.540000
 11
82.570000
 21
46.540000
 0
LINE
 5
5569
330
1E
 100
AcDbEntity
 8
Узел
 6
CONTINUOUS
 100
AcDbLine
 39
0.030000
 10
80.570000
 20
48.540000
 11
84.570000
 21
48.540000
 0
CIRCLE
 5
1034
330
1E
 100
AcDbEntity
 8
Профиль
 6
CONTINUOUS
 48
1.0
 100
AcDbCircle
 39
0.030000
 10
82.570000
 20
48.540000
 40
1.000000
 0
LINE
 5
5570
330
1E
 100
AcDbEntity
 8
Узел
 6
CONTINUOUS
 100
AcDbLine
 39
0.030000
 10
121.770000
 20
93.940000
 11
121.770000
 21
89.940000
 0
LINE
 5
5571
330
1E
 100
AcDbEntity
 8
Узел
 6
CONTINUOUS
 100
AcDbLine
 39
0.030000
 10
119.770000
 20
91.940000
 11
123.770000
 21
91.940000
 0
CIRCLE
 5
1035
330
1E
 100
AcDbEntity
 8
Профиль
 6
CONTINUOUS
 48
1.0
 100
AcDbCircle
 39
0.030000
 10
121.770000
 20
91.940000
 40
1.000000
 0
LINE
 5
5572
330
1E
 100
AcDbEntity
 8
Узел
 6
CONTINUOUS
 100
AcDbLine
 39
0.030000
 10
121.770000
 20
50.540000
 11
121.770000
 21
46.540000
 0
LINE
 5
5573
330
1E
 100
AcDbEntity
 8
Узел
 6
CONTINUOUS
 100
AcDbLine
 39
0.030000
 10
119.770000
 20
48.540000
 11
123.770000
 21
48.540000
 0
CIRCLE
 5
1036
330
1E
 100
AcDbEntity
 8
Профиль
 6
CONTINUOUS
 48
1.0
 100
AcDbCircle
 39
0.030000
 10
121.770000
 20
48.540000
 40
1.000000
 0
LINE
 5
5574
330
1E
 100
AcDbEntity
 8
Узел
 6
CONTINUOUS
 100
AcDbLine
 39
0.030000
 10
89.870000
 20
86.440000
 11
89.870000
 21
87.440000
 0
LINE
 5
5575
330
1E
 100
AcDbEntity
 8
Узел
 6
CONTINUOUS
 100
AcDbLine
 39
0.030000
 10
91.370000
 20
86.440000
 11
91.370000
 21
87.440000
 0
LINE
 5
5576
330
1E
 100
AcDbEntity
 8
Узел
 6
CONTINUOUS
 100
AcDbLine
 39
0.030000
 10
92.870000
 20
86.440000
 11
92.870000
 21
87.440000
 0
LINE
 5
5577
330
1E
 100
AcDbEntity
 8
Узел
 6
CONTINUOUS
 100
AcDbLine
 39
0.030000
 10
94.370000
 20
86.440000
 11
94.370000
 21
87.440000
 0
LINE
 5
5578
330
1E
 100
AcDbEntity
 8
Узел
 6
CONTINUOUS
 100
AcDbLine
 39
0.030000
 10
95.870000
 20
86.440000
 11
95.870000
 21
87.440000
 0
LINE
 5
5579
330
1E
 100
AcDbEntity
 8
Узел
 6
CONTINUOUS
 100
AcDbLine
 39
0.030000
 10
97.370000
 20
86.440000
 11
97.370000
 21
87.440000
 0
LINE
 5
5580
330
1E
 100
AcDbEntity
 8
Узел
 6
CONTINUOUS
 100
AcDbLine
 39
0.030000
 10
98.870000
 20
86.440000
 11
98.870000
 21
87.440000
 0
LINE
 5
5581
330
1E
 100
AcDbEntity
 8
Узел
 6
CONTINUOUS
 100
AcDbLine
 39
0.030000
 10
100.370000
 20
86.440000
 11
100.370000
 21
87.440000
 0
LINE
 5
5582
330
1E
 100
AcDbEntity
 8
Узел
 6
CONTINUOUS
 100
AcDbLine
 39
0.030000
 10
101.870000
 20
86.440000
 11
101.870000
 21
87.440000
 0
LINE
 5
5583
330
1E
 100
AcDbEntity
 8
Узел
 6
CONTINUOUS
 100
AcDbLine
 39
0.030000
 10
103.370000
 20
86.440000
 11
103.370000
 21
87.440000
 0
LINE
 5
5584
330
1E
 100
AcDbEntity
 8
Узел
 6
CONTINUOUS
 100
AcDbLine
 39
0.030000
 10
104.870000
 20
86.440000
 11
104.870000
 21
87.440000
 0
LINE
 5
5585
330
1E
 100
AcDbEntity
 8
Узел
 6
CONTINUOUS
 100
AcDbLine
 39
0.030000
 10
106.370000
 20
86.440000
 11
106.370000
 21
87.440000
 0
LINE
 5
5586
330
1E
 100
AcDbEntity
 8
Узел
 6
CONTINUOUS
 100
AcDbLine
 39
0.030000
 10
107.870000
 20
86.440000
 11
107.870000
 21
87.440000
 0
LINE
 5
5587
330
1E
 100
AcDbEntity
 8
Узел
 6
CONTINUOUS
 100
AcDbLine
 39
0.030000
 10
109.370000
 20
86.440000
 11
109.370000
 21
87.440000
 0
LINE
 5
5588
330
1E
 100
AcDbEntity
 8
Узел
 6
CONTINUOUS
 100
AcDbLine
 39
0.030000
 10
110.870000
 20
86.440000
 11
110.870000
 21
87.440000
 0
LINE
 5
5589
330
1E
 100
AcDbEntity
 8
Узел
 6
CONTINUOUS
 100
AcDbLine
 39
0.030000
 10
112.370000
 20
86.440000
 11
112.370000
 21
87.440000
 0
LINE
 5
5590
330
1E
 100
AcDbEntity
 8
Узел
 6
CONTINUOUS
 100
AcDbLine
 39
0.030000
 10
113.870000
 20
86.440000
 11
113.870000
 21
87.440000
 0
LINE
 5
5591
330
1E
 100
AcDbEntity
 8
Узел
 6
CONTINUOUS
 100
AcDbLine
 39
0.030000
 10
115.370000
 20
86.440000
 11
115.370000
 21
87.440000
 0
LINE
 5
5592
330
1E
 100
AcDbEntity
 8
Узел
 6
CONTINUOUS
 100
AcDbLine
 39
0.030000
 10
78.420000
 20
86.440000
 11
78.420000
 21
87.440000
 0
LINE
 5
5593
330
1E
 100
AcDbEntity
 8
Узел
 6
CONTINUOUS
 100
AcDbLine
 39
0.030000
 10
79.920000
 20
86.440000
 11
79.920000
 21
87.440000
 0
LINE
 5
5594
330
1E
 100
AcDbEntity
 8
Узел
 6
CONTINUOUS
 100
AcDbLine
 39
0.030000
 10
81.420000
 20
86.440000
 11
81.420000
 21
87.440000
 0
LINE
 5
5595
330
1E
 100
AcDbEntity
 8
Узел
 6
CONTINUOUS
 100
AcDbLine
 39
0.030000
 10
82.920000
 20
86.440000
 11
82.920000
 21
87.440000
 0
LINE
 5
5596
330
1E
 100
AcDbEntity
 8
Узел
 6
CONTINUOUS
 100
AcDbLine
 39
0.030000
 10
84.420000
 20
86.440000
 11
84.420000
 21
87.440000
 0
LINE
 5
5597
330
1E
 100
AcDbEntity
 8
Узел
 6
CONTINUOUS
 100
AcDbLine
 39
0.030000
 10
85.920000
 20
86.440000
 11
85.920000
 21
87.440000
 0
LINE
 5
5598
330
1E
 100
AcDbEntity
 8
Узел
 6
CONTINUOUS
 100
AcDbLine
 39
0.030000
 10
118.170000
 20
86.440000
 11
118.170000
 21
87.440000
 0
LINE
 5
5599
330
1E
 100
AcDbEntity
 8
Узел
 6
CONTINUOUS
 100
AcDbLine
 39
0.030000
 10
119.670000
 20
86.440000
 11
119.670000
 21
87.440000
 0
LINE
 5
5600
330
1E
 100
AcDbEntity
 8
Узел
 6
CONTINUOUS
 100
AcDbLine
 39
0.030000
 10
121.170000
 20
86.440000
 11
121.170000
 21
87.440000
 0
LINE
 5
5601
330
1E
 100
AcDbEntity
 8
Узел
 6
CONTINUOUS
 100
AcDbLine
 39
0.030000
 10
122.670000
 20
86.440000
 11
122.670000
 21
87.440000
 0
LINE
 5
5602
330
1E
 100
AcDbEntity
 8
Узел
 6
CONTINUOUS
 100
AcDbLine
 39
0.030000
 10
124.170000
 20
86.440000
 11
124.170000
 21
87.440000
 0
LINE
 5
5603
330
1E
 100
AcDbEntity
 8
Узел
 6
CONTINUOUS
 100
AcDbLine
 39
0.030000
 10
125.670000
 20
86.440000
 11
125.670000
 21
87.440000
 0
LINE
 5
5604
330
1E
 100
AcDbEntity
 8
Узел
 6
CONTINUOUS
 100
AcDbLine
 39
0.030000
 10
78.420000
 20
55.240000
 11
78.420000
 21
56.240000
 0
LINE
 5
5605
330
1E
 100
AcDbEntity
 8
Узел
 6
CONTINUOUS
 100
AcDbLine
 39
0.030000
 10
79.920000
 20
55.240000
 11
79.920000
 21
56.240000
 0
LINE
 5
5606
330
1E
 100
AcDbEntity
 8
Узел
 6
CONTINUOUS
 100
AcDbLine
 39
0.030000
 10
81.420000
 20
55.240000
 11
81.420000
 21
56.240000
 0
LINE
 5
5607
330
1E
 100
AcDbEntity
 8
Узел
 6
CONTINUOUS
 100
AcDbLine
 39
0.030000
 10
82.920000
 20
55.240000
 11
82.920000
 21
56.240000
 0
LINE
 5
5608
330
1E
 100
AcDbEntity
 8
Узел
 6
CONTINUOUS
 100
AcDbLine
 39
0.030000
 10
84.420000
 20
55.240000
 11
84.420000
 21
56.240000
 0
LINE
 5
5609
330
1E
 100
AcDbEntity
 8
Узел
 6
CONTINUOUS
 100
AcDbLine
 39
0.030000
 10
85.920000
 20
55.240000
 11
85.920000
 21
56.240000
 0
LINE
 5
5610
330
1E
 100
AcDbEntity
 8
Узел
 6
CONTINUOUS
 100
AcDbLine
 39
0.030000
 10
118.170000
 20
55.240000
 11
118.170000
 21
56.240000
 0
LINE
 5
5611
330
1E
 100
AcDbEntity
 8
Узел
 6
CONTINUOUS
 100
AcDbLine
 39
0.030000
 10
119.670000
 20
55.240000
 11
119.670000
 21
56.240000
 0
LINE
 5
5612
330
1E
 100
AcDbEntity
 8
Узел
 6
CONTINUOUS
 100
AcDbLine
 39
0.030000
 10
121.170000
 20
55.240000
 11
121.170000
 21
56.240000
 0
LINE
 5
5613
330
1E
 100
AcDbEntity
 8
Узел
 6
CONTINUOUS
 100
AcDbLine
 39
0.030000
 10
122.670000
 20
55.240000
 11
122.670000
 21
56.240000
 0
LINE
 5
5614
330
1E
 100
AcDbEntity
 8
Узел
 6
CONTINUOUS
 100
AcDbLine
 39
0.030000
 10
124.170000
 20
55.240000
 11
124.170000
 21
56.240000
 0
LINE
 5
5615
330
1E
 100
AcDbEntity
 8
Узел
 6
CONTINUOUS
 100
AcDbLine
 39
0.030000
 10
125.670000
 20
55.240000
 11
125.670000
 21
56.240000
 0
LINE
 5
5616
330
1E
 100
AcDbEntity
 8
Узел
 6
CONTINUOUS
 100
AcDbLine
 39
0.030000
 10
89.870000
 20
54.040000
 11
89.870000
 21
53.040000
 0
LINE
 5
5617
330
1E
 100
AcDbEntity
 8
Узел
 6
CONTINUOUS
 100
AcDbLine
 39
0.030000
 10
91.370000
 20
54.040000
 11
91.370000
 21
53.040000
 0
LINE
 5
5618
330
1E
 100
AcDbEntity
 8
Узел
 6
CONTINUOUS
 100
AcDbLine
 39
0.030000
 10
92.870000
 20
54.040000
 11
92.870000
 21
53.040000
 0
LINE
 5
5619
330
1E
 100
AcDbEntity
 8
Узел
 6
CONTINUOUS
 100
AcDbLine
 39
0.030000
 10
94.370000
 20
54.040000
 11
94.370000
 21
53.040000
 0
LINE
 5
5620
330
1E
 100
AcDbEntity
 8
Узел
 6
CONTINUOUS
 100
AcDbLine
 39
0.030000
 10
95.870000
 20
54.040000
 11
95.870000
 21
53.040000
 0
LINE
 5
5621
330
1E
 100
AcDbEntity
 8
Узел
 6
CONTINUOUS
 100
AcDbLine
 39
0.030000
 10
97.370000
 20
54.040000
 11
97.370000
 21
53.040000
 0
LINE
 5
5622
330
1E
 100
AcDbEntity
 8
Узел
 6
CONTINUOUS
 100
AcDbLine
 39
0.030000
 10
98.870000
 20
54.040000
 11
98.870000
 21
53.040000
 0
LINE
 5
5623
330
1E
 100
AcDbEntity
 8
Узел
 6
CONTINUOUS
 100
AcDbLine
 39
0.030000
 10
100.370000
 20
54.040000
 11
100.370000
 21
53.040000
 0
LINE
 5
5624
330
1E
 100
AcDbEntity
 8
Узел
 6
CONTINUOUS
 100
AcDbLine
 39
0.030000
 10
101.870000
 20
54.040000
 11
101.870000
 21
53.040000
 0
LINE
 5
5625
330
1E
 100
AcDbEntity
 8
Узел
 6
CONTINUOUS
 100
AcDbLine
 39
0.030000
 10
103.370000
 20
54.040000
 11
103.370000
 21
53.040000
 0
LINE
 5
5626
330
1E
 100
AcDbEntity
 8
Узел
 6
CONTINUOUS
 100
AcDbLine
 39
0.030000
 10
104.870000
 20
54.040000
 11
104.870000
 21
53.040000
 0
LINE
 5
5627
330
1E
 100
AcDbEntity
 8
Узел
 6
CONTINUOUS
 100
AcDbLine
 39
0.030000
 10
106.370000
 20
54.040000
 11
106.370000
 21
53.040000
 0
LINE
 5
5628
330
1E
 100
AcDbEntity
 8
Узел
 6
CONTINUOUS
 100
AcDbLine
 39
0.030000
 10
107.870000
 20
54.040000
 11
107.870000
 21
53.040000
 0
LINE
 5
5629
330
1E
 100
AcDbEntity
 8
Узел
 6
CONTINUOUS
 100
AcDbLine
 39
0.030000
 10
109.370000
 20
54.040000
 11
109.370000
 21
53.040000
 0
LINE
 5
5630
330
1E
 100
AcDbEntity
 8
Узел
 6
CONTINUOUS
 100
AcDbLine
 39
0.030000
 10
110.870000
 20
54.040000
 11
110.870000
 21
53.040000
 0
LINE
 5
5631
330
1E
 100
AcDbEntity
 8
Узел
 6
CONTINUOUS
 100
AcDbLine
 39
0.030000
 10
112.370000
 20
54.040000
 11
112.370000
 21
53.040000
 0
LINE
 5
5632
330
1E
 100
AcDbEntity
 8
Узел
 6
CONTINUOUS
 100
AcDbLine
 39
0.030000
 10
113.870000
 20
54.040000
 11
113.870000
 21
53.040000
 0
LINE
 5
5633
330
1E
 100
AcDbEntity
 8
Узел
 6
CONTINUOUS
 100
AcDbLine
 39
0.030000
 10
115.370000
 20
54.040000
 11
115.370000
 21
53.040000
 0
LINE
 5
5634
330
1E
 100
AcDbEntity
 8
Узел
 6
CONTINUOUS
 100
AcDbLine
 39
0.030000
 10
78.420000
 20
54.040000
 11
78.420000
 21
53.040000
 0
LINE
 5
5635
330
1E
 100
AcDbEntity
 8
Узел
 6
CONTINUOUS
 100
AcDbLine
 39
0.030000
 10
79.920000
 20
54.040000
 11
79.920000
 21
53.040000
 0
LINE
 5
5636
330
1E
 100
AcDbEntity
 8
Узел
 6
CONTINUOUS
 100
AcDbLine
 39
0.030000
 10
81.420000
 20
54.040000
 11
81.420000
 21
53.040000
 0
LINE
 5
5637
330
1E
 100
AcDbEntity
 8
Узел
 6
CONTINUOUS
 100
AcDbLine
 39
0.030000
 10
82.920000
 20
54.040000
 11
82.920000
 21
53.040000
 0
LINE
 5
5638
330
1E
 100
AcDbEntity
 8
Узел
 6
CONTINUOUS
 100
AcDbLine
 39
0.030000
 10
84.420000
 20
54.040000
 11
84.420000
 21
53.040000
 0
LINE
 5
5639
330
1E
 100
AcDbEntity
 8
Узел
 6
CONTINUOUS
 100
AcDbLine
 39
0.030000
 10
85.920000
 20
54.040000
 11
85.920000
 21
53.040000
 0
LINE
 5
5640
330
1E
 100
AcDbEntity
 8
Узел
 6
CONTINUOUS
 100
AcDbLine
 39
0.030000
 10
118.170000
 20
54.040000
 11
118.170000
 21
53.040000
 0
LINE
 5
5641
330
1E
 100
AcDbEntity
 8
Узел
 6
CONTINUOUS
 100
AcDbLine
 39
0.030000
 10
119.670000
 20
54.040000
 11
119.670000
 21
53.040000
 0
LINE
 5
5642
330
1E
 100
AcDbEntity
 8
Узел
 6
CONTINUOUS
 100
AcDbLine
 39
0.030000
 10
121.170000
 20
54.040000
 11
121.170000
 21
53.040000
 0
LINE
 5
5643
330
1E
 100
AcDbEntity
 8
Узел
 6
CONTINUOUS
 100
AcDbLine
 39
0.030000
 10
122.670000
 20
54.040000
 11
122.670000
 21
53.040000
 0
LINE
 5
5644
330
1E
 100
AcDbEntity
 8
Узел
 6
CONTINUOUS
 100
AcDbLine
 39
0.030000
 10
124.170000
 20
54.040000
 11
124.170000
 21
53.040000
 0
LINE
 5
5645
330
1E
 100
AcDbEntity
 8
Узел
 6
CONTINUOUS
 100
AcDbLine
 39
0.030000
 10
125.670000
 20
54.040000
 11
125.670000
 21
53.040000
 0
LINE
 5
5646
330
1E
 100
AcDbEntity
 8
Узел
 6
CONTINUOUS
 100
AcDbLine
 39
0.030000
 10
78.420000
 20
85.240000
 11
78.420000
 21
84.240000
 0
LINE
 5
5647
330
1E
 100
AcDbEntity
 8
Узел
 6
CONTINUOUS
 100
AcDbLine
 39
0.030000
 10
79.920000
 20
85.240000
 11
79.920000
 21
84.240000
 0
LINE
 5
5648
330
1E
 100
AcDbEntity
 8
Узел
 6
CONTINUOUS
 100
AcDbLine
 39
0.030000
 10
81.420000
 20
85.240000
 11
81.420000
 21
84.240000
 0
LINE
 5
5649
330
1E
 100
AcDbEntity
 8
Узел
 6
CONTINUOUS
 100
AcDbLine
 39
0.030000
 10
82.920000
 20
85.240000
 11
82.920000
 21
84.240000
 0
LINE
 5
5650
330
1E
 100
AcDbEntity
 8
Узел
 6
CONTINUOUS
 100
AcDbLine
 39
0.030000
 10
84.420000
 20
85.240000
 11
84.420000
 21
84.240000
 0
LINE
 5
5651
330
1E
 100
AcDbEntity
 8
Узел
 6
CONTINUOUS
 100
AcDbLine
 39
0.030000
 10
85.920000
 20
85.240000
 11
85.920000
 21
84.240000
 0
LINE
 5
5652
330
1E
 100
AcDbEntity
 8
Узел
 6
CONTINUOUS
 100
AcDbLine
 39
0.030000
 10
118.170000
 20
85.240000
 11
118.170000
 21
84.240000
 0
LINE
 5
5653
330
1E
 100
AcDbEntity
 8
Узел
 6
CONTINUOUS
 100
AcDbLine
 39
0.030000
 10
119.670000
 20
85.240000
 11
119.670000
 21
84.240000
 0
LINE
 5
5654
330
1E
 100
AcDbEntity
 8
Узел
 6
CONTINUOUS
 100
AcDbLine
 39
0.030000
 10
121.170000
 20
85.240000
 11
121.170000
 21
84.240000
 0
LINE
 5
5655
330
1E
 100
AcDbEntity
 8
Узел
 6
CONTINUOUS
 100
AcDbLine
 39
0.030000
 10
122.670000
 20
85.240000
 11
122.670000
 21
84.240000
 0
LINE
 5
5656
330
1E
 100
AcDbEntity
 8
Узел
 6
CONTINUOUS
 100
AcDbLine
 39
0.030000
 10
124.170000
 20
85.240000
 11
124.170000
 21
84.240000
 0
LINE
 5
5657
330
1E
 100
AcDbEntity
 8
Узел
 6
CONTINUOUS
 100
AcDbLine
 39
0.030000
 10
125.670000
 20
85.240000
 11
125.670000
 21
84.240000
 0
LINE
 5
5658
330
1E
 100
AcDbEntity
 8
Узел
 6
CONTINUOUS
 100
AcDbLine
 39
0.030000
 10
87.170000
 20
87.440000
 11
86.170000
 21
87.440000
 0
LINE
 5
5659
330
1E
 100
AcDbEntity
 8
Узел
 6
CONTINUOUS
 100
AcDbLine
 39
0.030000
 10
87.170000
 20
88.940000
 11
86.170000
 21
88.940000
 0
LINE
 5
5660
330
1E
 100
AcDbEntity
 8
Узел
 6
CONTINUOUS
 100
AcDbLine
 39
0.030000
 10
87.170000
 20
90.440000
 11
86.170000
 21
90.440000
 0
LINE
 5
5661
330
1E
 100
AcDbEntity
 8
Узел
 6
CONTINUOUS
 100
AcDbLine
 39
0.030000
 10
87.170000
 20
91.940000
 11
86.170000
 21
91.940000
 0
LINE
 5
5662
330
1E
 100
AcDbEntity
 8
Узел
 6
CONTINUOUS
 100
AcDbLine
 39
0.030000
 10
87.170000
 20
93.440000
 11
86.170000
 21
93.440000
 0
LINE
 5
5663
330
1E
 100
AcDbEntity
 8
Узел
 6
CONTINUOUS
 100
AcDbLine
 39
0.030000
 10
87.170000
 20
94.940000
 11
86.170000
 21
94.940000
 0
LINE
 5
5664
330
1E
 100
AcDbEntity
 8
Узел
 6
CONTINUOUS
 100
AcDbLine
 39
0.030000
 10
88.370000
 20
87.440000
 11
89.370000
 21
87.440000
 0
LINE
 5
5665
330
1E
 100
AcDbEntity
 8
Узел
 6
CONTINUOUS
 100
AcDbLine
 39
0.030000
 10
88.370000
 20
88.940000
 11
89.370000
 21
88.940000
 0
LINE
 5
5666
330
1E
 100
AcDbEntity
 8
Узел
 6
CONTINUOUS
 100
AcDbLine
 39
0.030000
 10
88.370000
 20
90.440000
 11
89.370000
 21
90.440000
 0
LINE
 5
5667
330
1E
 100
AcDbEntity
 8
Узел
 6
CONTINUOUS
 100
AcDbLine
 39
0.030000
 10
88.370000
 20
91.940000
 11
89.370000
 21
91.940000
 0
LINE
 5
5668
330
1E
 100
AcDbEntity
 8
Узел
 6
CONTINUOUS
 100
AcDbLine
 39
0.030000
 10
88.370000
 20
93.440000
 11
89.370000
 21
93.440000
 0
LINE
 5
5669
330
1E
 100
AcDbEntity
 8
Узел
 6
CONTINUOUS
 100
AcDbLine
 39
0.030000
 10
88.370000
 20
94.940000
 11
89.370000
 21
94.940000
 0
LINE
 5
5670
330
1E
 100
AcDbEntity
 8
Узел
 6
CONTINUOUS
 100
AcDbLine
 39
0.030000
 10
87.170000
 20
44.040000
 11
86.170000
 21
44.040000
 0
LINE
 5
5671
330
1E
 100
AcDbEntity
 8
Узел
 6
CONTINUOUS
 100
AcDbLine
 39
0.030000
 10
87.170000
 20
45.540000
 11
86.170000
 21
45.540000
 0
LINE
 5
5672
330
1E
 100
AcDbEntity
 8
Узел
 6
CONTINUOUS
 100
AcDbLine
 39
0.030000
 10
87.170000
 20
47.040000
 11
86.170000
 21
47.040000
 0
LINE
 5
5673
330
1E
 100
AcDbEntity
 8
Узел
 6
CONTINUOUS
 100
AcDbLine
 39
0.030000
 10
87.170000
 20
48.540000
 11
86.170000
 21
48.540000
 0
LINE
 5
5674
330
1E
 100
AcDbEntity
 8
Узел
 6
CONTINUOUS
 100
AcDbLine
 39
0.030000
 10
87.170000
 20
50.040000
 11
86.170000
 21
50.040000
 0
LINE
 5
5675
330
1E
 100
AcDbEntity
 8
Узел
 6
CONTINUOUS
 100
AcDbLine
 39
0.030000
 10
87.170000
 20
51.540000
 11
86.170000
 21
51.540000
 0
LINE
 5
5676
330
1E
 100
AcDbEntity
 8
Узел
 6
CONTINUOUS
 100
AcDbLine
 39
0.030000
 10
88.370000
 20
44.040000
 11
89.370000
 21
44.040000
 0
LINE
 5
5677
330
1E
 100
AcDbEntity
 8
Узел
 6
CONTINUOUS
 100
AcDbLine
 39
0.030000
 10
88.370000
 20
45.540000
 11
89.370000
 21
45.540000
 0
LINE
 5
5678
330
1E
 100
AcDbEntity
 8
Узел
 6
CONTINUOUS
 100
AcDbLine
 39
0.030000
 10
88.370000
 20
47.040000
 11
89.370000
 21
47.040000
 0
LINE
 5
5679
330
1E
 100
AcDbEntity
 8
Узел
 6
CONTINUOUS
 100
AcDbLine
 39
0.030000
 10
88.370000
 20
48.540000
 11
89.370000
 21
48.540000
 0
LINE
 5
5680
330
1E
 100
AcDbEntity
 8
Узел
 6
CONTINUOUS
 100
AcDbLine
 39
0.030000
 10
88.370000
 20
50.040000
 11
89.370000
 21
50.040000
 0
LINE
 5
5681
330
1E
 100
AcDbEntity
 8
Узел
 6
CONTINUOUS
 100
AcDbLine
 39
0.030000
 10
88.370000
 20
51.540000
 11
89.370000
 21
51.540000
 0
LINE
 5
5682
330
1E
 100
AcDbEntity
 8
Узел
 6
CONTINUOUS
 100
AcDbLine
 39
0.030000
 10
115.970000
 20
87.440000
 11
114.970000
 21
87.440000
 0
LINE
 5
5683
330
1E
 100
AcDbEntity
 8
Узел
 6
CONTINUOUS
 100
AcDbLine
 39
0.030000
 10
115.970000
 20
88.940000
 11
114.970000
 21
88.940000
 0
LINE
 5
5684
330
1E
 100
AcDbEntity
 8
Узел
 6
CONTINUOUS
 100
AcDbLine
 39
0.030000
 10
115.970000
 20
90.440000
 11
114.970000
 21
90.440000
 0
LINE
 5
5685
330
1E
 100
AcDbEntity
 8
Узел
 6
CONTINUOUS
 100
AcDbLine
 39
0.030000
 10
115.970000
 20
91.940000
 11
114.970000
 21
91.940000
 0
LINE
 5
5686
330
1E
 100
AcDbEntity
 8
Узел
 6
CONTINUOUS
 100
AcDbLine
 39
0.030000
 10
115.970000
 20
93.440000
 11
114.970000
 21
93.440000
 0
LINE
 5
5687
330
1E
 100
AcDbEntity
 8
Узел
 6
CONTINUOUS
 100
AcDbLine
 39
0.030000
 10
115.970000
 20
94.940000
 11
114.970000
 21
94.940000
 0
LINE
 5
5688
330
1E
 100
AcDbEntity
 8
Узел
 6
CONTINUOUS
 100
AcDbLine
 39
0.030000
 10
117.170000
 20
87.440000
 11
118.170000
 21
87.440000
 0
LINE
 5
5689
330
1E
 100
AcDbEntity
 8
Узел
 6
CONTINUOUS
 100
AcDbLine
 39
0.030000
 10
117.170000
 20
88.940000
 11
118.170000
 21
88.940000
 0
LINE
 5
5690
330
1E
 100
AcDbEntity
 8
Узел
 6
CONTINUOUS
 100
AcDbLine
 39
0.030000
 10
117.170000
 20
90.440000
 11
118.170000
 21
90.440000
 0
LINE
 5
5691
330
1E
 100
AcDbEntity
 8
Узел
 6
CONTINUOUS
 100
AcDbLine
 39
0.030000
 10
117.170000
 20
91.940000
 11
118.170000
 21
91.940000
 0
LINE
 5
5692
330
1E
 100
AcDbEntity
 8
Узел
 6
CONTINUOUS
 100
AcDbLine
 39
0.030000
 10
117.170000
 20
93.440000
 11
118.170000
 21
93.440000
 0
LINE
 5
5693
330
1E
 100
AcDbEntity
 8
Узел
 6
CONTINUOUS
 100
AcDbLine
 39
0.030000
 10
117.170000
 20
94.940000
 11
118.170000
 21
94.940000
 0
LINE
 5
5694
330
1E
 100
AcDbEntity
 8
Узел
 6
CONTINUOUS
 100
AcDbLine
 39
0.030000
 10
115.970000
 20
44.040000
 11
114.970000
 21
44.040000
 0
LINE
 5
5695
330
1E
 100
AcDbEntity
 8
Узел
 6
CONTINUOUS
 100
AcDbLine
 39
0.030000
 10
115.970000
 20
45.540000
 11
114.970000
 21
45.540000
 0
LINE
 5
5696
330
1E
 100
AcDbEntity
 8
Узел
 6
CONTINUOUS
 100
AcDbLine
 39
0.030000
 10
115.970000
 20
47.040000
 11
114.970000
 21
47.040000
 0
LINE
 5
5697
330
1E
 100
AcDbEntity
 8
Узел
 6
CONTINUOUS
 100
AcDbLine
 39
0.030000
 10
115.970000
 20
48.540000
 11
114.970000
 21
48.540000
 0
LINE
 5
5698
330
1E
 100
AcDbEntity
 8
Узел
 6
CONTINUOUS
 100
AcDbLine
 39
0.030000
 10
115.970000
 20
50.040000
 11
114.970000
 21
50.040000
 0
LINE
 5
5699
330
1E
 100
AcDbEntity
 8
Узел
 6
CONTINUOUS
 100
AcDbLine
 39
0.030000
 10
115.970000
 20
51.540000
 11
114.970000
 21
51.540000
 0
LINE
 5
5700
330
1E
 100
AcDbEntity
 8
Узел
 6
CONTINUOUS
 100
AcDbLine
 39
0.030000
 10
117.170000
 20
44.040000
 11
118.170000
 21
44.040000
 0
LINE
 5
5701
330
1E
 100
AcDbEntity
 8
Узел
 6
CONTINUOUS
 100
AcDbLine
 39
0.030000
 10
117.170000
 20
45.540000
 11
118.170000
 21
45.540000
 0
LINE
 5
5702
330
1E
 100
AcDbEntity
 8
Узел
 6
CONTINUOUS
 100
AcDbLine
 39
0.030000
 10
117.170000
 20
47.040000
 11
118.170000
 21
47.040000
 0
LINE
 5
5703
330
1E
 100
AcDbEntity
 8
Узел
 6
CONTINUOUS
 100
AcDbLine
 39
0.030000
 10
117.170000
 20
48.540000
 11
118.170000
 21
48.540000
 0
LINE
 5
5704
330
1E
 100
AcDbEntity
 8
Узел
 6
CONTINUOUS
 100
AcDbLine
 39
0.030000
 10
117.170000
 20
50.040000
 11
118.170000
 21
50.040000
 0
LINE
 5
5705
330
1E
 100
AcDbEntity
 8
Узел
 6
CONTINUOUS
 100
AcDbLine
 39
0.030000
 10
117.170000
 20
51.540000
 11
118.170000
 21
51.540000
 0
HATCH
 5
1037
330
1D
 100
AcDbEntity
 8
Узел
 100
AcDbHatch
 10
0.0
 20
0.0
 30
0.0
 210
0.0
 220
0.0
 230
1.0
 2
SOLID
 70
  1
 71
  0
 91
  1
 92
  3
 72
  0
 73
  1
 93
   3
 10
87.170000
 20
85.240000
 10
85.670000
 20
85.240000
 10
87.170000
 20
83.740000
 97
  0
 75
  0
 76
  2
 98
  0
 0
HATCH
 5
1038
330
1D
 100
AcDbEntity
 8
Узел
 100
AcDbHatch
 10
0.0
 20
0.0
 30
0.0
 210
0.0
 220
0.0
 230
1.0
 2
SOLID
 70
  1
 71
  0
 91
  1
 92
  3
 72
  0
 73
  1
 93
   3
 10
87.170000
 20
86.440000
 10
85.670000
 20
86.440000
 10
87.170000
 20
87.940000
 97
  0
 75
  0
 76
  2
 98
  0
 0
HATCH
 5
1039
330
1D
 100
AcDbEntity
 8
Узел
 100
AcDbHatch
 10
0.0
 20
0.0
 30
0.0
 210
0.0
 220
0.0
 230
1.0
 2
SOLID
 70
  1
 71
  0
 91
  1
 92
  3
 72
  0
 73
  1
 93
   3
 10
88.370000
 20
86.440000
 10
89.870000
 20
86.440000
 10
88.370000
 20
87.940000
 97
  0
 75
  0
 76
  2
 98
  0
 0
HATCH
 5
1040
330
1D
 100
AcDbEntity
 8
Узел
 100
AcDbHatch
 10
0.0
 20
0.0
 30
0.0
 210
0.0
 220
0.0
 230
1.0
 2
SOLID
 70
  1
 71
  0
 91
  1
 92
  3
 72
  0
 73
  1
 93
   3
 10
87.170000
 20
55.240000
 10
85.670000
 20
55.240000
 10
87.170000
 20
56.740000
 97
  0
 75
  0
 76
  2
 98
  0
 0
HATCH
 5
1041
330
1D
 100
AcDbEntity
 8
Узел
 100
AcDbHatch
 10
0.0
 20
0.0
 30
0.0
 210
0.0
 220
0.0
 230
1.0
 2
SOLID
 70
  1
 71
  0
 91
  1
 92
  3
 72
  0
 73
  1
 93
   3
 10
87.170000
 20
54.040000
 10
85.670000
 20
54.040000
 10
87.170000
 20
52.540000
 97
  0
 75
  0
 76
  2
 98
  0
 0
HATCH
 5
1042
330
1D
 100
AcDbEntity
 8
Узел
 100
AcDbHatch
 10
0.0
 20
0.0
 30
0.0
 210
0.0
 220
0.0
 230
1.0
 2
SOLID
 70
  1
 71
  0
 91
  1
 92
  3
 72
  0
 73
  1
 93
   3
 10
88.370000
 20
54.040000
 10
89.870000
 20
54.040000
 10
88.370000
 20
52.540000
 97
  0
 75
  0
 76
  2
 98
  0
 0
HATCH
 5
1043
330
1D
 100
AcDbEntity
 8
Узел
 100
AcDbHatch
 10
0.0
 20
0.0
 30
0.0
 210
0.0
 220
0.0
 230
1.0
 2
SOLID
 70
  1
 71
  0
 91
  1
 92
  3
 72
  0
 73
  1
 93
   3
 10
117.170000
 20
85.240000
 10
118.670000
 20
85.240000
 10
117.170000
 20
83.740000
 97
  0
 75
  0
 76
  2
 98
  0
 0
HATCH
 5
1044
330
1D
 100
AcDbEntity
 8
Узел
 100
AcDbHatch
 10
0.0
 20
0.0
 30
0.0
 210
0.0
 220
0.0
 230
1.0
 2
SOLID
 70
  1
 71
  0
 91
  1
 92
  3
 72
  0
 73
  1
 93
   3
 10
117.170000
 20
86.440000
 10
118.670000
 20
86.440000
 10
117.170000
 20
87.940000
 97
  0
 75
  0
 76
  2
 98
  0
 0
HATCH
 5
1045
330
1D
 100
AcDbEntity
 8
Узел
 100
AcDbHatch
 10
0.0
 20
0.0
 30
0.0
 210
0.0
 220
0.0
 230
1.0
 2
SOLID
 70
  1
 71
  0
 91
  1
 92
  3
 72
  0
 73
  1
 93
   3
 10
115.970000
 20
86.440000
 10
114.470000
 20
86.440000
 10
115.970000
 20
87.940000
 97
  0
 75
  0
 76
  2
 98
  0
 0
HATCH
 5
1046
330
1D
 100
AcDbEntity
 8
Узел
 100
AcDbHatch
 10
0.0
 20
0.0
 30
0.0
 210
0.0
 220
0.0
 230
1.0
 2
SOLID
 70
  1
 71
  0
 91
  1
 92
  3
 72
  0
 73
  1
 93
   3
 10
117.170000
 20
55.240000
 10
118.670000
 20
55.240000
 10
117.170000
 20
56.740000
 97
  0
 75
  0
 76
  2
 98
  0
 0
HATCH
 5
1047
330
1D
 100
AcDbEntity
 8
Узел
 100
AcDbHatch
 10
0.0
 20
0.0
 30
0.0
 210
0.0
 220
0.0
 230
1.0
 2
SOLID
 70
  1
 71
  0
 91
  1
 92
  3
 72
  0
 73
  1
 93
   3
 10
117.170000
 20
54.040000
 10
118.670000
 20
54.040000
 10
117.170000
 20
52.540000
 97
  0
 75
  0
 76
  2
 98
  0
 0
HATCH
 5
1048
330
1D
 100
AcDbEntity
 8
Узел
 100
AcDbHatch
 10
0.0
 20
0.0
 30
0.0
 210
0.0
 220
0.0
 230
1.0
 2
SOLID
 70
  1
 71
  0
 91
  1
 92
  3
 72
  0
 73
  1
 93
   3
 10
115.970000
 20
54.040000
 10
114.470000
 20
54.040000
 10
115.970000
 20
52.540000
 97
  0
 75
  0
 76
  2
 98
  0
 0
HATCH
 5
1049
330
1D
 100
AcDbEntity
 8
Узел
 100
AcDbHatch
 10
0.0
 20
0.0
 30
0.0
 210
0.0
 220
0.0
 230
1.0
 2
SOLID
 70
  1
 71
  0
 91
  1
 92
  3
 72
  0
 73
  1
 93
   3
 10
99.170000
 20
54.040000
 10
99.840533
 20
49.085165
 10
99.880869
 20
51.125439
 97
  0
 75
  0
 76
  2
 98
  0
 0
LINE
 5
5706
330
1E
 100
AcDbEntity
 8
Узел
 6
CONTINUOUS
 100
AcDbLine
 39
0.030000
 10
99.170000
 20
54.040000
 11
104.670000
 21
31.490000
 0
LINE
 5
5707
330
1E
 100
AcDbEntity
 8
Узел
 6
CONTINUOUS
 100
AcDbLine
 39
0.030000
 10
104.670000
 20
31.490000
 11
109.670000
 21
31.490000
 0
TEXT
 5
2520
330
1E
 100
AcDbEntity
 8
Узел
 48
50.0
 100
AcDbText
 10
107.170000
 20
31.990000
 40
2.500000
 1
6
 50
0.000000
 41
0.700000
 51
15.000000
 7
SCADOFFICE
 72
  1
 11
107.170000
 21
31.990000
 100
AcDbText
 0
HATCH
 5
1050
330
1D
 100
AcDbEntity
 8
Узел
 100
AcDbHatch
 10
0.0
 20
0.0
 30
0.0
 210
0.0
 220
0.0
 230
1.0
 2
SOLID
 70
  1
 71
  0
 91
  1
 92
  3
 72
  0
 73
  1
 93
   3
 10
117.170000
 20
54.040000
 10
117.736181
 20
49.072160
 10
117.819416
 20
51.111134
 97
  0
 75
  0
 76
  2
 98
  0
 0
LINE
 5
5708
330
1E
 100
AcDbEntity
 8
Узел
 6
CONTINUOUS
 100
AcDbLine
 39
0.030000
 10
117.170000
 20
54.040000
 11
122.170000
 21
31.490000
 0
LINE
 5
5709
330
1E
 100
AcDbEntity
 8
Узел
 6
CONTINUOUS
 100
AcDbLine
 39
0.030000
 10
122.170000
 20
31.490000
 11
127.170000
 21
31.490000
 0
TEXT
 5
2521
330
1E
 100
AcDbEntity
 8
Узел
 48
50.0
 100
AcDbText
 10
124.670000
 20
31.990000
 40
2.500000
 1
4
 50
0.000000
 41
0.700000
 51
15.000000
 7
SCADOFFICE
 72
  1
 11
124.670000
 21
31.990000
 100
AcDbText
 0
DIMENSION
 5
4005
330
1E
 100
AcDbEntity
 8
Размеры
 100
AcDbDimension
 2
*D5
 10
87.170000
 20
35.990000
 30
0.0
 11
91.370000
 21
35.990000
 31
0.0
 70
  160
 71
  5
 42
46
 3
SCADOFFICE_DIM
 100
AcDbAlignedDimension
 13
82.570000
 23
43.990000
 33
0.0
 14
87.170000
 24
43.990000
 34
0.0
 50
0
 100
AcDbRotatedDimension
 0
DIMENSION
 5
4006
330
1E
 100
AcDbEntity
 8
Размеры
 100
AcDbDimension
 2
*D6
 10
77.420000
 20
35.990000
 30
0.0
 11
69.020000
 21
35.990000
 31
0.0
 70
  160
 71
  5
 42
51.5
 3
SCADOFFICE_DIM
 100
AcDbAlignedDimension
 13
82.570000
 23
43.990000
 33
0.0
 14
77.420000
 24
43.990000
 34
0.0
 50
0
 100
AcDbRotatedDimension
 0
DIMENSION
 5
4007
330
1E
 100
AcDbEntity
 8
Размеры
 100
AcDbDimension
 2
*D7
 10
126.920000
 20
112.490000
 30
0.0
 11
102.170000
 21
112.490000
 31
0.0
 70
  0
 71
  5
 42
495
 3
SCADOFFICE_DIM
 100
AcDbAlignedDimension
 13
77.420000
 23
96.490000
 33
0.0
 14
126.920000
 24
96.490000
 34
0.0
 50
0
 100
AcDbRotatedDimension
 0
DIMENSION
 5
4008
330
1E
 100
AcDbEntity
 8
Размеры
 100
AcDbDimension
 2
*D8
 10
61.420000
 20
96.490000
 30
0.0
 11
61.420000
 21
70.240000
 31
0.0
 70
  0
 71
  5
 42
525
 3
SCADOFFICE_DIM
 100
AcDbAlignedDimension
 13
77.420000
 23
43.990000
 33
0.0
 14
77.420000
 24
96.490000
 34
0.0
 50
90
 100
AcDbRotatedDimension
 0
DIMENSION
 5
4009
330
1E
 100
AcDbEntity
 8
Размеры
 100
AcDbDimension
 2
*D9
 10
88.370000
 20
104.490000
 30
0.0
 11
92.570000
 21
104.490000
 31
0.0
 70
  160
 71
  5
 42
12
 3
SCADOFFICE_DIM
 100
AcDbAlignedDimension
 13
87.170000
 23
96.490000
 33
0.0
 14
88.370000
 24
96.490000
 34
0.0
 50
0
 100
AcDbRotatedDimension
 0
DIMENSION
 5
4010
330
1E
 100
AcDbEntity
 8
Размеры
 100
AcDbDimension
 2
*D10
 10
117.170000
 20
104.490000
 30
0.0
 11
122.045000
 21
104.490000
 31
0.0
 70
  0
 71
  5
 42
97.5
 3
SCADOFFICE_DIM
 100
AcDbAlignedDimension
 13
126.920000
 23
96.490000
 33
0.0
 14
117.170000
 24
96.490000
 34
0.0
 50
0
 100
AcDbRotatedDimension
 0
DIMENSION
 5
4011
330
1E
 100
AcDbEntity
 8
Размеры
 100
AcDbDimension
 2
*D11
 10
69.420000
 20
85.240000
 30
0.0
 11
69.420000
 21
90.865000
 31
0.0
 70
  0
 71
  5
 42
112.5
 3
SCADOFFICE_DIM
 100
AcDbAlignedDimension
 13
77.420000
 23
96.490000
 33
0.0
 14
77.420000
 24
85.240000
 34
0.0
 50
90
 100
AcDbRotatedDimension
 0
DIMENSION
 5
4012
330
1E
 100
AcDbEntity
 8
Размеры
 100
AcDbDimension
 2
*D12
 10
134.920000
 20
48.540000
 30
0.0
 11
134.920000
 21
44.340000
 31
0.0
 70
  160
 71
  5
 42
55
 3
SCADOFFICE_DIM
 100
AcDbAlignedDimension
 13
126.920000
 23
54.040000
 33
0.0
 14
126.920000
 24
48.540000
 34
0.0
 50
90
 100
AcDbRotatedDimension
 0
TEXT
 5
2522
330
1E
 100
AcDbEntity
 8
Спецификация
 48
50.0
 100
AcDbText
 10
322.500000
 20
94.000000
 40
2.500000
 1
СПЕЦИФИКАЦИЯ
 50
0.000000
 41
0.700000
 51
15.000000
 7
SCADOFFICE
 72
  1
 11
322.500000
 21
94.000000
 100
AcDbText
 0
TEXT
 5
2523
330
1E
 100
AcDbEntity
 8
Спецификация
 48
50.0
 100
AcDbText
 10
237.000000
 20
83.000000
 40
2.500000
 1
Поз.
 50
0.000000
 41
0.700000
 51
15.000000
 7
SCADOFFICE
 72
  1
 11
237.000000
 21
83.000000
 100
AcDbText
 0
TEXT
 5
2524
330
1E
 100
AcDbEntity
 8
Спецификация
 48
50.0
 100
AcDbText
 10
275.000000
 20
83.000000
 40
2.500000
 1
Обозначение
 50
0.000000
 41
0.700000
 51
15.000000
 7
SCADOFFICE
 72
  1
 11
275.000000
 21
83.000000
 100
AcDbText
 0
TEXT
 5
2525
330
1E
 100
AcDbEntity
 8
Спецификация
 48
50.0
 100
AcDbText
 10
337.000000
 20
83.000000
 40
2.500000
 1
Наименование
 50
0.000000
 41
0.700000
 51
15.000000
 7
SCADOFFICE
 72
  1
 11
337.000000
 21
83.000000
 100
AcDbText
 0
TEXT
 5
2526
330
1E
 100
AcDbEntity
 8
Спецификация
 48
50.0
 100
AcDbText
 10
375.000000
 20
83.000000
 40
2.500000
 1
Кол.
 50
0.000000
 41
0.700000
 51
15.000000
 7
SCADOFFICE
 72
  1
 11
375.000000
 21
83.000000
 100
AcDbText
 0
TEXT
 5
2527
330
1E
 100
AcDbEntity
 8
Спецификация
 48
50.0
 100
AcDbText
 10
388.000000
 20
86.000000
 40
2.500000
 1
Масса
 50
0.000000
 41
0.700000
 51
15.000000
 7
SCADOFFICE
 72
  1
 11
388.000000
 21
86.000000
 100
AcDbText
 0
TEXT
 5
2528
330
1E
 100
AcDbEntity
 8
Спецификация
 48
50.0
 100
AcDbText
 10
388.000000
 20
80.000000
 40
2.500000
 1
ед.,кг
 50
0.000000
 41
0.700000
 51
15.000000
 7
SCADOFFICE
 72
  1
 11
388.000000
 21
80.000000
 100
AcDbText
 0
TEXT
 5
2529
330
1E
 100
AcDbEntity
 8
Спецификация
 48
50.0
 100
AcDbText
 10
405.000000
 20
86.000000
 40
2.500000
 1
Приме-
 50
0.000000
 41
0.700000
 51
15.000000
 7
SCADOFFICE
 72
  1
 11
405.000000
 21
86.000000
 100
AcDbText
 0
TEXT
 5
2530
330
1E
 100
AcDbEntity
 8
Спецификация
 48
50.0
 100
AcDbText
 10
405.000000
 20
80.000000
 40
2.500000
 1
чание
 50
0.000000
 41
0.700000
 51
15.000000
 7
SCADOFFICE
 72
  1
 11
405.000000
 21
80.000000
 100
AcDbText
 0
LINE
 5
5710
330
1E
 100
AcDbEntity
 8
Спецификация
 6
CONTINUOUS
 100
AcDbLine
 39
0.030000
 10
230.000000
 20
92.000000
 11
415.000000
 21
92.000000
 0
LINE
 5
5711
330
1E
 100
AcDbEntity
 8
Спецификация
 6
CONTINUOUS
 100
AcDbLine
 39
0.030000
 10
230.000000
 20
77.000000
 11
415.000000
 21
77.000000
 0
LINE
 5
5712
330
1E
 100
AcDbEntity
 8
Спецификация
 6
CONTINUOUS
 100
AcDbLine
 39
0.030000
 10
230.000000
 20
69.000000
 11
415.000000
 21
69.000000
 0
LINE
 5
5713
330
1E
 100
AcDbEntity
 8
Спецификация
 6
CONTINUOUS
 100
AcDbLine
 39
0.030000
 10
230.000000
 20
61.000000
 11
415.000000
 21
61.000000
 0
LINE
 5
5714
330
1E
 100
AcDbEntity
 8
Спецификация
 6
CONTINUOUS
 100
AcDbLine
 39
0.030000
 10
230.000000
 20
53.000000
 11
415.000000
 21
53.000000
 0
LINE
 5
5715
330
1E
 100
AcDbEntity
 8
Спецификация
 6
CONTINUOUS
 100
AcDbLine
 39
0.030000
 10
230.000000
 20
45.000000
 11
415.000000
 21
45.000000
 0
LINE
 5
5716
330
1E
 100
AcDbEntity
 8
Спецификация
 6
CONTINUOUS
 100
AcDbLine
 39
0.030000
 10
230.000000
 20
45.000000
 11
230.000000
 21
92.000000
 0
LINE
 5
5717
330
1E
 100
AcDbEntity
 8
Спецификация
 6
CONTINUOUS
 100
AcDbLine
 39
0.030000
 10
245.000000
 20
45.000000
 11
245.000000
 21
92.000000
 0
LINE
 5
5718
330
1E
 100
AcDbEntity
 8
Спецификация
 6
CONTINUOUS
 100
AcDbLine
 39
0.030000
 10
305.000000
 20
45.000000
 11
305.000000
 21
92.000000
 0
LINE
 5
5719
330
1E
 100
AcDbEntity
 8
Спецификация
 6
CONTINUOUS
 100
AcDbLine
 39
0.030000
 10
370.000000
 20
45.000000
 11
370.000000
 21
92.000000
 0
LINE
 5
5720
330
1E
 100
AcDbEntity
 8
Спецификация
 6
CONTINUOUS
 100
AcDbLine
 39
0.030000
 10
380.000000
 20
45.000000
 11
380.000000
 21
92.000000
 0
LINE
 5
5721
330
1E
 100
AcDbEntity
 8
Спецификация
 6
CONTINUOUS
 100
AcDbLine
 39
0.030000
 10
395.000000
 20
45.000000
 11
395.000000
 21
92.000000
 0
LINE
 5
5722
330
1E
 100
AcDbEntity
 8
Спецификация
 6
CONTINUOUS
 100
AcDbLine
 39
0.030000
 10
415.000000
 20
45.000000
 11
415.000000
 21
92.000000
 0
TEXT
 5
2531
330
1E
 100
AcDbEntity
 8
Спецификация
 48
50.0
 100
AcDbText
 10
237.000000
 20
71.000000
 40
2.500000
 1
1
 50
0.000000
 41
0.700000
 51
15.000000
 7
SCADOFFICE
 72
  1
 11
237.000000
 21
71.000000
 100
AcDbText
 0
TEXT
 5
2532
330
1E
 100
AcDbEntity
 8
Спецификация
 48
50.0
 100
AcDbText
 10
375.000000
 20
71.000000
 40
2.500000
 1
1
 50
0.000000
 41
0.700000
 51
15.000000
 7
SCADOFFICE
 72
  1
 11
375.000000
 21
71.000000
 100
AcDbText
 0
TEXT
 5
2533
330
1E
 100
AcDbEntity
 8
Спецификация
 48
50.0
 100
AcDbText
 10
308.000000
 20
71.000000
 40
2.500000
 1
Пластина 495x525x20
 50
0.000000
 41
0.700000
 51
15.000000
 7
SCADOFFICE
 72
  0
 11
308.000000
 21
71.000000
 100
AcDbText
 0
TEXT
 5
2534
330
1E
 100
AcDbEntity
 8
Спецификация
 48
50.0
 100
AcDbText
 10
237.000000
 20
63.000000
 40
2.500000
 1
2
 50
0.000000
 41
0.700000
 51
15.000000
 7
SCADOFFICE
 72
  1
 11
237.000000
 21
63.000000
 100
AcDbText
 0
TEXT
 5
2535
330
1E
 100
AcDbEntity
 8
Спецификация
 48
50.0
 100
AcDbText
 10
375.000000
 20
63.000000
 40
2.500000
 1
4
 50
0.000000
 41
0.700000
 51
15.000000
 7
SCADOFFICE
 72
  1
 11
375.000000
 21
63.000000
 100
AcDbText
 0
TEXT
 5
2536
330
1E
 100
AcDbEntity
 8
Спецификация
 48
50.0
 100
AcDbText
 10
308.000000
 20
63.000000
 40
2.500000
 1
Болт 20. Сталь Ст3пс4
 50
0.000000
 41
0.700000
 51
15.000000
 7
SCADOFFICE
 72
  0
 11
308.000000
 21
63.000000
 100
AcDbText
 0
TEXT
 5
2537
330
1E
 100
AcDbEntity
 8
Спецификация
 48
50.0
 100
AcDbText
 10
237.000000
 20
55.000000
 40
2.500000
 1
3
 50
0.000000
 41
0.700000
 51
15.000000
 7
SCADOFFICE
 72
  1
 11
237.000000
 21
55.000000
 100
AcDbText
 0
TEXT
 5
2538
330
1E
 100
AcDbEntity
 8
Спецификация
 48
50.0
 100
AcDbText
 10
375.000000
 20
55.000000
 40
2.500000
 1
2
 50
0.000000
 41
0.700000
 51
15.000000
 7
SCADOFFICE
 72
  1
 11
375.000000
 21
55.000000
 100
AcDbText
 0
TEXT
 5
2539
330
1E
 100
AcDbEntity
 8
Спецификация
 48
50.0
 100
AcDbText
 10
308.000000
 20
55.000000
 40
2.500000
 1
Пластина 240x495x12
 50
0.000000
 41
0.700000
 51
15.000000
 7
SCADOFFICE
 72
  0
 11
308.000000
 21
55.000000
 100
AcDbText
 0
TEXT
 5
2540
330
1E
 100
AcDbEntity
 8
Спецификация
 48
50.0
 100
AcDbText
 10
237.000000
 20
47.000000
 40
2.500000
 1
4
 50
0.000000
 41
0.700000
 51
15.000000
 7
SCADOFFICE
 72
  1
 11
237.000000
 21
47.000000
 100
AcDbText
 0
TEXT
 5
2541
330
1E
 100
AcDbEntity
 8
Спецификация
 48
50.0
 100
AcDbText
 10
375.000000
 20
47.000000
 40
2.500000
 1
4
 50
0.000000
 41
0.700000
 51
15.000000
 7
SCADOFFICE
 72
  1
 11
375.000000
 21
47.000000
 100
AcDbText
 0
TEXT
 5
2542
330
1E
 100
AcDbEntity
 8
Спецификация
 48
50.0
 100
AcDbText
 10
308.000000
 20
47.000000
 40
2.500000
 1
Пластина 240x100x12
 50
0.000000
 41
0.700000
 51
15.000000
 7
SCADOFFICE
 72
  0
 11
308.000000
 21
47.000000
 100
AcDbText
 0
ENDSEC
  0
SECTION
  2
OBJECTS
0
DICTIONARY
  5
C
330
0
100
AcDbDictionary
281
  1
 3
ACAD_GROUP
350
D
 3
ACAD_LAYOUT
350
19
 3
ACAD_MLINESTYLE
350
16
 3
ACAD_PLOTSETTINGS
350
18
 3
ACAD_PLOTSTYLENAME
350
E
 3
ACDBHEADERROUNDTRIPXREC
350
CCC
  3
AcDbVariableDictionary
350
3A4
  0
DICTIONARY
  5
D
102
{ACAD_REACTORS
330
C
102
}
330
C
100
AcDbDictionary
281
   1
  0
DICTIONARY
  5
19
102
{ACAD_REACTORS
330
C
102
}
330
C
100
AcDbDictionary
281
   1
  3
Layout1
350
1D
  3
Layout2
350
26
  3
Model
350
21
  0
DICTIONARY
  5
16
102
{ACAD_REACTORS
330
C
102
}
330
C
100
AcDbDictionary
281
   1
  3
Standard
350
17
  0
DICTIONARY
  5
18
102
{ACAD_REACTORS
330
C
102
}
330
C
100
AcDbDictionary
281
   1
  0
ACDBDICTIONARYWDFLT
  5
E
102
{ACAD_REACTORS
330
C
102
}
330
C
100
AcDbDictionary
281
   1
  3
Normal
350
F
100
AcDbDictionaryWithDefault
340
F
  0
DICTIONARY
  5
CCC
102
{ACAD_REACTORS
330
C
102
}
330
C
100
AcDbDictionary
281
   1
  3
DIMSTYLEDATA
350
CDA
  3
FINGERPRINTGUID
350
CD7
  3
HYPERLINKBASE
350
CCF
  3
INSUNITS
350
CD5
  3
LAYOUTDICT
350
CD1
  3
LWETCUNION
350
CD4
  3
PLOTSETDICT
350
CD2
  3
PLOTSTYLNAMDICT
350
CD3
  3
PSVPSCALE
350
CD9
  3
PUCSBASE
350
CDD
  3
PUCSORGBACK
350
CE3
  3
PUCSORGBOTTOM
350
CDF
  3
PUCSORGFRONT
350
CE2
  3
PUCSORGLEFT
350
CE0
  3
PUCSORGRIGHT
350
CE1
  3
PUCSORGTOP
350
CDE
  3
PUCSORTHOREF
350
CDB
  3
PUCSORTHOVIEW
350
CDC
  3
STYLESHEET
350
CD0
  3
TSTACKALIGN
350
CCD
  3
TSTACKSIZE
350
CCE
  3
UCSBASE
350
CE6
  3
UCSORGBACK
350
CEC
  3
UCSORGBOTTOM
350
CE8
  3
UCSORGFRONT
350
CEB
  3
UCSORGLEFT
350
CE9
  3
UCSORGRIGHT
350
CEA
  3
UCSORGTOP
350
CE7
  3
UCSORTHOREF
350
CE4
  3
UCSORTHOVIEW
350
CE5
  3
VERSIONGUID
350
CD8
  0
DICTIONARY
  5
3A4
102
{ACAD_REACTORS
330
C
102
}
330
C
100
AcDbDictionary
281
     1
  3
DIMASSOC
350
3A5
  0
LAYOUT
  5
1D
102
{ACAD_REACTORS
330
19
102
}
330
19
100
AcDbPlotSettings
  1
 
  2
Printer
  4
 
  6
 
 40
0.0
 41
0.0
 42
0.0
 43
0.0
 44
0.0
 45
0.0
 46
0.0
 47
0.0
 48
0.0
 49
0.0
140
0.0
141
0.0
142
1.0
143
1.0
 70
  688
 72
   0
 73
   0
 74
   5
  7
 
 75
   16
147
1.0
148
0.0
149
0.0
100
AcDbLayout
  1
Layout1
 70
     1
 71
     1
 10
0.0
 20
0.0
 11
420.0
 21
297.0
 12
0.0
 22
0.0
 32
0.0
 14
1.0E+20
 24
1.0E+20
 34
1.0E+20
 15
-1.0E+20
 25
-1.0E+20
 35
-1.0E+20
146
0.0
 13
0.0
 23
0.0
 33
0.0
 16
1.0
 26
0.0
 36
0.0
 17
0.0
 27
1.0
 37
0.0
 76
     0
330
2A
  0
LAYOUT
  5
21
102
{ACAD_REACTORS
330
19
102
}
330
19
100
AcDbPlotSettings
  1
 
  2
HP LaserJet 2100 Series PCL 6
  4
 
  6
 
 40
0.0
 41
0.0
 42
0.0
 43
0.0
 44
0.0
 45
0.0
 46
0.0
 47
0.0
 48
0.0
 49
0.0
140
0.0
141
0.0
142
1.0
143
1.0
 70
   1712
 72
   0
 73
   0
 74
   0
  7
 
 75
   0
147
1.0
148
0.0
149
0.0
100
AcDbLayout
  1
Model
 70
    1
 71
    0
 10
0.0
 20
0.0
 11
12.0
 21
9.0
 12
0.0
 22
0.0
 32
0.0
 14
0.0
 24
0.0
 34
0.0
 15
0.0
 25
0.0
 35
0.0
146
0.0
 13
0.0
 23
0.0
 33
0.0
 16
1.0
 26
0.0
 36
0.0
 17
0.0
 27
1.0
 37
0.0
 76
    0
330
1E
  0
LAYOUT
  5
26
102
{ACAD_REACTORS
330
19
102
}
330
19
100
AcDbPlotSettings
  1
 
  2
HP LaserJet2100 Series PCL 6
  4
 
  6
 
 40
0.0
 41
0.0
 42
0.0
 43
0.0
 44
0.0
 45
0.0
 46
0.0
 47
0.0
 48
0.0
 49
0.0
140
0.0
141
0.0
142
1.0
143
1.0
 70
   1712
 72
   0
 73
   0
 74
   0
  7
 
 75
   0
147
1.0
148
0.0
149
0.0
100
AcDbLayout
  1
Layout2
 70
    1
 71
    0
 10
0.0
 20
0.0
 11
12.0
 21
9.0
 12
0.0
 22
0.0
 32
0.0
 14
0.0
 24
0.0
 34
0.0
 15
0.0
 25
0.0
 35
0.0
146
0.0
 13
0.0
 23
0.0
 33
0.0
 16
1.0
 26
0.0
 36
0.0
 17
0.0
 27
1.0
 37
0.0
 76
    0
330
33
  0
MLINESTYLE
  5
17
102
{ACAD_REACTORS
330
16
102
}
330
16
100
AcDbMlineStyle
  2
STANDARD
 70
     0
  3
 
 62
   256
 51
90.0
 52
90.0
 71
     2
 49
0.5
 62
   256
  6
BYLAYER
 49
-0.5
 62
   256
  6
BYLAYER
  0
ACDBPLACEHOLDER
  5
F
102
{ACAD_REACTORS
330
E
102
}
330
E
  0
XRECORD
  5
CDA
102
{ACAD_REACTORS
330
CCC
102
}
330
CCC
100
AcDbXrecord
280
     1
1000
DSTYLE
1002
{
1070
 341
340
CE
1070
 342
340
CE
1070
 371
70
 -3
1070
 372
70
 -3
1002
}
  0
XRECORD
  5
CD7
102
{ACAD_REACTORS
330
CCC
102
}
330
CCC
100
AcDbXrecord
280
     1
  1
{0871184B-FFD7-11D7-B25E-00024462752A}
  0
XRECORD
  5
CCF
102
{ACAD_REACTORS
330
CCC
102
}
330
CCC
100
AcDbXrecord
280
     1
  1
 
  0
XRECORD
  5
CD5
102
{ACAD_REACTORS
330
CCC
102
}
330
CCC
100
AcDbXrecord
280
     1
 90
     4
  0
XRECORD
  5
CD1
102
{ACAD_REACTORS
330
CCC
102
}
330
CCC
100
AcDbXrecord
280
     1
340
19
  0
XRECORD
  5
CD4
102
{ACAD_REACTORS
330
CCC
102
}
330
CCC
100
AcDbXrecord
280
     1
 90
    10269
  0
XRECORD
  5
CD2
102
{ACAD_REACTORS
330
CCC
102
}
330
CCC
100
AcDbXrecord
280
     1
340
18
  0
XRECORD
  5
CD3
102
{ACAD_REACTORS
330
CCC
102
}
330
CCC
100
AcDbXrecord
280
     1
340
E
  0
XRECORD
  5
CD9
102
{ACAD_REACTORS
330
CCC
102
}
330
CCC
100
AcDbXrecord
280
     1
 40
0.0
  0
XRECORD
  5
CDD
102
{ACAD_REACTORS
330
CCC
102
}
330
CCC
100
AcDbXrecord
280
     1
340
0
  0
XRECORD
  5
CE3
102
{ACAD_REACTORS
330
CCC
102
}
330
CCC
100
AcDbXrecord
280
     1
 10
0.0
 20
0.0
 30
0.0
  0
XRECORD
  5
CDF
102
{ACAD_REACTORS
330
CCC
102
}
330
CCC
100
AcDbXrecord
280
     1
 10
0.0
 20
0.0
 30
0.0
  0
XRECORD
  5
CE2
102
{ACAD_REACTORS
330
CCC
102
}
330
CCC
100
AcDbXrecord
280
     1
 10
0.0
 20
0.0
 30
0.0
  0
XRECORD
  5
CE0
102
{ACAD_REACTORS
330
CCC
102
}
330
CCC
100
AcDbXrecord
280
     1
 10
0.0
 20
0.0
 30
0.0
  0
XRECORD
  5
CE1
102
{ACAD_REACTORS
330
CCC
102
}
330
CCC
100
AcDbXrecord
280
     1
 10
0.0
 20
0.0
 30
0.0
  0
XRECORD
  5
CDE
102
{ACAD_REACTORS
330
CCC
102
}
330
CCC
100
AcDbXrecord
280
     1
 10
0.0
 20
0.0
 30
0.0
  0
XRECORD
  5
CDB
102
{ACAD_REACTORS
330
CCC
102
}
330
CCC
100
AcDbXrecord
280
     1
340
0
  0
XRECORD
  5
CDC
102
{ACAD_REACTORS
330
CCC
102
}
330
CCC
100
AcDbXrecord
280
     1
 70
     0
  0
XRECORD
  5
CD0
102
{ACAD_REACTORS
330
CCC
102
}
330
CCC
100
AcDbXrecord
280
     1
  1
 
  0
XRECORD
  5
CCD
102
{ACAD_REACTORS
330
CCC
102
}
330
CCC
100
AcDbXrecord
280
     1
 90
     1
  0
XRECORD
  5
CCE
102
{ACAD_REACTORS
330
CCC
102
}
330
CCC
100
AcDbXrecord
280
     1
 90
   70
  0
XRECORD
  5
CE6
102
{ACAD_REACTORS
330
CCC
102
}
330
CCC
100
AcDbXrecord
280
     1
340
0
  0
XRECORD
  5
CEC
102
{ACAD_REACTORS
330
CCC
102
}
330
CCC
100
AcDbXrecord
280
     1
 10
0.0
 20
0.0
 30
0.0
  0
XRECORD
  5
CE8
102
{ACAD_REACTORS
330
CCC
102
}
330
CCC
100
AcDbXrecord
280
     1
 10
0.0
 20
0.0
 30
0.0
  0
XRECORD
  5
CEB
102
{ACAD_REACTORS
330
CCC
102
}
330
CCC
100
AcDbXrecord
280
     1
 10
0.0
 20
0.0
 30
0.0
  0
XRECORD
  5
CE9
102
{ACAD_REACTORS
330
CCC
102
}
330
CCC
100
AcDbXrecord
280
     1
 10
0.0
 20
0.0
 30
0.0
  0
XRECORD
  5
CEA
102
{ACAD_REACTORS
330
CCC
102
}
330
CCC
100
AcDbXrecord
280
     1
 10
0.0
 20
0.0
 30
0.0
  0
XRECORD
  5
CE7
102
{ACAD_REACTORS
330
CCC
102
}
330
CCC
100
AcDbXrecord
280
     1
 10
0.0
 20
0.0
 30
0.0
  0
XRECORD
  5
CE4
102
{ACAD_REACTORS
330
CCC
102
}
330
CCC
100
AcDbXrecord
280
     1
340
0
  0
XRECORD
  5
CE5
102
{ACAD_REACTORS
330
CCC
102
}
330
CCC
100
AcDbXrecord
280
     1
 70
   0
  0
XRECORD
  5
CD8
102
{ACAD_REACTORS
330
CCC
102
}
330
CCC
100
AcDbXrecord
280
     1
  1
{B452936A-BE19-11D8-B25F-00024462752A}
  0
DICTIONARYVAR
  5
3A5
102
{ACAD_REACTORS
330
3A4
102
}
330
3A4
100
DictionaryVariables
280
     0
  1
1
 0
ENDSEC
0
EOF
